%TF.GenerationSoftware,KiCad,Pcbnew,9.0.3*%
%TF.CreationDate,2025-07-12T21:26:52+09:00*%
%TF.ProjectId,AViC m4,41566943-206d-4342-9e6b-696361645f70,rev?*%
%TF.SameCoordinates,Original*%
%TF.FileFunction,Soldermask,Top*%
%TF.FilePolarity,Negative*%
%FSLAX46Y46*%
G04 Gerber Fmt 4.6, Leading zero omitted, Abs format (unit mm)*
G04 Created by KiCad (PCBNEW 9.0.3) date 2025-07-12 21:26:52*
%MOMM*%
%LPD*%
G01*
G04 APERTURE LIST*
G04 Aperture macros list*
%AMRoundRect*
0 Rectangle with rounded corners*
0 $1 Rounding radius*
0 $2 $3 $4 $5 $6 $7 $8 $9 X,Y pos of 4 corners*
0 Add a 4 corners polygon primitive as box body*
4,1,4,$2,$3,$4,$5,$6,$7,$8,$9,$2,$3,0*
0 Add four circle primitives for the rounded corners*
1,1,$1+$1,$2,$3*
1,1,$1+$1,$4,$5*
1,1,$1+$1,$6,$7*
1,1,$1+$1,$8,$9*
0 Add four rect primitives between the rounded corners*
20,1,$1+$1,$2,$3,$4,$5,0*
20,1,$1+$1,$4,$5,$6,$7,0*
20,1,$1+$1,$6,$7,$8,$9,0*
20,1,$1+$1,$8,$9,$2,$3,0*%
%AMOutline5P*
0 Free polygon, 5 corners , with rotation*
0 The origin of the aperture is its center*
0 number of corners: always 5*
0 $1 to $10 corner X, Y*
0 $11 Rotation angle, in degrees counterclockwise*
0 create outline with 5 corners*
4,1,5,$1,$2,$3,$4,$5,$6,$7,$8,$9,$10,$1,$2,$11*%
%AMOutline6P*
0 Free polygon, 6 corners , with rotation*
0 The origin of the aperture is its center*
0 number of corners: always 6*
0 $1 to $12 corner X, Y*
0 $13 Rotation angle, in degrees counterclockwise*
0 create outline with 6 corners*
4,1,6,$1,$2,$3,$4,$5,$6,$7,$8,$9,$10,$11,$12,$1,$2,$13*%
%AMOutline7P*
0 Free polygon, 7 corners , with rotation*
0 The origin of the aperture is its center*
0 number of corners: always 7*
0 $1 to $14 corner X, Y*
0 $15 Rotation angle, in degrees counterclockwise*
0 create outline with 7 corners*
4,1,7,$1,$2,$3,$4,$5,$6,$7,$8,$9,$10,$11,$12,$13,$14,$1,$2,$15*%
%AMOutline8P*
0 Free polygon, 8 corners , with rotation*
0 The origin of the aperture is its center*
0 number of corners: always 8*
0 $1 to $16 corner X, Y*
0 $17 Rotation angle, in degrees counterclockwise*
0 create outline with 8 corners*
4,1,8,$1,$2,$3,$4,$5,$6,$7,$8,$9,$10,$11,$12,$13,$14,$15,$16,$1,$2,$17*%
%AMFreePoly0*
4,1,11,1.372500,0.165000,0.862500,0.165000,0.862500,-0.090000,1.372500,-0.090000,1.372500,-0.495000,-0.862500,-0.495000,-0.862500,0.495000,0.612500,0.495000,0.612500,0.587500,1.372500,0.587500,1.372500,0.165000,1.372500,0.165000,$1*%
%AMFreePoly1*
4,1,11,1.372500,0.090000,0.862500,0.090000,0.862500,-0.165000,1.372500,-0.165000,1.372500,-0.587500,0.612500,-0.587500,0.612500,-0.495000,-0.862500,-0.495000,-0.862500,0.495000,1.372500,0.495000,1.372500,0.090000,1.372500,0.090000,$1*%
G04 Aperture macros list end*
%ADD10RoundRect,0.225000X0.225000X0.250000X-0.225000X0.250000X-0.225000X-0.250000X0.225000X-0.250000X0*%
%ADD11R,0.800000X0.400000*%
%ADD12R,0.400000X0.800000*%
%ADD13Outline5P,-0.600000X0.204000X-0.204000X0.600000X0.600000X0.600000X0.600000X-0.600000X-0.600000X-0.600000X0.000000*%
%ADD14R,1.200000X1.200000*%
%ADD15R,0.800000X0.800000*%
%ADD16R,1.700000X1.700000*%
%ADD17O,1.700000X1.700000*%
%ADD18R,0.990000X0.405000*%
%ADD19FreePoly0,180.000000*%
%ADD20FreePoly1,180.000000*%
%ADD21RoundRect,0.250001X-1.149999X1.149999X-1.149999X-1.149999X1.149999X-1.149999X1.149999X1.149999X0*%
%ADD22C,2.800000*%
%ADD23RoundRect,0.250000X-0.650000X1.000000X-0.650000X-1.000000X0.650000X-1.000000X0.650000X1.000000X0*%
%ADD24R,6.000000X3.000000*%
%ADD25RoundRect,0.200000X0.200000X0.275000X-0.200000X0.275000X-0.200000X-0.275000X0.200000X-0.275000X0*%
%ADD26RoundRect,0.225000X-0.225000X-0.250000X0.225000X-0.250000X0.225000X0.250000X-0.225000X0.250000X0*%
%ADD27RoundRect,0.225000X-0.250000X0.225000X-0.250000X-0.225000X0.250000X-0.225000X0.250000X0.225000X0*%
%ADD28RoundRect,0.218750X-0.256250X0.218750X-0.256250X-0.218750X0.256250X-0.218750X0.256250X0.218750X0*%
%ADD29RoundRect,0.250001X1.149999X-1.149999X1.149999X1.149999X-1.149999X1.149999X-1.149999X-1.149999X0*%
%ADD30C,7.000000*%
%ADD31RoundRect,0.200000X-0.200000X-0.275000X0.200000X-0.275000X0.200000X0.275000X-0.200000X0.275000X0*%
%ADD32RoundRect,0.237500X0.287500X0.237500X-0.287500X0.237500X-0.287500X-0.237500X0.287500X-0.237500X0*%
%ADD33RoundRect,0.200000X0.275000X-0.200000X0.275000X0.200000X-0.275000X0.200000X-0.275000X-0.200000X0*%
%ADD34R,1.550000X1.300000*%
%ADD35RoundRect,0.150000X-0.512500X-0.150000X0.512500X-0.150000X0.512500X0.150000X-0.512500X0.150000X0*%
%ADD36R,0.375000X0.350000*%
%ADD37R,0.350000X0.375000*%
%ADD38RoundRect,0.375000X0.375000X-0.625000X0.375000X0.625000X-0.375000X0.625000X-0.375000X-0.625000X0*%
%ADD39RoundRect,0.500000X1.400000X-0.500000X1.400000X0.500000X-1.400000X0.500000X-1.400000X-0.500000X0*%
%ADD40RoundRect,0.200000X-0.275000X0.200000X-0.275000X-0.200000X0.275000X-0.200000X0.275000X0.200000X0*%
%ADD41RoundRect,0.225000X0.250000X-0.225000X0.250000X0.225000X-0.250000X0.225000X-0.250000X-0.225000X0*%
%ADD42R,0.850000X1.100000*%
%ADD43R,0.750000X1.100000*%
%ADD44R,1.200000X1.000000*%
%ADD45R,1.550000X1.350000*%
%ADD46R,1.900000X1.350000*%
%ADD47R,1.170000X1.800000*%
%ADD48RoundRect,0.087500X-0.225000X-0.087500X0.225000X-0.087500X0.225000X0.087500X-0.225000X0.087500X0*%
%ADD49RoundRect,0.087500X-0.087500X-0.225000X0.087500X-0.225000X0.087500X0.225000X-0.087500X0.225000X0*%
%ADD50RoundRect,0.200000X0.200000X-0.700000X0.200000X0.700000X-0.200000X0.700000X-0.200000X-0.700000X0*%
%ADD51RoundRect,0.250000X0.550000X-1.250000X0.550000X1.250000X-0.550000X1.250000X-0.550000X-1.250000X0*%
%ADD52RoundRect,0.150000X-0.150000X-0.500000X0.150000X-0.500000X0.150000X0.500000X-0.150000X0.500000X0*%
%ADD53RoundRect,0.075000X-0.075000X-0.575000X0.075000X-0.575000X0.075000X0.575000X-0.075000X0.575000X0*%
%ADD54O,1.000000X2.100000*%
%ADD55O,1.000000X1.600000*%
%ADD56RoundRect,0.100000X-0.400000X0.400000X-0.400000X-0.400000X0.400000X-0.400000X0.400000X0.400000X0*%
%ADD57RoundRect,0.105000X-0.995000X0.420000X-0.995000X-0.420000X0.995000X-0.420000X0.995000X0.420000X0*%
%ADD58RoundRect,0.237500X0.237500X-0.287500X0.237500X0.287500X-0.237500X0.287500X-0.237500X-0.287500X0*%
%ADD59R,0.950000X0.550000*%
%ADD60RoundRect,0.150000X0.150000X-0.587500X0.150000X0.587500X-0.150000X0.587500X-0.150000X-0.587500X0*%
G04 APERTURE END LIST*
D10*
%TO.C,C4*%
X197050000Y-70750000D03*
X198600000Y-70750000D03*
%TD*%
D11*
%TO.C,U8*%
X196000000Y-55750000D03*
X196000000Y-56600000D03*
X196000000Y-57450000D03*
X196000000Y-58300000D03*
X196000000Y-59150000D03*
X196000000Y-60000000D03*
X196000000Y-60850000D03*
X196000000Y-61700000D03*
X196000000Y-62550000D03*
X196000000Y-63400000D03*
X196000000Y-64250000D03*
X196000000Y-65100000D03*
X196000000Y-65950000D03*
X196000000Y-66800000D03*
X196000000Y-67650000D03*
D12*
X197050000Y-68700000D03*
X197900000Y-68700000D03*
X198750000Y-68700000D03*
X199600000Y-68700000D03*
X200450000Y-68700000D03*
X201300000Y-68700000D03*
X202150000Y-68700000D03*
X203000000Y-68700000D03*
X203850000Y-68700000D03*
X204700000Y-68700000D03*
X205550000Y-68700000D03*
X206400000Y-68700000D03*
X207250000Y-68700000D03*
X208100000Y-68700000D03*
X208950000Y-68700000D03*
D11*
X210000000Y-67650000D03*
X210000000Y-66800000D03*
X210000000Y-65950000D03*
X210000000Y-65100000D03*
X210000000Y-64250000D03*
X210000000Y-63400000D03*
X210000000Y-62550000D03*
X210000000Y-61700000D03*
X210000000Y-60850000D03*
X210000000Y-60000000D03*
X210000000Y-59150000D03*
X210000000Y-58300000D03*
X210000000Y-57450000D03*
X210000000Y-56600000D03*
X210000000Y-55750000D03*
D12*
X208950000Y-54700000D03*
X208100000Y-54700000D03*
X207250000Y-54700000D03*
X206400000Y-54700000D03*
X205550000Y-54700000D03*
X204700000Y-54700000D03*
X203850000Y-54700000D03*
X203000000Y-54700000D03*
X202150000Y-54700000D03*
X201300000Y-54700000D03*
X200450000Y-54700000D03*
X199600000Y-54700000D03*
X198750000Y-54700000D03*
X197900000Y-54700000D03*
X197050000Y-54700000D03*
D13*
X201350000Y-60050000D03*
D14*
X201350000Y-61700000D03*
X201350000Y-63350000D03*
X203000000Y-60050000D03*
X203000000Y-61700000D03*
X203000000Y-63350000D03*
X204650000Y-60050000D03*
X204650000Y-61700000D03*
X204650000Y-63350000D03*
D15*
X196000000Y-54700000D03*
X196000000Y-68700000D03*
X210000000Y-68700000D03*
X210000000Y-54700000D03*
%TD*%
D16*
%TO.C,J12*%
X186250000Y-63600000D03*
D17*
X186250000Y-61060000D03*
X186250000Y-58520000D03*
X186250000Y-55980000D03*
%TD*%
D18*
%TO.C,Q2*%
X191500000Y-125795000D03*
X191500000Y-125135000D03*
X191500000Y-124475000D03*
X191500000Y-123815000D03*
D19*
X189507500Y-125412500D03*
D20*
X189507500Y-124197500D03*
%TD*%
D21*
%TO.C,J13*%
X226032500Y-82750000D03*
D22*
X226032500Y-87750000D03*
%TD*%
D23*
%TO.C,D2*%
X205800000Y-118000000D03*
X205800000Y-122000000D03*
%TD*%
D24*
%TO.C,BZ1*%
X213000000Y-88000000D03*
X213000000Y-76000000D03*
%TD*%
D25*
%TO.C,R14*%
X194325000Y-56200000D03*
X192675000Y-56200000D03*
%TD*%
D26*
%TO.C,C18*%
X212225000Y-65470000D03*
X213775000Y-65470000D03*
%TD*%
D27*
%TO.C,C2*%
X209000000Y-124650000D03*
X209000000Y-126200000D03*
%TD*%
D28*
%TO.C,L1*%
X194000000Y-69712500D03*
X194000000Y-71287500D03*
%TD*%
D27*
%TO.C,C3*%
X210500000Y-124650000D03*
X210500000Y-126200000D03*
%TD*%
D29*
%TO.C,J7*%
X179967500Y-98750000D03*
D22*
X179967500Y-93750000D03*
%TD*%
D25*
%TO.C,R9*%
X195425000Y-119470000D03*
X193775000Y-119470000D03*
%TD*%
D30*
%TO.C,H2*%
X225500000Y-58500000D03*
%TD*%
D29*
%TO.C,J9*%
X179967500Y-109750000D03*
D22*
X179967500Y-104750000D03*
%TD*%
D31*
%TO.C,R16*%
X212175000Y-62470000D03*
X213825000Y-62470000D03*
%TD*%
D32*
%TO.C,D1*%
X201150000Y-80200000D03*
X199400000Y-80200000D03*
%TD*%
D21*
%TO.C,J16*%
X226032500Y-115750000D03*
D22*
X226032500Y-120750000D03*
%TD*%
D26*
%TO.C,C9*%
X199375000Y-83200000D03*
X200925000Y-83200000D03*
%TD*%
D27*
%TO.C,C7*%
X199800000Y-76825000D03*
X199800000Y-78375000D03*
%TD*%
D33*
%TO.C,R11*%
X210600000Y-122650000D03*
X210600000Y-121000000D03*
%TD*%
D30*
%TO.C,H3*%
X225500000Y-135500000D03*
%TD*%
D25*
%TO.C,R6*%
X195425000Y-126500000D03*
X193775000Y-126500000D03*
%TD*%
D34*
%TO.C,SW1*%
X212520000Y-55750000D03*
X220480000Y-55750000D03*
X212520000Y-60250000D03*
X220480000Y-60250000D03*
%TD*%
D35*
%TO.C,U5*%
X193530000Y-128550000D03*
X193530000Y-129500000D03*
X193530000Y-130450000D03*
X195805000Y-130450000D03*
X195805000Y-129500000D03*
X195805000Y-128550000D03*
%TD*%
D10*
%TO.C,C16*%
X194275000Y-59500000D03*
X192725000Y-59500000D03*
%TD*%
D30*
%TO.C,H1*%
X180500000Y-58500000D03*
%TD*%
D36*
%TO.C,U2*%
X202237500Y-73250000D03*
X202237500Y-73750000D03*
X202237500Y-74250000D03*
X202237500Y-74750000D03*
D37*
X202750000Y-74762500D03*
X203250000Y-74762500D03*
D36*
X203762500Y-74750000D03*
X203762500Y-74250000D03*
X203762500Y-73750000D03*
X203762500Y-73250000D03*
D37*
X203250000Y-73237500D03*
X202750000Y-73237500D03*
%TD*%
D33*
%TO.C,R18*%
X229000000Y-64500000D03*
X229000000Y-62850000D03*
%TD*%
%TO.C,R13*%
X189780000Y-130625000D03*
X189780000Y-128975000D03*
%TD*%
D34*
%TO.C,*%
X213200000Y-56300000D03*
%TD*%
D29*
%TO.C,J3*%
X179967500Y-76750000D03*
D22*
X179967500Y-71750000D03*
%TD*%
D38*
%TO.C,U6*%
X197900000Y-126500000D03*
X200200000Y-126500000D03*
D39*
X200200000Y-120200000D03*
D38*
X202500000Y-126500000D03*
%TD*%
D33*
%TO.C,R12*%
X191780000Y-130625000D03*
X191780000Y-128975000D03*
%TD*%
D40*
%TO.C,R3*%
X206000000Y-124600000D03*
X206000000Y-126250000D03*
%TD*%
D21*
%TO.C,J14*%
X226032500Y-93750000D03*
D22*
X226032500Y-98750000D03*
%TD*%
D31*
%TO.C,R19*%
X192675000Y-63000000D03*
X194325000Y-63000000D03*
%TD*%
D41*
%TO.C,C8*%
X199000000Y-75175000D03*
X199000000Y-73625000D03*
%TD*%
D42*
%TO.C,J1*%
X214090000Y-139110000D03*
X212990000Y-139110000D03*
X211890000Y-139110000D03*
X210790000Y-139110000D03*
X209690000Y-139110000D03*
X208590000Y-139110000D03*
X207490000Y-139110000D03*
D43*
X206440000Y-139110000D03*
D44*
X216725000Y-132960000D03*
X216725000Y-129260000D03*
D45*
X216550000Y-138985000D03*
D46*
X213225000Y-128285000D03*
X207255000Y-128285000D03*
D47*
X205230000Y-138760000D03*
%TD*%
D10*
%TO.C,C15*%
X194275000Y-61500000D03*
X192725000Y-61500000D03*
%TD*%
%TO.C,C1*%
X203775000Y-86000000D03*
X202225000Y-86000000D03*
%TD*%
D31*
%TO.C,R10*%
X199450000Y-81700000D03*
X201100000Y-81700000D03*
%TD*%
D29*
%TO.C,J6*%
X179967500Y-87750000D03*
D22*
X179967500Y-82750000D03*
%TD*%
D10*
%TO.C,C14*%
X194275000Y-57800000D03*
X192725000Y-57800000D03*
%TD*%
D48*
%TO.C,U1*%
X201837500Y-87500000D03*
X201837500Y-88000000D03*
X201837500Y-88500000D03*
X201837500Y-89000000D03*
D49*
X202500000Y-89162500D03*
X203000000Y-89162500D03*
X203500000Y-89162500D03*
D48*
X204162500Y-89000000D03*
X204162500Y-88500000D03*
X204162500Y-88000000D03*
X204162500Y-87500000D03*
D49*
X203500000Y-87337500D03*
X203000000Y-87337500D03*
X202500000Y-87337500D03*
%TD*%
D34*
%TO.C,*%
X219800000Y-56200000D03*
%TD*%
D50*
%TO.C,U4*%
X188550000Y-83450000D03*
X189650000Y-83450000D03*
X190750000Y-83450000D03*
X191850000Y-83450000D03*
X192950000Y-83450000D03*
X194050000Y-83450000D03*
X195150000Y-83450000D03*
X196250000Y-83450000D03*
X197350000Y-83450000D03*
X197350000Y-73750000D03*
X196250000Y-73750000D03*
X195150000Y-73750000D03*
X194050000Y-73750000D03*
X192950000Y-73750000D03*
X191850000Y-73750000D03*
X190750000Y-73750000D03*
X189650000Y-73750000D03*
X188550000Y-73750000D03*
%TD*%
D21*
%TO.C,J11*%
X226032500Y-71750000D03*
D22*
X226032500Y-76750000D03*
%TD*%
D51*
%TO.C,C10*%
X201000000Y-138200000D03*
X201000000Y-133800000D03*
%TD*%
D40*
%TO.C,R5*%
X212000000Y-124600000D03*
X212000000Y-126250000D03*
%TD*%
D29*
%TO.C,J10*%
X179967500Y-120750000D03*
D22*
X179967500Y-115750000D03*
%TD*%
D21*
%TO.C,J15*%
X226032500Y-104750000D03*
D22*
X226032500Y-109750000D03*
%TD*%
D25*
%TO.C,R7*%
X195425000Y-124490000D03*
X193775000Y-124490000D03*
%TD*%
D52*
%TO.C,J5*%
X188190000Y-132680000D03*
X188990000Y-132680000D03*
D53*
X190140000Y-132680000D03*
X191140000Y-132680000D03*
X191640000Y-132680000D03*
X192640000Y-132680000D03*
D52*
X193790000Y-132680000D03*
X194590000Y-132680000D03*
X194590000Y-132680000D03*
X193790000Y-132680000D03*
D53*
X193140000Y-132680000D03*
X192140000Y-132680000D03*
X190640000Y-132680000D03*
X189640000Y-132680000D03*
D52*
X188990000Y-132680000D03*
X188190000Y-132680000D03*
D54*
X187070000Y-133320000D03*
D55*
X187070000Y-137500000D03*
D54*
X195710000Y-133320000D03*
D55*
X195710000Y-137500000D03*
%TD*%
D56*
%TO.C,J4*%
X192000000Y-70250000D03*
D57*
X190500000Y-71725000D03*
D56*
X189000000Y-70250000D03*
D57*
X190500000Y-68775000D03*
%TD*%
D38*
%TO.C,U7*%
X189300000Y-92100000D03*
X191600000Y-92100000D03*
D39*
X191600000Y-85800000D03*
D38*
X193900000Y-92100000D03*
%TD*%
D40*
%TO.C,R2*%
X215250000Y-124600000D03*
X215250000Y-126250000D03*
%TD*%
D30*
%TO.C,H4*%
X180500000Y-135500000D03*
%TD*%
D16*
%TO.C,J8*%
X210620000Y-117955000D03*
D17*
X213160000Y-117955000D03*
%TD*%
D27*
%TO.C,C6*%
X201600000Y-76825000D03*
X201600000Y-78375000D03*
%TD*%
D34*
%TO.C,*%
X219800000Y-59700000D03*
%TD*%
D33*
%TO.C,R17*%
X227500000Y-64500000D03*
X227500000Y-62850000D03*
%TD*%
D40*
%TO.C,R1*%
X213750000Y-124600000D03*
X213750000Y-126250000D03*
%TD*%
D16*
%TO.C,J2*%
X190000000Y-63620000D03*
D17*
X190000000Y-61080000D03*
X190000000Y-58540000D03*
X190000000Y-56000000D03*
%TD*%
D26*
%TO.C,C17*%
X212225000Y-64000000D03*
X213775000Y-64000000D03*
%TD*%
D40*
%TO.C,R4*%
X207500000Y-124600000D03*
X207500000Y-126250000D03*
%TD*%
D25*
%TO.C,R8*%
X195425000Y-121980000D03*
X193775000Y-121980000D03*
%TD*%
D34*
%TO.C,*%
X213200000Y-59700000D03*
%TD*%
D58*
%TO.C,D4*%
X193500000Y-66500000D03*
X193500000Y-64750000D03*
%TD*%
D59*
%TO.C,U3*%
X215425000Y-65875000D03*
X215425000Y-67125000D03*
X215425000Y-68375000D03*
X215425000Y-69625000D03*
X217575000Y-69625000D03*
X217575000Y-68375000D03*
X217575000Y-67125000D03*
X217575000Y-65875000D03*
%TD*%
D18*
%TO.C,Q1*%
X191500000Y-120020000D03*
X191500000Y-119360000D03*
X191500000Y-118700000D03*
X191500000Y-118040000D03*
D19*
X189507500Y-119637500D03*
D20*
X189507500Y-118422500D03*
%TD*%
D27*
%TO.C,C5*%
X213750000Y-66975000D03*
X213750000Y-68525000D03*
%TD*%
D60*
%TO.C,Q3*%
X212195000Y-122885000D03*
X214095000Y-122885000D03*
X213145000Y-121010000D03*
%TD*%
M02*
