M48
; DRILL file {KiCad 9.0.3} date 2025-07-12T21:26:52+0900
; FORMAT={-:-/ absolute / inch / decimal}
; #@! TF.CreationDate,2025-07-12T21:26:52+09:00
; #@! TF.GenerationSoftware,Kicad,Pcbnew,9.0.3
; #@! TF.FileFunction,Plated,1,2,PTH
FMAT,2
INCH
; #@! TA.AperFunction,Plated,PTH,ViaDrill
T1C0.0118
; #@! TA.AperFunction,Plated,PTH,ComponentDrill
T2C0.0236
; #@! TA.AperFunction,Plated,PTH,ComponentDrill
T3C0.0394
; #@! TA.AperFunction,Plated,PTH,ComponentDrill
T4C0.0512
; #@! TA.AperFunction,Plated,PTH,ComponentDrill
T5C0.1693
%
G90
G05
T1
X7.0Y-4.8268
X7.1431Y-3.3687
X7.2441Y-3.3268
X7.2677Y-3.1831
X7.2835Y-2.8937
X7.2835Y-2.9331
X7.315Y-3.1732
X7.315Y-3.2598
X7.3209Y-2.8504
X7.3228Y-2.7362
X7.3228Y-2.815
X7.3228Y-3.0866
X7.3307Y-2.8898
X7.3346Y-2.7717
X7.3386Y-3.3228
X7.3465Y-2.8031
X7.3465Y-2.9449
X7.3543Y-2.7402
X7.3543Y-3.1417
X7.3563Y-2.8642
X7.3583Y-2.8327
X7.3622Y-2.7008
X7.3701Y-2.8898
X7.378Y-2.7933
X7.378Y-3.2913
X7.3819Y-2.7657
X7.3839Y-2.6673
X7.3878Y-2.7323
X7.3937Y-2.8425
X7.4094Y-2.6437
X7.4094Y-2.6929
X7.4094Y-2.9685
X7.4173Y-2.426
X7.4173Y-3.2047
X7.4213Y-2.811
X7.4232Y-3.2854
X7.4252Y-3.1024
X7.437Y-2.8425
X7.4406Y-5.2262
X7.4409Y-2.6614
X7.4409Y-2.6929
X7.4409Y-2.7657
X7.4409Y-3.063
X7.4409Y-3.1496
X7.4409Y-3.7244
X7.4567Y-2.9685
X7.4567Y-3.4567
X7.4609Y-4.6623
X7.4609Y-4.7101
X7.4609Y-4.8897
X7.4609Y-4.9375
X7.4646Y-3.0945
X7.4724Y-2.6535
X7.4724Y-3.1654
X7.4803Y-2.5949
X7.4961Y-3.126
X7.4961Y-4.2283
X7.5Y-2.7077
X7.5Y-2.7638
X7.5Y-2.8238
X7.5Y-5.3543
X7.5Y-5.4134
X7.5016Y-5.2835
X7.5039Y-2.6417
X7.5039Y-3.0709
X7.5039Y-4.4646
X7.5118Y-2.9685
X7.5197Y-4.8189
X7.5276Y-3.9291
X7.5354Y-2.6614
X7.5354Y-5.3071
X7.5394Y-4.8729
X7.5428Y-2.426
X7.5433Y-3.0787
X7.5433Y-3.378
X7.5464Y-2.3622
X7.5504Y-5.0778
X7.5591Y-2.9606
X7.5591Y-5.1811
X7.5669Y-2.6437
X7.5669Y-2.685
X7.5669Y-2.811
X7.5669Y-2.8425
X7.5669Y-5.2835
X7.5811Y-4.6402
X7.5817Y-2.251
X7.5827Y-4.5866
X7.5984Y-4.9528
X7.5984Y-5.3071
X7.5984Y-5.3543
X7.5984Y-5.4134
X7.6121Y-4.8394
X7.6171Y-4.8958
X7.6181Y-5.0984
X7.6193Y-5.1417
X7.622Y-4.6929
X7.6289Y-4.9803
X7.6295Y-5.2262
X7.6486Y-2.4213
X7.6488Y-4.652
X7.6575Y-2.574
X7.6588Y-5.0382
X7.6614Y-2.8465
X7.6722Y-2.9636
X7.6772Y-3.0709
X7.6772Y-3.189
X7.6794Y-2.1836
X7.6811Y-2.7028
X7.6831Y-2.9035
X7.685Y-3.3701
X7.6929Y-2.7795
X7.708Y-5.0582
X7.7087Y-2.8307
X7.7089Y-5.0984
X7.714Y-3.1575
X7.7165Y-2.2618
X7.7165Y-2.3287
X7.7165Y-2.3957
X7.7165Y-2.4291
X7.7165Y-2.563
X7.7165Y-2.5965
X7.7165Y-2.6299
X7.7165Y-2.6634
X7.7244Y-3.0866
X7.7244Y-3.378
X7.7244Y-4.6378
X7.7244Y-4.8661
X7.7323Y-2.9606
X7.7323Y-3.0079
X7.7402Y-3.0551
X7.7402Y-3.1339
X7.7402Y-4.7559
X7.748Y-3.4331
X7.75Y-3.187
X7.7519Y-2.6397
X7.7559Y-3.3858
X7.7563Y-2.5713
X7.7579Y-2.1575
X7.7709Y-2.9677
X7.7717Y-3.4646
X7.7815Y-2.3967
X7.7815Y-2.8504
X7.811Y-3.189
X7.8189Y-2.2047
X7.8278Y-3.0254
X7.8346Y-2.8976
X7.8346Y-2.9596
X7.8543Y-2.498
X7.8583Y-5.3858
X7.8661Y-3.0246
X7.8661Y-3.0856
X7.874Y-2.6693
X7.878Y-2.7402
X7.904Y-2.7581
X7.9065Y-2.6309
X7.9114Y-3.3386
X7.9128Y-2.991
X7.9134Y-3.4252
X7.9134Y-5.1378
X7.9213Y-4.7934
X7.9252Y-2.7047
X7.9276Y-2.874
X7.937Y-3.0856
X7.9409Y-2.6014
X7.943Y-2.807
X7.9528Y-3.189
X7.9587Y-2.7047
X7.9596Y-5.0443
X7.9606Y-3.126
X7.9616Y-3.3858
X7.9794Y-3.003
X7.998Y-5.4557
X8.0Y-2.5669
X8.0079Y-4.8583
X8.0118Y-3.5433
X8.0226Y-4.6457
X8.0246Y-4.7628
X8.0315Y-3.1102
X8.0446Y-2.923
X8.0531Y-5.0748
X8.0551Y-4.9921
X8.0591Y-2.7047
X8.0709Y-4.3543
X8.0797Y-5.3563
X8.0925Y-2.7047
X8.1024Y-4.6457
X8.1102Y-2.8583
X8.1102Y-4.9055
X8.1102Y-4.9705
X8.1102Y-4.9705
X8.1181Y-3.1102
X8.12Y-2.5767
X8.126Y-2.9134
X8.126Y-3.0
X8.1496Y-2.5906
X8.1575Y-4.7874
X8.1594Y-2.7047
X8.1596Y-5.0506
X8.1693Y-4.9705
X8.1732Y-4.9055
X8.1735Y-4.8186
X8.175Y-2.5492
X8.1765Y-2.4678
X8.2028Y-2.6142
X8.2047Y-5.2677
X8.2053Y-2.7816
X8.209Y-4.8198
X8.2126Y-2.6614
X8.2135Y-2.74
X8.2283Y-4.9055
X8.2283Y-4.9685
X8.2319Y-4.7874
X8.2461Y-5.0276
X8.2573Y-4.806
X8.2677Y-2.2283
X8.2677Y-2.3622
X8.2677Y-2.3957
X8.2677Y-2.4626
X8.2677Y-2.4961
X8.2677Y-2.5295
X8.2677Y-2.6614
X8.2677Y-2.7087
X8.2815Y-2.7699
X8.2874Y-2.9528
X8.2874Y-2.9528
X8.2874Y-3.189
X8.2874Y-4.9075
X8.2992Y-5.4803
X8.315Y-2.7638
X8.315Y-5.0315
X8.3228Y-2.7953
X8.3307Y-2.2992
X8.3307Y-2.8858
X8.3307Y-3.0709
X8.3386Y-3.2362
X8.3421Y-4.9748
X8.3425Y-2.7362
X8.3465Y-4.9055
X8.3701Y-3.5669
X8.378Y-2.8898
X8.378Y-4.2992
X8.3915Y-4.7642
X8.3937Y-4.9685
X8.4016Y-5.252
X8.4055Y-2.9134
X8.4154Y-4.9055
X8.4173Y-2.5276
X8.4173Y-2.8268
X8.4252Y-4.4724
X8.4289Y-4.838
X8.4331Y-4.0709
X8.4409Y-2.9764
X8.441Y-2.6023
X8.441Y-2.6023
X8.4744Y-4.9055
X8.4744Y-4.9705
X8.4882Y-2.9134
X8.5039Y-2.2913
X8.5276Y-2.189
X8.5591Y-2.6919
X8.5659Y-2.5935
X8.5669Y-2.6378
X8.5669Y-3.7402
X8.5955Y-2.8612
X8.6142Y-3.2977
X8.6142Y-5.3701
X8.622Y-2.5354
X8.626Y-2.9331
X8.6299Y-3.3465
X8.6417Y-2.6575
X8.6427Y-2.4724
X8.6451Y-2.9921
X8.6457Y-3.4724
X8.6614Y-2.7559
X8.6654Y-3.8583
X8.6663Y-2.4961
X8.6803Y-2.1949
X8.6811Y-2.5394
X8.685Y-5.1181
X8.7008Y-2.9528
X8.7008Y-4.1417
X8.7087Y-2.2677
X8.7165Y-2.4252
X8.7205Y-2.6575
X8.7717Y-2.4488
X8.8357Y-2.5699
X8.8976Y-2.8858
X8.9213Y-2.5
X8.9764Y-2.5984
X8.9882Y-4.3622
X9.0157Y-2.4744
X9.0236Y-5.2205
T3
X7.3327Y-2.2039
X7.3327Y-2.3039
X7.3327Y-2.4039
X7.3327Y-2.5039
X7.4803Y-2.2047
X7.4803Y-2.3047
X7.4803Y-2.4047
X7.4803Y-2.5047
X8.2921Y-4.6439
X8.3921Y-4.6439
T4
X7.0853Y-2.8248
X7.0853Y-3.0217
X7.0853Y-3.2579
X7.0853Y-3.4547
X7.0853Y-3.6909
X7.0853Y-3.8878
X7.0853Y-4.124
X7.0853Y-4.3209
X7.0853Y-4.5571
X7.0853Y-4.7539
X8.8989Y-2.8248
X8.8989Y-3.0217
X8.8989Y-3.2579
X8.8989Y-3.4547
X8.8989Y-3.6909
X8.8989Y-3.8878
X8.8989Y-4.124
X8.8989Y-4.3209
X8.8989Y-4.5571
X8.8989Y-4.7539
T5
X7.1063Y-2.3031
X7.1063Y-5.3346
X8.878Y-2.3031
X8.878Y-5.3346
T2
G00X7.365Y-5.2272
M15
G01X7.365Y-5.2705
M16
G05
G00X7.365Y-5.4016
M15
G01X7.365Y-5.4252
M16
G05
G00X7.7051Y-5.2272
M15
G01X7.7051Y-5.2705
M16
G05
G00X7.7051Y-5.4016
M15
G01X7.7051Y-5.4252
M16
G05
M30
