%TF.GenerationSoftware,KiCad,Pcbnew,9.0.3*%
%TF.CreationDate,2025-07-12T21:26:52+09:00*%
%TF.ProjectId,AViC m4,41566943-206d-4342-9e6b-696361645f70,rev?*%
%TF.SameCoordinates,Original*%
%TF.FileFunction,Soldermask,Bot*%
%TF.FilePolarity,Negative*%
%FSLAX46Y46*%
G04 Gerber Fmt 4.6, Leading zero omitted, Abs format (unit mm)*
G04 Created by KiCad (PCBNEW 9.0.3) date 2025-07-12 21:26:52*
%MOMM*%
%LPD*%
G01*
G04 APERTURE LIST*
G04 Aperture macros list*
%AMRoundRect*
0 Rectangle with rounded corners*
0 $1 Rounding radius*
0 $2 $3 $4 $5 $6 $7 $8 $9 X,Y pos of 4 corners*
0 Add a 4 corners polygon primitive as box body*
4,1,4,$2,$3,$4,$5,$6,$7,$8,$9,$2,$3,0*
0 Add four circle primitives for the rounded corners*
1,1,$1+$1,$2,$3*
1,1,$1+$1,$4,$5*
1,1,$1+$1,$6,$7*
1,1,$1+$1,$8,$9*
0 Add four rect primitives between the rounded corners*
20,1,$1+$1,$2,$3,$4,$5,0*
20,1,$1+$1,$4,$5,$6,$7,0*
20,1,$1+$1,$6,$7,$8,$9,0*
20,1,$1+$1,$8,$9,$2,$3,0*%
G04 Aperture macros list end*
%ADD10R,1.700000X1.700000*%
%ADD11O,1.700000X1.700000*%
%ADD12RoundRect,0.250001X-1.149999X1.149999X-1.149999X-1.149999X1.149999X-1.149999X1.149999X1.149999X0*%
%ADD13C,2.800000*%
%ADD14RoundRect,0.250001X1.149999X-1.149999X1.149999X1.149999X-1.149999X1.149999X-1.149999X-1.149999X0*%
%ADD15C,7.000000*%
%ADD16C,0.650000*%
%ADD17O,1.000000X2.100000*%
%ADD18O,1.000000X1.600000*%
G04 APERTURE END LIST*
D10*
%TO.C,J12*%
X186250000Y-63600000D03*
D11*
X186250000Y-61060000D03*
X186250000Y-58520000D03*
X186250000Y-55980000D03*
%TD*%
D12*
%TO.C,J13*%
X226032500Y-82750000D03*
D13*
X226032500Y-87750000D03*
%TD*%
D14*
%TO.C,J7*%
X179967500Y-98750000D03*
D13*
X179967500Y-93750000D03*
%TD*%
D15*
%TO.C,H2*%
X225500000Y-58500000D03*
%TD*%
D14*
%TO.C,J9*%
X179967500Y-109750000D03*
D13*
X179967500Y-104750000D03*
%TD*%
D12*
%TO.C,J16*%
X226032500Y-115750000D03*
D13*
X226032500Y-120750000D03*
%TD*%
D15*
%TO.C,H3*%
X225500000Y-135500000D03*
%TD*%
%TO.C,H1*%
X180500000Y-58500000D03*
%TD*%
D14*
%TO.C,J3*%
X179967500Y-76750000D03*
D13*
X179967500Y-71750000D03*
%TD*%
D12*
%TO.C,J14*%
X226032500Y-93750000D03*
D13*
X226032500Y-98750000D03*
%TD*%
D14*
%TO.C,J6*%
X179967500Y-87750000D03*
D13*
X179967500Y-82750000D03*
%TD*%
D12*
%TO.C,J11*%
X226032500Y-71750000D03*
D13*
X226032500Y-76750000D03*
%TD*%
D14*
%TO.C,J10*%
X179967500Y-120750000D03*
D13*
X179967500Y-115750000D03*
%TD*%
D12*
%TO.C,J15*%
X226032500Y-104750000D03*
D13*
X226032500Y-109750000D03*
%TD*%
D16*
%TO.C,J5*%
X188500000Y-133820000D03*
X194280000Y-133820000D03*
D17*
X187070000Y-133320000D03*
D18*
X187070000Y-137500000D03*
D17*
X195710000Y-133320000D03*
D18*
X195710000Y-137500000D03*
%TD*%
D15*
%TO.C,H4*%
X180500000Y-135500000D03*
%TD*%
D10*
%TO.C,J8*%
X210620000Y-117955000D03*
D11*
X213160000Y-117955000D03*
%TD*%
D10*
%TO.C,J2*%
X190000000Y-63620000D03*
D11*
X190000000Y-61080000D03*
X190000000Y-58540000D03*
X190000000Y-56000000D03*
%TD*%
M02*
