%TF.GenerationSoftware,KiCad,Pcbnew,9.0.3*%
%TF.CreationDate,2025-07-12T21:26:52+09:00*%
%TF.ProjectId,AViC m4,41566943-206d-4342-9e6b-696361645f70,rev?*%
%TF.SameCoordinates,Original*%
%TF.FileFunction,Legend,Top*%
%TF.FilePolarity,Positive*%
%FSLAX46Y46*%
G04 Gerber Fmt 4.6, Leading zero omitted, Abs format (unit mm)*
G04 Created by KiCad (PCBNEW 9.0.3) date 2025-07-12 21:26:52*
%MOMM*%
%LPD*%
G01*
G04 APERTURE LIST*
G04 Aperture macros list*
%AMRoundRect*
0 Rectangle with rounded corners*
0 $1 Rounding radius*
0 $2 $3 $4 $5 $6 $7 $8 $9 X,Y pos of 4 corners*
0 Add a 4 corners polygon primitive as box body*
4,1,4,$2,$3,$4,$5,$6,$7,$8,$9,$2,$3,0*
0 Add four circle primitives for the rounded corners*
1,1,$1+$1,$2,$3*
1,1,$1+$1,$4,$5*
1,1,$1+$1,$6,$7*
1,1,$1+$1,$8,$9*
0 Add four rect primitives between the rounded corners*
20,1,$1+$1,$2,$3,$4,$5,0*
20,1,$1+$1,$4,$5,$6,$7,0*
20,1,$1+$1,$6,$7,$8,$9,0*
20,1,$1+$1,$8,$9,$2,$3,0*%
%AMOutline5P*
0 Free polygon, 5 corners , with rotation*
0 The origin of the aperture is its center*
0 number of corners: always 5*
0 $1 to $10 corner X, Y*
0 $11 Rotation angle, in degrees counterclockwise*
0 create outline with 5 corners*
4,1,5,$1,$2,$3,$4,$5,$6,$7,$8,$9,$10,$1,$2,$11*%
%AMOutline6P*
0 Free polygon, 6 corners , with rotation*
0 The origin of the aperture is its center*
0 number of corners: always 6*
0 $1 to $12 corner X, Y*
0 $13 Rotation angle, in degrees counterclockwise*
0 create outline with 6 corners*
4,1,6,$1,$2,$3,$4,$5,$6,$7,$8,$9,$10,$11,$12,$1,$2,$13*%
%AMOutline7P*
0 Free polygon, 7 corners , with rotation*
0 The origin of the aperture is its center*
0 number of corners: always 7*
0 $1 to $14 corner X, Y*
0 $15 Rotation angle, in degrees counterclockwise*
0 create outline with 7 corners*
4,1,7,$1,$2,$3,$4,$5,$6,$7,$8,$9,$10,$11,$12,$13,$14,$1,$2,$15*%
%AMOutline8P*
0 Free polygon, 8 corners , with rotation*
0 The origin of the aperture is its center*
0 number of corners: always 8*
0 $1 to $16 corner X, Y*
0 $17 Rotation angle, in degrees counterclockwise*
0 create outline with 8 corners*
4,1,8,$1,$2,$3,$4,$5,$6,$7,$8,$9,$10,$11,$12,$13,$14,$15,$16,$1,$2,$17*%
%AMFreePoly0*
4,1,11,1.372500,0.165000,0.862500,0.165000,0.862500,-0.090000,1.372500,-0.090000,1.372500,-0.495000,-0.862500,-0.495000,-0.862500,0.495000,0.612500,0.495000,0.612500,0.587500,1.372500,0.587500,1.372500,0.165000,1.372500,0.165000,$1*%
%AMFreePoly1*
4,1,11,1.372500,0.090000,0.862500,0.090000,0.862500,-0.165000,1.372500,-0.165000,1.372500,-0.587500,0.612500,-0.587500,0.612500,-0.495000,-0.862500,-0.495000,-0.862500,0.495000,1.372500,0.495000,1.372500,0.090000,1.372500,0.090000,$1*%
G04 Aperture macros list end*
%ADD10C,0.100000*%
%ADD11C,0.300000*%
%ADD12C,0.500000*%
%ADD13C,0.150000*%
%ADD14C,0.120000*%
%ADD15C,0.000000*%
%ADD16RoundRect,0.225000X0.225000X0.250000X-0.225000X0.250000X-0.225000X-0.250000X0.225000X-0.250000X0*%
%ADD17R,0.800000X0.400000*%
%ADD18R,0.400000X0.800000*%
%ADD19Outline5P,-0.600000X0.204000X-0.204000X0.600000X0.600000X0.600000X0.600000X-0.600000X-0.600000X-0.600000X0.000000*%
%ADD20R,1.200000X1.200000*%
%ADD21R,0.800000X0.800000*%
%ADD22R,1.700000X1.700000*%
%ADD23O,1.700000X1.700000*%
%ADD24R,0.990000X0.405000*%
%ADD25FreePoly0,180.000000*%
%ADD26FreePoly1,180.000000*%
%ADD27RoundRect,0.250001X-1.149999X1.149999X-1.149999X-1.149999X1.149999X-1.149999X1.149999X1.149999X0*%
%ADD28C,2.800000*%
%ADD29RoundRect,0.250000X-0.650000X1.000000X-0.650000X-1.000000X0.650000X-1.000000X0.650000X1.000000X0*%
%ADD30R,6.000000X3.000000*%
%ADD31RoundRect,0.200000X0.200000X0.275000X-0.200000X0.275000X-0.200000X-0.275000X0.200000X-0.275000X0*%
%ADD32RoundRect,0.225000X-0.225000X-0.250000X0.225000X-0.250000X0.225000X0.250000X-0.225000X0.250000X0*%
%ADD33RoundRect,0.225000X-0.250000X0.225000X-0.250000X-0.225000X0.250000X-0.225000X0.250000X0.225000X0*%
%ADD34RoundRect,0.218750X-0.256250X0.218750X-0.256250X-0.218750X0.256250X-0.218750X0.256250X0.218750X0*%
%ADD35RoundRect,0.250001X1.149999X-1.149999X1.149999X1.149999X-1.149999X1.149999X-1.149999X-1.149999X0*%
%ADD36C,7.000000*%
%ADD37RoundRect,0.200000X-0.200000X-0.275000X0.200000X-0.275000X0.200000X0.275000X-0.200000X0.275000X0*%
%ADD38RoundRect,0.237500X0.287500X0.237500X-0.287500X0.237500X-0.287500X-0.237500X0.287500X-0.237500X0*%
%ADD39RoundRect,0.200000X0.275000X-0.200000X0.275000X0.200000X-0.275000X0.200000X-0.275000X-0.200000X0*%
%ADD40R,1.550000X1.300000*%
%ADD41RoundRect,0.150000X-0.512500X-0.150000X0.512500X-0.150000X0.512500X0.150000X-0.512500X0.150000X0*%
%ADD42R,0.375000X0.350000*%
%ADD43R,0.350000X0.375000*%
%ADD44RoundRect,0.375000X0.375000X-0.625000X0.375000X0.625000X-0.375000X0.625000X-0.375000X-0.625000X0*%
%ADD45RoundRect,0.500000X1.400000X-0.500000X1.400000X0.500000X-1.400000X0.500000X-1.400000X-0.500000X0*%
%ADD46RoundRect,0.200000X-0.275000X0.200000X-0.275000X-0.200000X0.275000X-0.200000X0.275000X0.200000X0*%
%ADD47RoundRect,0.225000X0.250000X-0.225000X0.250000X0.225000X-0.250000X0.225000X-0.250000X-0.225000X0*%
%ADD48R,0.850000X1.100000*%
%ADD49R,0.750000X1.100000*%
%ADD50R,1.200000X1.000000*%
%ADD51R,1.550000X1.350000*%
%ADD52R,1.900000X1.350000*%
%ADD53R,1.170000X1.800000*%
%ADD54RoundRect,0.087500X-0.225000X-0.087500X0.225000X-0.087500X0.225000X0.087500X-0.225000X0.087500X0*%
%ADD55RoundRect,0.087500X-0.087500X-0.225000X0.087500X-0.225000X0.087500X0.225000X-0.087500X0.225000X0*%
%ADD56RoundRect,0.200000X0.200000X-0.700000X0.200000X0.700000X-0.200000X0.700000X-0.200000X-0.700000X0*%
%ADD57RoundRect,0.250000X0.550000X-1.250000X0.550000X1.250000X-0.550000X1.250000X-0.550000X-1.250000X0*%
%ADD58C,0.650000*%
%ADD59RoundRect,0.150000X-0.150000X-0.500000X0.150000X-0.500000X0.150000X0.500000X-0.150000X0.500000X0*%
%ADD60RoundRect,0.075000X-0.075000X-0.575000X0.075000X-0.575000X0.075000X0.575000X-0.075000X0.575000X0*%
%ADD61O,1.000000X2.100000*%
%ADD62O,1.000000X1.600000*%
%ADD63RoundRect,0.100000X-0.400000X0.400000X-0.400000X-0.400000X0.400000X-0.400000X0.400000X0.400000X0*%
%ADD64RoundRect,0.105000X-0.995000X0.420000X-0.995000X-0.420000X0.995000X-0.420000X0.995000X0.420000X0*%
%ADD65RoundRect,0.237500X0.237500X-0.287500X0.237500X0.287500X-0.237500X0.287500X-0.237500X-0.287500X0*%
%ADD66R,0.950000X0.550000*%
%ADD67RoundRect,0.150000X0.150000X-0.587500X0.150000X0.587500X-0.150000X0.587500X-0.150000X-0.587500X0*%
G04 APERTURE END LIST*
D10*
X187500000Y-84000000D02*
X188000000Y-84000000D01*
X177500000Y-65250000D02*
X183500000Y-65250000D01*
X187500000Y-83000000D02*
X187500000Y-84000000D01*
D11*
G36*
X198162160Y-103884455D02*
G01*
X198265520Y-103890189D01*
X198350916Y-103906879D01*
X198414177Y-103930831D01*
X198465252Y-103962583D01*
X198534203Y-104044341D01*
X198572824Y-104159620D01*
X198584761Y-104319696D01*
X198584761Y-105959359D01*
X199209595Y-105959359D01*
X199209595Y-104193667D01*
X199203744Y-104088011D01*
X199186234Y-103983429D01*
X199157291Y-103881687D01*
X199116925Y-103783585D01*
X199066718Y-103692805D01*
X199005806Y-103607877D01*
X198937256Y-103532898D01*
X198858932Y-103465466D01*
X198774626Y-103408826D01*
X198681411Y-103361034D01*
X198582777Y-103324087D01*
X198475888Y-103297135D01*
X198254667Y-103276474D01*
X197985755Y-103276474D01*
X197866389Y-103282196D01*
X197754051Y-103298802D01*
X197547910Y-103362874D01*
X197370681Y-103464278D01*
X197314026Y-103509665D01*
X197238812Y-103448742D01*
X197153837Y-103395417D01*
X197060833Y-103351241D01*
X196959096Y-103316404D01*
X196851185Y-103292240D01*
X196735597Y-103278905D01*
X196658601Y-103276474D01*
X196431821Y-103276474D01*
X196195881Y-103298347D01*
X196000794Y-103353410D01*
X196000794Y-103276474D01*
X195371746Y-103276474D01*
X195371746Y-105959359D01*
X196000794Y-105959359D01*
X196000794Y-104319696D01*
X196007720Y-104199726D01*
X196032760Y-104094304D01*
X196060901Y-104036545D01*
X196100504Y-103986802D01*
X196145520Y-103950722D01*
X196201499Y-103921897D01*
X196350404Y-103888251D01*
X196436035Y-103884455D01*
X196562064Y-103884455D01*
X196665374Y-103890189D01*
X196750728Y-103906879D01*
X196813963Y-103930832D01*
X196865017Y-103962585D01*
X196933945Y-104044355D01*
X196972555Y-104159662D01*
X196984482Y-104319696D01*
X196984482Y-105959359D01*
X197613712Y-105959359D01*
X197613712Y-104315483D01*
X197621726Y-104176089D01*
X197654370Y-104057538D01*
X197684594Y-104007044D01*
X197726247Y-103964200D01*
X197774320Y-103933113D01*
X197833999Y-103909223D01*
X197997900Y-103885002D01*
X198031917Y-103884455D01*
X198162160Y-103884455D01*
G37*
G36*
X201029803Y-103295754D02*
G01*
X201136129Y-103321892D01*
X201234066Y-103357997D01*
X201326483Y-103404908D01*
X201409944Y-103460661D01*
X201487607Y-103527387D01*
X201555494Y-103601723D01*
X201616104Y-103686573D01*
X201666006Y-103777415D01*
X201706388Y-103876486D01*
X201735304Y-103979355D01*
X201752895Y-104085940D01*
X201758758Y-104193667D01*
X201758758Y-105959359D01*
X200261977Y-105959359D01*
X200204215Y-105957455D01*
X200108547Y-105945235D01*
X200019925Y-105922312D01*
X199936485Y-105888449D01*
X199860625Y-105844848D01*
X199789645Y-105789797D01*
X199727115Y-105725840D01*
X199670568Y-105649901D01*
X199623604Y-105566076D01*
X199584885Y-105471125D01*
X199556898Y-105369815D01*
X199539482Y-105260498D01*
X199533644Y-105146946D01*
X200108287Y-105146946D01*
X200110654Y-105194484D01*
X200122961Y-105258875D01*
X200144148Y-105311492D01*
X200172715Y-105352798D01*
X200206575Y-105382228D01*
X200243970Y-105399908D01*
X200282859Y-105405783D01*
X201142350Y-105405783D01*
X201142350Y-104884080D01*
X200282859Y-104884080D01*
X200255275Y-104887024D01*
X200217732Y-104901041D01*
X200182944Y-104926746D01*
X200152971Y-104963956D01*
X200129335Y-105012982D01*
X200113849Y-105073914D01*
X200108287Y-105146946D01*
X199533644Y-105146946D01*
X199536438Y-105068904D01*
X199573191Y-104865572D01*
X199647750Y-104694037D01*
X199754797Y-104556816D01*
X199891096Y-104455173D01*
X199969865Y-104418229D01*
X200055732Y-104391058D01*
X200149136Y-104374183D01*
X200249337Y-104368422D01*
X201142350Y-104368422D01*
X201142350Y-104319696D01*
X201131177Y-104158045D01*
X201094099Y-104043251D01*
X201026920Y-103962242D01*
X200976568Y-103930698D01*
X200913831Y-103906882D01*
X200828201Y-103890189D01*
X200723962Y-103884455D01*
X200593719Y-103884455D01*
X200469754Y-103890708D01*
X200333118Y-103924280D01*
X200283399Y-103952429D01*
X200243978Y-103988373D01*
X200202802Y-104052251D01*
X200173866Y-104132301D01*
X199558557Y-104132301D01*
X199585428Y-103952987D01*
X199654230Y-103758702D01*
X199758220Y-103594199D01*
X199894404Y-103461544D01*
X200062295Y-103362235D01*
X200158582Y-103325857D01*
X200263595Y-103298969D01*
X200378007Y-103282216D01*
X200501396Y-103276474D01*
X200816286Y-103276474D01*
X201029803Y-103295754D01*
G37*
G36*
X202831106Y-103807519D02*
G01*
X202831106Y-103255408D01*
X202168536Y-103255408D01*
X202168536Y-105959359D01*
X202831106Y-105959359D01*
X202831106Y-104840483D01*
X202853518Y-104703286D01*
X202924731Y-104553394D01*
X203051488Y-104394425D01*
X203234832Y-104238753D01*
X203344865Y-104168149D01*
X203461604Y-104107153D01*
X203581464Y-104057790D01*
X203703708Y-104020742D01*
X203818190Y-103998551D01*
X203931258Y-103989557D01*
X203946685Y-103989419D01*
X204023988Y-103989419D01*
X204023988Y-103326849D01*
X203946685Y-103326849D01*
X203657763Y-103350032D01*
X203515115Y-103378915D01*
X203377445Y-103419058D01*
X203252789Y-103467736D01*
X203136969Y-103526331D01*
X203040142Y-103588756D01*
X202954169Y-103659267D01*
X202887100Y-103729911D01*
X202831450Y-103806961D01*
X202831106Y-103807519D01*
G37*
G36*
X205318903Y-104517349D02*
G01*
X206610520Y-103276474D01*
X205866800Y-103276474D01*
X205022514Y-104112334D01*
X205022514Y-102373386D01*
X204393466Y-102373386D01*
X204393466Y-105959359D01*
X205022514Y-105959359D01*
X205022514Y-104952407D01*
X205917175Y-105959359D01*
X206625907Y-105959359D01*
X205318903Y-104517349D01*
G37*
G36*
X210270499Y-104687526D02*
G01*
X210816382Y-104687526D01*
X210816382Y-105245315D01*
X210270499Y-105245315D01*
X210270499Y-105959359D01*
X209645481Y-105959359D01*
X209645481Y-105253742D01*
X208032746Y-105253742D01*
X208032746Y-104691922D01*
X208034948Y-104687526D01*
X208720045Y-104687526D01*
X209645481Y-104687526D01*
X209645481Y-102890692D01*
X208720045Y-104687526D01*
X208034948Y-104687526D01*
X209194121Y-102373386D01*
X210270499Y-102373386D01*
X210270499Y-104687526D01*
G37*
D10*
X209988095Y-115741466D02*
X210750000Y-115741466D01*
X210369047Y-116122419D02*
X210369047Y-115360514D01*
X212750000Y-115741466D02*
X213511905Y-115741466D01*
X178542587Y-65672306D02*
X178542587Y-66243734D01*
X178542587Y-65958020D02*
X177542587Y-65958020D01*
X177542587Y-65958020D02*
X177685444Y-66053258D01*
X177685444Y-66053258D02*
X177780682Y-66148496D01*
X177780682Y-66148496D02*
X177828301Y-66243734D01*
X179247769Y-66243734D02*
X179200150Y-66196115D01*
X179200150Y-66196115D02*
X179152531Y-66100877D01*
X179152531Y-66100877D02*
X179152531Y-65862782D01*
X179152531Y-65862782D02*
X179200150Y-65767544D01*
X179200150Y-65767544D02*
X179247769Y-65719925D01*
X179247769Y-65719925D02*
X179343007Y-65672306D01*
X179343007Y-65672306D02*
X179438245Y-65672306D01*
X179438245Y-65672306D02*
X179581102Y-65719925D01*
X179581102Y-65719925D02*
X180152531Y-66291353D01*
X180152531Y-66291353D02*
X180152531Y-65672306D01*
X180762475Y-66291353D02*
X180762475Y-65672306D01*
X180762475Y-65672306D02*
X181143427Y-66005639D01*
X181143427Y-66005639D02*
X181143427Y-65862782D01*
X181143427Y-65862782D02*
X181191046Y-65767544D01*
X181191046Y-65767544D02*
X181238665Y-65719925D01*
X181238665Y-65719925D02*
X181333903Y-65672306D01*
X181333903Y-65672306D02*
X181571998Y-65672306D01*
X181571998Y-65672306D02*
X181667236Y-65719925D01*
X181667236Y-65719925D02*
X181714856Y-65767544D01*
X181714856Y-65767544D02*
X181762475Y-65862782D01*
X181762475Y-65862782D02*
X181762475Y-66148496D01*
X181762475Y-66148496D02*
X181714856Y-66243734D01*
X181714856Y-66243734D02*
X181667236Y-66291353D01*
X182705752Y-65767544D02*
X183372419Y-65767544D01*
X182324800Y-66005639D02*
X183039085Y-66243734D01*
X183039085Y-66243734D02*
X183039085Y-65624687D01*
D11*
G36*
X197988442Y-101965173D02*
G01*
X196490318Y-101965173D01*
X196196249Y-100691019D01*
X193973639Y-100691019D01*
X193669740Y-101965173D01*
X192161785Y-101965173D01*
X192811418Y-99428833D01*
X194274547Y-99428833D01*
X195906028Y-99428833D01*
X195137518Y-96045765D01*
X195081098Y-96045765D01*
X194274547Y-99428833D01*
X192811418Y-99428833D01*
X194304894Y-93597902D01*
X195923980Y-93597902D01*
X197988442Y-101965173D01*
G37*
G36*
X200220456Y-93597902D02*
G01*
X198692839Y-93597902D01*
X200826117Y-101965173D01*
X202445203Y-101965173D01*
X204500262Y-93597902D01*
X202982476Y-93597902D01*
X202416230Y-95924854D01*
X201659168Y-99066377D01*
X201602321Y-99066377D01*
X200220456Y-93597902D01*
G37*
G36*
X206911366Y-95705107D02*
G01*
X205443589Y-95705107D01*
X205443589Y-101965173D01*
X206911366Y-101965173D01*
X206911366Y-95705107D01*
G37*
G36*
X206911366Y-93597902D02*
G01*
X205443589Y-93597902D01*
X205443589Y-95056276D01*
X206911366Y-95056276D01*
X206911366Y-93597902D01*
G37*
G36*
X211442926Y-100487138D02*
G01*
X210414114Y-100487138D01*
X210254459Y-100473811D01*
X210107605Y-100435234D01*
X209851777Y-100287436D01*
X209653354Y-100050729D01*
X209528621Y-99733493D01*
X209496433Y-99442511D01*
X209496433Y-96120564D01*
X209509892Y-95930297D01*
X209549399Y-95751089D01*
X209613024Y-95587430D01*
X209699710Y-95440942D01*
X209803734Y-95319087D01*
X209926801Y-95218835D01*
X210060497Y-95146071D01*
X210209414Y-95097784D01*
X210414114Y-95075510D01*
X211442926Y-95075510D01*
X211599626Y-95088839D01*
X211735069Y-95127429D01*
X211943913Y-95267220D01*
X212098185Y-95496657D01*
X212205880Y-95840173D01*
X213770682Y-95840173D01*
X213730948Y-95562921D01*
X213665720Y-95296897D01*
X213575588Y-95042609D01*
X213461911Y-94803123D01*
X213326462Y-94581151D01*
X213169861Y-94377280D01*
X212995776Y-94195628D01*
X212803221Y-94034885D01*
X212597647Y-93899251D01*
X212376322Y-93786809D01*
X212145516Y-93700740D01*
X211901493Y-93639789D01*
X211452757Y-93597902D01*
X210404283Y-93597902D01*
X209900165Y-93650801D01*
X209419176Y-93807621D01*
X208977257Y-94063881D01*
X208594077Y-94410529D01*
X208431102Y-94613019D01*
X208289948Y-94832364D01*
X208173444Y-95064301D01*
X208081605Y-95309462D01*
X208017207Y-95560551D01*
X207979536Y-95821216D01*
X207969671Y-96041918D01*
X207969671Y-99530561D01*
X208022550Y-100034679D01*
X208179340Y-100515934D01*
X208435579Y-100958299D01*
X208782130Y-101341911D01*
X208984470Y-101505014D01*
X209203545Y-101646205D01*
X209435008Y-101762621D01*
X209679518Y-101854278D01*
X209929620Y-101918371D01*
X210189068Y-101955667D01*
X210404283Y-101965173D01*
X211452757Y-101965173D01*
X211709298Y-101951719D01*
X211955271Y-101912251D01*
X212418443Y-101757624D01*
X212834299Y-101506746D01*
X213191702Y-101165727D01*
X213476830Y-100743661D01*
X213587831Y-100505975D01*
X213675141Y-100254114D01*
X213770682Y-99752394D01*
X212196476Y-99752394D01*
X212125232Y-99990971D01*
X212024390Y-100191998D01*
X211932698Y-100304987D01*
X211819999Y-100393176D01*
X211702247Y-100447736D01*
X211564518Y-100479447D01*
X211442926Y-100487138D01*
G37*
D10*
X177590206Y-64172306D02*
X177542587Y-64267544D01*
X177542587Y-64267544D02*
X177542587Y-64410401D01*
X177542587Y-64410401D02*
X177590206Y-64553258D01*
X177590206Y-64553258D02*
X177685444Y-64648496D01*
X177685444Y-64648496D02*
X177780682Y-64696115D01*
X177780682Y-64696115D02*
X177971158Y-64743734D01*
X177971158Y-64743734D02*
X178114015Y-64743734D01*
X178114015Y-64743734D02*
X178304491Y-64696115D01*
X178304491Y-64696115D02*
X178399729Y-64648496D01*
X178399729Y-64648496D02*
X178494968Y-64553258D01*
X178494968Y-64553258D02*
X178542587Y-64410401D01*
X178542587Y-64410401D02*
X178542587Y-64315163D01*
X178542587Y-64315163D02*
X178494968Y-64172306D01*
X178494968Y-64172306D02*
X178447348Y-64124687D01*
X178447348Y-64124687D02*
X178114015Y-64124687D01*
X178114015Y-64124687D02*
X178114015Y-64315163D01*
X178542587Y-63696115D02*
X177542587Y-63696115D01*
X177542587Y-63696115D02*
X178542587Y-63124687D01*
X178542587Y-63124687D02*
X177542587Y-63124687D01*
X178542587Y-62648496D02*
X177542587Y-62648496D01*
X177542587Y-62648496D02*
X177542587Y-62410401D01*
X177542587Y-62410401D02*
X177590206Y-62267544D01*
X177590206Y-62267544D02*
X177685444Y-62172306D01*
X177685444Y-62172306D02*
X177780682Y-62124687D01*
X177780682Y-62124687D02*
X177971158Y-62077068D01*
X177971158Y-62077068D02*
X178114015Y-62077068D01*
X178114015Y-62077068D02*
X178304491Y-62124687D01*
X178304491Y-62124687D02*
X178399729Y-62172306D01*
X178399729Y-62172306D02*
X178494968Y-62267544D01*
X178494968Y-62267544D02*
X178542587Y-62410401D01*
X178542587Y-62410401D02*
X178542587Y-62648496D01*
X179152531Y-64838972D02*
X179152531Y-64267544D01*
X180152531Y-64553258D02*
X179152531Y-64553258D01*
X179152531Y-64029448D02*
X180152531Y-63362782D01*
X179152531Y-63362782D02*
X180152531Y-64029448D01*
X180152531Y-62981829D02*
X179152531Y-62981829D01*
X179152531Y-62981829D02*
X179152531Y-62743734D01*
X179152531Y-62743734D02*
X179200150Y-62600877D01*
X179200150Y-62600877D02*
X179295388Y-62505639D01*
X179295388Y-62505639D02*
X179390626Y-62458020D01*
X179390626Y-62458020D02*
X179581102Y-62410401D01*
X179581102Y-62410401D02*
X179723959Y-62410401D01*
X179723959Y-62410401D02*
X179914435Y-62458020D01*
X179914435Y-62458020D02*
X180009673Y-62505639D01*
X180009673Y-62505639D02*
X180104912Y-62600877D01*
X180104912Y-62600877D02*
X180152531Y-62743734D01*
X180152531Y-62743734D02*
X180152531Y-62981829D01*
X181762475Y-64124687D02*
X181286284Y-64458020D01*
X181762475Y-64696115D02*
X180762475Y-64696115D01*
X180762475Y-64696115D02*
X180762475Y-64315163D01*
X180762475Y-64315163D02*
X180810094Y-64219925D01*
X180810094Y-64219925D02*
X180857713Y-64172306D01*
X180857713Y-64172306D02*
X180952951Y-64124687D01*
X180952951Y-64124687D02*
X181095808Y-64124687D01*
X181095808Y-64124687D02*
X181191046Y-64172306D01*
X181191046Y-64172306D02*
X181238665Y-64219925D01*
X181238665Y-64219925D02*
X181286284Y-64315163D01*
X181286284Y-64315163D02*
X181286284Y-64696115D01*
X180762475Y-63791353D02*
X181762475Y-63124687D01*
X180762475Y-63124687D02*
X181762475Y-63791353D01*
X181762475Y-62743734D02*
X180762475Y-62743734D01*
X180762475Y-62743734D02*
X180762475Y-62505639D01*
X180762475Y-62505639D02*
X180810094Y-62362782D01*
X180810094Y-62362782D02*
X180905332Y-62267544D01*
X180905332Y-62267544D02*
X181000570Y-62219925D01*
X181000570Y-62219925D02*
X181191046Y-62172306D01*
X181191046Y-62172306D02*
X181333903Y-62172306D01*
X181333903Y-62172306D02*
X181524379Y-62219925D01*
X181524379Y-62219925D02*
X181619617Y-62267544D01*
X181619617Y-62267544D02*
X181714856Y-62362782D01*
X181714856Y-62362782D02*
X181762475Y-62505639D01*
X181762475Y-62505639D02*
X181762475Y-62743734D01*
X182372419Y-64791353D02*
X182372419Y-64172306D01*
X182372419Y-64172306D02*
X182753371Y-64505639D01*
X182753371Y-64505639D02*
X182753371Y-64362782D01*
X182753371Y-64362782D02*
X182800990Y-64267544D01*
X182800990Y-64267544D02*
X182848609Y-64219925D01*
X182848609Y-64219925D02*
X182943847Y-64172306D01*
X182943847Y-64172306D02*
X183181942Y-64172306D01*
X183181942Y-64172306D02*
X183277180Y-64219925D01*
X183277180Y-64219925D02*
X183324800Y-64267544D01*
X183324800Y-64267544D02*
X183372419Y-64362782D01*
X183372419Y-64362782D02*
X183372419Y-64648496D01*
X183372419Y-64648496D02*
X183324800Y-64743734D01*
X183324800Y-64743734D02*
X183277180Y-64791353D01*
X183277180Y-63743734D02*
X183324800Y-63696115D01*
X183324800Y-63696115D02*
X183372419Y-63743734D01*
X183372419Y-63743734D02*
X183324800Y-63791353D01*
X183324800Y-63791353D02*
X183277180Y-63743734D01*
X183277180Y-63743734D02*
X183372419Y-63743734D01*
X182372419Y-63362782D02*
X182372419Y-62743735D01*
X182372419Y-62743735D02*
X182753371Y-63077068D01*
X182753371Y-63077068D02*
X182753371Y-62934211D01*
X182753371Y-62934211D02*
X182800990Y-62838973D01*
X182800990Y-62838973D02*
X182848609Y-62791354D01*
X182848609Y-62791354D02*
X182943847Y-62743735D01*
X182943847Y-62743735D02*
X183181942Y-62743735D01*
X183181942Y-62743735D02*
X183277180Y-62791354D01*
X183277180Y-62791354D02*
X183324800Y-62838973D01*
X183324800Y-62838973D02*
X183372419Y-62934211D01*
X183372419Y-62934211D02*
X183372419Y-63219925D01*
X183372419Y-63219925D02*
X183324800Y-63315163D01*
X183324800Y-63315163D02*
X183277180Y-63362782D01*
X182372419Y-62458020D02*
X183372419Y-62124687D01*
X183372419Y-62124687D02*
X182372419Y-61791354D01*
D12*
X112671428Y-63204714D02*
X112385714Y-63061857D01*
X112385714Y-63061857D02*
X111957142Y-63061857D01*
X111957142Y-63061857D02*
X111528571Y-63204714D01*
X111528571Y-63204714D02*
X111242856Y-63490428D01*
X111242856Y-63490428D02*
X111099999Y-63776142D01*
X111099999Y-63776142D02*
X110957142Y-64347571D01*
X110957142Y-64347571D02*
X110957142Y-64776142D01*
X110957142Y-64776142D02*
X111099999Y-65347571D01*
X111099999Y-65347571D02*
X111242856Y-65633285D01*
X111242856Y-65633285D02*
X111528571Y-65919000D01*
X111528571Y-65919000D02*
X111957142Y-66061857D01*
X111957142Y-66061857D02*
X112242856Y-66061857D01*
X112242856Y-66061857D02*
X112671428Y-65919000D01*
X112671428Y-65919000D02*
X112814285Y-65776142D01*
X112814285Y-65776142D02*
X112814285Y-64776142D01*
X112814285Y-64776142D02*
X112242856Y-64776142D01*
X114099999Y-66061857D02*
X114099999Y-63061857D01*
X114099999Y-63061857D02*
X115242856Y-63061857D01*
X115242856Y-63061857D02*
X115528571Y-63204714D01*
X115528571Y-63204714D02*
X115671428Y-63347571D01*
X115671428Y-63347571D02*
X115814285Y-63633285D01*
X115814285Y-63633285D02*
X115814285Y-64061857D01*
X115814285Y-64061857D02*
X115671428Y-64347571D01*
X115671428Y-64347571D02*
X115528571Y-64490428D01*
X115528571Y-64490428D02*
X115242856Y-64633285D01*
X115242856Y-64633285D02*
X114099999Y-64633285D01*
X116814285Y-63061857D02*
X118814285Y-66061857D01*
X118814285Y-63061857D02*
X116814285Y-66061857D01*
X119957142Y-65776142D02*
X120099999Y-65919000D01*
X120099999Y-65919000D02*
X119957142Y-66061857D01*
X119957142Y-66061857D02*
X119814285Y-65919000D01*
X119814285Y-65919000D02*
X119957142Y-65776142D01*
X119957142Y-65776142D02*
X119957142Y-66061857D01*
X121242856Y-65919000D02*
X121671428Y-66061857D01*
X121671428Y-66061857D02*
X122385713Y-66061857D01*
X122385713Y-66061857D02*
X122671428Y-65919000D01*
X122671428Y-65919000D02*
X122814285Y-65776142D01*
X122814285Y-65776142D02*
X122957142Y-65490428D01*
X122957142Y-65490428D02*
X122957142Y-65204714D01*
X122957142Y-65204714D02*
X122814285Y-64919000D01*
X122814285Y-64919000D02*
X122671428Y-64776142D01*
X122671428Y-64776142D02*
X122385713Y-64633285D01*
X122385713Y-64633285D02*
X121814285Y-64490428D01*
X121814285Y-64490428D02*
X121528570Y-64347571D01*
X121528570Y-64347571D02*
X121385713Y-64204714D01*
X121385713Y-64204714D02*
X121242856Y-63919000D01*
X121242856Y-63919000D02*
X121242856Y-63633285D01*
X121242856Y-63633285D02*
X121385713Y-63347571D01*
X121385713Y-63347571D02*
X121528570Y-63204714D01*
X121528570Y-63204714D02*
X121814285Y-63061857D01*
X121814285Y-63061857D02*
X122528570Y-63061857D01*
X122528570Y-63061857D02*
X122957142Y-63204714D01*
X124242856Y-66061857D02*
X124242856Y-63061857D01*
X124242856Y-63061857D02*
X125385713Y-63061857D01*
X125385713Y-63061857D02*
X125671428Y-63204714D01*
X125671428Y-63204714D02*
X125814285Y-63347571D01*
X125814285Y-63347571D02*
X125957142Y-63633285D01*
X125957142Y-63633285D02*
X125957142Y-64061857D01*
X125957142Y-64061857D02*
X125814285Y-64347571D01*
X125814285Y-64347571D02*
X125671428Y-64490428D01*
X125671428Y-64490428D02*
X125385713Y-64633285D01*
X125385713Y-64633285D02*
X124242856Y-64633285D01*
X127099999Y-65204714D02*
X128528571Y-65204714D01*
X126814285Y-66061857D02*
X127814285Y-63061857D01*
X127814285Y-63061857D02*
X128814285Y-66061857D01*
X131528571Y-65776142D02*
X131385714Y-65919000D01*
X131385714Y-65919000D02*
X130957142Y-66061857D01*
X130957142Y-66061857D02*
X130671428Y-66061857D01*
X130671428Y-66061857D02*
X130242857Y-65919000D01*
X130242857Y-65919000D02*
X129957142Y-65633285D01*
X129957142Y-65633285D02*
X129814285Y-65347571D01*
X129814285Y-65347571D02*
X129671428Y-64776142D01*
X129671428Y-64776142D02*
X129671428Y-64347571D01*
X129671428Y-64347571D02*
X129814285Y-63776142D01*
X129814285Y-63776142D02*
X129957142Y-63490428D01*
X129957142Y-63490428D02*
X130242857Y-63204714D01*
X130242857Y-63204714D02*
X130671428Y-63061857D01*
X130671428Y-63061857D02*
X130957142Y-63061857D01*
X130957142Y-63061857D02*
X131385714Y-63204714D01*
X131385714Y-63204714D02*
X131528571Y-63347571D01*
X132814285Y-64490428D02*
X133814285Y-64490428D01*
X134242857Y-66061857D02*
X132814285Y-66061857D01*
X132814285Y-66061857D02*
X132814285Y-63061857D01*
X132814285Y-63061857D02*
X134242857Y-63061857D01*
D13*
X197166666Y-56788152D02*
X197404761Y-57454819D01*
X197642856Y-56788152D02*
X197404761Y-57454819D01*
X197404761Y-57454819D02*
X197309523Y-57692914D01*
X197309523Y-57692914D02*
X197261904Y-57740533D01*
X197261904Y-57740533D02*
X197166666Y-57788152D01*
X198166666Y-57454819D02*
X198071428Y-57407200D01*
X198071428Y-57407200D02*
X198023809Y-57359580D01*
X198023809Y-57359580D02*
X197976190Y-57264342D01*
X197976190Y-57264342D02*
X197976190Y-56978628D01*
X197976190Y-56978628D02*
X198023809Y-56883390D01*
X198023809Y-56883390D02*
X198071428Y-56835771D01*
X198071428Y-56835771D02*
X198166666Y-56788152D01*
X198166666Y-56788152D02*
X198309523Y-56788152D01*
X198309523Y-56788152D02*
X198404761Y-56835771D01*
X198404761Y-56835771D02*
X198452380Y-56883390D01*
X198452380Y-56883390D02*
X198499999Y-56978628D01*
X198499999Y-56978628D02*
X198499999Y-57264342D01*
X198499999Y-57264342D02*
X198452380Y-57359580D01*
X198452380Y-57359580D02*
X198404761Y-57407200D01*
X198404761Y-57407200D02*
X198309523Y-57454819D01*
X198309523Y-57454819D02*
X198166666Y-57454819D01*
X199357142Y-56788152D02*
X199357142Y-57454819D01*
X198928571Y-56788152D02*
X198928571Y-57311961D01*
X198928571Y-57311961D02*
X198976190Y-57407200D01*
X198976190Y-57407200D02*
X199071428Y-57454819D01*
X199071428Y-57454819D02*
X199214285Y-57454819D01*
X199214285Y-57454819D02*
X199309523Y-57407200D01*
X199309523Y-57407200D02*
X199357142Y-57359580D01*
X199833333Y-57454819D02*
X199833333Y-56788152D01*
X199833333Y-56978628D02*
X199880952Y-56883390D01*
X199880952Y-56883390D02*
X199928571Y-56835771D01*
X199928571Y-56835771D02*
X200023809Y-56788152D01*
X200023809Y-56788152D02*
X200119047Y-56788152D01*
X201119048Y-56788152D02*
X201309524Y-57454819D01*
X201309524Y-57454819D02*
X201500000Y-56978628D01*
X201500000Y-56978628D02*
X201690476Y-57454819D01*
X201690476Y-57454819D02*
X201880952Y-56788152D01*
X202690476Y-57454819D02*
X202690476Y-56931009D01*
X202690476Y-56931009D02*
X202642857Y-56835771D01*
X202642857Y-56835771D02*
X202547619Y-56788152D01*
X202547619Y-56788152D02*
X202357143Y-56788152D01*
X202357143Y-56788152D02*
X202261905Y-56835771D01*
X202690476Y-57407200D02*
X202595238Y-57454819D01*
X202595238Y-57454819D02*
X202357143Y-57454819D01*
X202357143Y-57454819D02*
X202261905Y-57407200D01*
X202261905Y-57407200D02*
X202214286Y-57311961D01*
X202214286Y-57311961D02*
X202214286Y-57216723D01*
X202214286Y-57216723D02*
X202261905Y-57121485D01*
X202261905Y-57121485D02*
X202357143Y-57073866D01*
X202357143Y-57073866D02*
X202595238Y-57073866D01*
X202595238Y-57073866D02*
X202690476Y-57026247D01*
X203071429Y-56788152D02*
X203309524Y-57454819D01*
X203547619Y-56788152D02*
X203309524Y-57454819D01*
X203309524Y-57454819D02*
X203214286Y-57692914D01*
X203214286Y-57692914D02*
X203166667Y-57740533D01*
X203166667Y-57740533D02*
X203071429Y-57788152D01*
X204690477Y-57454819D02*
X204690477Y-56788152D01*
X204690477Y-56883390D02*
X204738096Y-56835771D01*
X204738096Y-56835771D02*
X204833334Y-56788152D01*
X204833334Y-56788152D02*
X204976191Y-56788152D01*
X204976191Y-56788152D02*
X205071429Y-56835771D01*
X205071429Y-56835771D02*
X205119048Y-56931009D01*
X205119048Y-56931009D02*
X205119048Y-57454819D01*
X205119048Y-56931009D02*
X205166667Y-56835771D01*
X205166667Y-56835771D02*
X205261905Y-56788152D01*
X205261905Y-56788152D02*
X205404762Y-56788152D01*
X205404762Y-56788152D02*
X205500001Y-56835771D01*
X205500001Y-56835771D02*
X205547620Y-56931009D01*
X205547620Y-56931009D02*
X205547620Y-57454819D01*
X206452381Y-57454819D02*
X206452381Y-56931009D01*
X206452381Y-56931009D02*
X206404762Y-56835771D01*
X206404762Y-56835771D02*
X206309524Y-56788152D01*
X206309524Y-56788152D02*
X206119048Y-56788152D01*
X206119048Y-56788152D02*
X206023810Y-56835771D01*
X206452381Y-57407200D02*
X206357143Y-57454819D01*
X206357143Y-57454819D02*
X206119048Y-57454819D01*
X206119048Y-57454819D02*
X206023810Y-57407200D01*
X206023810Y-57407200D02*
X205976191Y-57311961D01*
X205976191Y-57311961D02*
X205976191Y-57216723D01*
X205976191Y-57216723D02*
X206023810Y-57121485D01*
X206023810Y-57121485D02*
X206119048Y-57073866D01*
X206119048Y-57073866D02*
X206357143Y-57073866D01*
X206357143Y-57073866D02*
X206452381Y-57026247D01*
X206928572Y-57454819D02*
X206928572Y-56454819D01*
X207023810Y-57073866D02*
X207309524Y-57454819D01*
X207309524Y-56788152D02*
X206928572Y-57169104D01*
X208119048Y-57407200D02*
X208023810Y-57454819D01*
X208023810Y-57454819D02*
X207833334Y-57454819D01*
X207833334Y-57454819D02*
X207738096Y-57407200D01*
X207738096Y-57407200D02*
X207690477Y-57311961D01*
X207690477Y-57311961D02*
X207690477Y-56931009D01*
X207690477Y-56931009D02*
X207738096Y-56835771D01*
X207738096Y-56835771D02*
X207833334Y-56788152D01*
X207833334Y-56788152D02*
X208023810Y-56788152D01*
X208023810Y-56788152D02*
X208119048Y-56835771D01*
X208119048Y-56835771D02*
X208166667Y-56931009D01*
X208166667Y-56931009D02*
X208166667Y-57026247D01*
X208166667Y-57026247D02*
X207690477Y-57121485D01*
X208595239Y-57454819D02*
X208595239Y-56788152D01*
X208595239Y-56978628D02*
X208642858Y-56883390D01*
X208642858Y-56883390D02*
X208690477Y-56835771D01*
X208690477Y-56835771D02*
X208785715Y-56788152D01*
X208785715Y-56788152D02*
X208880953Y-56788152D01*
X197658333Y-72539580D02*
X197610714Y-72587200D01*
X197610714Y-72587200D02*
X197467857Y-72634819D01*
X197467857Y-72634819D02*
X197372619Y-72634819D01*
X197372619Y-72634819D02*
X197229762Y-72587200D01*
X197229762Y-72587200D02*
X197134524Y-72491961D01*
X197134524Y-72491961D02*
X197086905Y-72396723D01*
X197086905Y-72396723D02*
X197039286Y-72206247D01*
X197039286Y-72206247D02*
X197039286Y-72063390D01*
X197039286Y-72063390D02*
X197086905Y-71872914D01*
X197086905Y-71872914D02*
X197134524Y-71777676D01*
X197134524Y-71777676D02*
X197229762Y-71682438D01*
X197229762Y-71682438D02*
X197372619Y-71634819D01*
X197372619Y-71634819D02*
X197467857Y-71634819D01*
X197467857Y-71634819D02*
X197610714Y-71682438D01*
X197610714Y-71682438D02*
X197658333Y-71730057D01*
X198515476Y-71968152D02*
X198515476Y-72634819D01*
X198277381Y-71587200D02*
X198039286Y-72301485D01*
X198039286Y-72301485D02*
X198658333Y-72301485D01*
X196288095Y-70454819D02*
X196288095Y-71264342D01*
X196288095Y-71264342D02*
X196335714Y-71359580D01*
X196335714Y-71359580D02*
X196383333Y-71407200D01*
X196383333Y-71407200D02*
X196478571Y-71454819D01*
X196478571Y-71454819D02*
X196669047Y-71454819D01*
X196669047Y-71454819D02*
X196764285Y-71407200D01*
X196764285Y-71407200D02*
X196811904Y-71359580D01*
X196811904Y-71359580D02*
X196859523Y-71264342D01*
X196859523Y-71264342D02*
X196859523Y-70454819D01*
X197478571Y-70883390D02*
X197383333Y-70835771D01*
X197383333Y-70835771D02*
X197335714Y-70788152D01*
X197335714Y-70788152D02*
X197288095Y-70692914D01*
X197288095Y-70692914D02*
X197288095Y-70645295D01*
X197288095Y-70645295D02*
X197335714Y-70550057D01*
X197335714Y-70550057D02*
X197383333Y-70502438D01*
X197383333Y-70502438D02*
X197478571Y-70454819D01*
X197478571Y-70454819D02*
X197669047Y-70454819D01*
X197669047Y-70454819D02*
X197764285Y-70502438D01*
X197764285Y-70502438D02*
X197811904Y-70550057D01*
X197811904Y-70550057D02*
X197859523Y-70645295D01*
X197859523Y-70645295D02*
X197859523Y-70692914D01*
X197859523Y-70692914D02*
X197811904Y-70788152D01*
X197811904Y-70788152D02*
X197764285Y-70835771D01*
X197764285Y-70835771D02*
X197669047Y-70883390D01*
X197669047Y-70883390D02*
X197478571Y-70883390D01*
X197478571Y-70883390D02*
X197383333Y-70931009D01*
X197383333Y-70931009D02*
X197335714Y-70978628D01*
X197335714Y-70978628D02*
X197288095Y-71073866D01*
X197288095Y-71073866D02*
X197288095Y-71264342D01*
X197288095Y-71264342D02*
X197335714Y-71359580D01*
X197335714Y-71359580D02*
X197383333Y-71407200D01*
X197383333Y-71407200D02*
X197478571Y-71454819D01*
X197478571Y-71454819D02*
X197669047Y-71454819D01*
X197669047Y-71454819D02*
X197764285Y-71407200D01*
X197764285Y-71407200D02*
X197811904Y-71359580D01*
X197811904Y-71359580D02*
X197859523Y-71264342D01*
X197859523Y-71264342D02*
X197859523Y-71073866D01*
X197859523Y-71073866D02*
X197811904Y-70978628D01*
X197811904Y-70978628D02*
X197764285Y-70931009D01*
X197764285Y-70931009D02*
X197669047Y-70883390D01*
X185440476Y-65384819D02*
X185440476Y-66099104D01*
X185440476Y-66099104D02*
X185392857Y-66241961D01*
X185392857Y-66241961D02*
X185297619Y-66337200D01*
X185297619Y-66337200D02*
X185154762Y-66384819D01*
X185154762Y-66384819D02*
X185059524Y-66384819D01*
X186440476Y-66384819D02*
X185869048Y-66384819D01*
X186154762Y-66384819D02*
X186154762Y-65384819D01*
X186154762Y-65384819D02*
X186059524Y-65527676D01*
X186059524Y-65527676D02*
X185964286Y-65622914D01*
X185964286Y-65622914D02*
X185869048Y-65670533D01*
X186821429Y-65480057D02*
X186869048Y-65432438D01*
X186869048Y-65432438D02*
X186964286Y-65384819D01*
X186964286Y-65384819D02*
X187202381Y-65384819D01*
X187202381Y-65384819D02*
X187297619Y-65432438D01*
X187297619Y-65432438D02*
X187345238Y-65480057D01*
X187345238Y-65480057D02*
X187392857Y-65575295D01*
X187392857Y-65575295D02*
X187392857Y-65670533D01*
X187392857Y-65670533D02*
X187345238Y-65813390D01*
X187345238Y-65813390D02*
X186773810Y-66384819D01*
X186773810Y-66384819D02*
X187392857Y-66384819D01*
D10*
X190015238Y-128712342D02*
X190110476Y-128759961D01*
X190110476Y-128759961D02*
X190205714Y-128855200D01*
X190205714Y-128855200D02*
X190348571Y-128998057D01*
X190348571Y-128998057D02*
X190443809Y-129045676D01*
X190443809Y-129045676D02*
X190539047Y-129045676D01*
X190491428Y-128807580D02*
X190586666Y-128855200D01*
X190586666Y-128855200D02*
X190681904Y-128950438D01*
X190681904Y-128950438D02*
X190729523Y-129140914D01*
X190729523Y-129140914D02*
X190729523Y-129474247D01*
X190729523Y-129474247D02*
X190681904Y-129664723D01*
X190681904Y-129664723D02*
X190586666Y-129759961D01*
X190586666Y-129759961D02*
X190491428Y-129807580D01*
X190491428Y-129807580D02*
X190300952Y-129807580D01*
X190300952Y-129807580D02*
X190205714Y-129759961D01*
X190205714Y-129759961D02*
X190110476Y-129664723D01*
X190110476Y-129664723D02*
X190062857Y-129474247D01*
X190062857Y-129474247D02*
X190062857Y-129140914D01*
X190062857Y-129140914D02*
X190110476Y-128950438D01*
X190110476Y-128950438D02*
X190205714Y-128855200D01*
X190205714Y-128855200D02*
X190300952Y-128807580D01*
X190300952Y-128807580D02*
X190491428Y-128807580D01*
X189681904Y-129712342D02*
X189634285Y-129759961D01*
X189634285Y-129759961D02*
X189539047Y-129807580D01*
X189539047Y-129807580D02*
X189300952Y-129807580D01*
X189300952Y-129807580D02*
X189205714Y-129759961D01*
X189205714Y-129759961D02*
X189158095Y-129712342D01*
X189158095Y-129712342D02*
X189110476Y-129617104D01*
X189110476Y-129617104D02*
X189110476Y-129521866D01*
X189110476Y-129521866D02*
X189158095Y-129379009D01*
X189158095Y-129379009D02*
X189729523Y-128807580D01*
X189729523Y-128807580D02*
X189110476Y-128807580D01*
D13*
X230607319Y-85809523D02*
X231321604Y-85809523D01*
X231321604Y-85809523D02*
X231464461Y-85857142D01*
X231464461Y-85857142D02*
X231559700Y-85952380D01*
X231559700Y-85952380D02*
X231607319Y-86095237D01*
X231607319Y-86095237D02*
X231607319Y-86190475D01*
X231607319Y-84809523D02*
X231607319Y-85380951D01*
X231607319Y-85095237D02*
X230607319Y-85095237D01*
X230607319Y-85095237D02*
X230750176Y-85190475D01*
X230750176Y-85190475D02*
X230845414Y-85285713D01*
X230845414Y-85285713D02*
X230893033Y-85380951D01*
X230607319Y-84476189D02*
X230607319Y-83857142D01*
X230607319Y-83857142D02*
X230988271Y-84190475D01*
X230988271Y-84190475D02*
X230988271Y-84047618D01*
X230988271Y-84047618D02*
X231035890Y-83952380D01*
X231035890Y-83952380D02*
X231083509Y-83904761D01*
X231083509Y-83904761D02*
X231178747Y-83857142D01*
X231178747Y-83857142D02*
X231416842Y-83857142D01*
X231416842Y-83857142D02*
X231512080Y-83904761D01*
X231512080Y-83904761D02*
X231559700Y-83952380D01*
X231559700Y-83952380D02*
X231607319Y-84047618D01*
X231607319Y-84047618D02*
X231607319Y-84333332D01*
X231607319Y-84333332D02*
X231559700Y-84428570D01*
X231559700Y-84428570D02*
X231512080Y-84476189D01*
X208754819Y-120738094D02*
X207754819Y-120738094D01*
X207754819Y-120738094D02*
X207754819Y-120499999D01*
X207754819Y-120499999D02*
X207802438Y-120357142D01*
X207802438Y-120357142D02*
X207897676Y-120261904D01*
X207897676Y-120261904D02*
X207992914Y-120214285D01*
X207992914Y-120214285D02*
X208183390Y-120166666D01*
X208183390Y-120166666D02*
X208326247Y-120166666D01*
X208326247Y-120166666D02*
X208516723Y-120214285D01*
X208516723Y-120214285D02*
X208611961Y-120261904D01*
X208611961Y-120261904D02*
X208707200Y-120357142D01*
X208707200Y-120357142D02*
X208754819Y-120499999D01*
X208754819Y-120499999D02*
X208754819Y-120738094D01*
X207850057Y-119785713D02*
X207802438Y-119738094D01*
X207802438Y-119738094D02*
X207754819Y-119642856D01*
X207754819Y-119642856D02*
X207754819Y-119404761D01*
X207754819Y-119404761D02*
X207802438Y-119309523D01*
X207802438Y-119309523D02*
X207850057Y-119261904D01*
X207850057Y-119261904D02*
X207945295Y-119214285D01*
X207945295Y-119214285D02*
X208040533Y-119214285D01*
X208040533Y-119214285D02*
X208183390Y-119261904D01*
X208183390Y-119261904D02*
X208754819Y-119833332D01*
X208754819Y-119833332D02*
X208754819Y-119214285D01*
X205681009Y-82880952D02*
X205728628Y-82738095D01*
X205728628Y-82738095D02*
X205776247Y-82690476D01*
X205776247Y-82690476D02*
X205871485Y-82642857D01*
X205871485Y-82642857D02*
X206014342Y-82642857D01*
X206014342Y-82642857D02*
X206109580Y-82690476D01*
X206109580Y-82690476D02*
X206157200Y-82738095D01*
X206157200Y-82738095D02*
X206204819Y-82833333D01*
X206204819Y-82833333D02*
X206204819Y-83214285D01*
X206204819Y-83214285D02*
X205204819Y-83214285D01*
X205204819Y-83214285D02*
X205204819Y-82880952D01*
X205204819Y-82880952D02*
X205252438Y-82785714D01*
X205252438Y-82785714D02*
X205300057Y-82738095D01*
X205300057Y-82738095D02*
X205395295Y-82690476D01*
X205395295Y-82690476D02*
X205490533Y-82690476D01*
X205490533Y-82690476D02*
X205585771Y-82738095D01*
X205585771Y-82738095D02*
X205633390Y-82785714D01*
X205633390Y-82785714D02*
X205681009Y-82880952D01*
X205681009Y-82880952D02*
X205681009Y-83214285D01*
X205204819Y-82309523D02*
X205204819Y-81642857D01*
X205204819Y-81642857D02*
X206204819Y-82309523D01*
X206204819Y-82309523D02*
X206204819Y-81642857D01*
X206204819Y-80738095D02*
X206204819Y-81309523D01*
X206204819Y-81023809D02*
X205204819Y-81023809D01*
X205204819Y-81023809D02*
X205347676Y-81119047D01*
X205347676Y-81119047D02*
X205442914Y-81214285D01*
X205442914Y-81214285D02*
X205490533Y-81309523D01*
X192857142Y-58084819D02*
X192523809Y-57608628D01*
X192285714Y-58084819D02*
X192285714Y-57084819D01*
X192285714Y-57084819D02*
X192666666Y-57084819D01*
X192666666Y-57084819D02*
X192761904Y-57132438D01*
X192761904Y-57132438D02*
X192809523Y-57180057D01*
X192809523Y-57180057D02*
X192857142Y-57275295D01*
X192857142Y-57275295D02*
X192857142Y-57418152D01*
X192857142Y-57418152D02*
X192809523Y-57513390D01*
X192809523Y-57513390D02*
X192761904Y-57561009D01*
X192761904Y-57561009D02*
X192666666Y-57608628D01*
X192666666Y-57608628D02*
X192285714Y-57608628D01*
X193809523Y-58084819D02*
X193238095Y-58084819D01*
X193523809Y-58084819D02*
X193523809Y-57084819D01*
X193523809Y-57084819D02*
X193428571Y-57227676D01*
X193428571Y-57227676D02*
X193333333Y-57322914D01*
X193333333Y-57322914D02*
X193238095Y-57370533D01*
X194666666Y-57418152D02*
X194666666Y-58084819D01*
X194428571Y-57037200D02*
X194190476Y-57751485D01*
X194190476Y-57751485D02*
X194809523Y-57751485D01*
X212357142Y-64399580D02*
X212309523Y-64447200D01*
X212309523Y-64447200D02*
X212166666Y-64494819D01*
X212166666Y-64494819D02*
X212071428Y-64494819D01*
X212071428Y-64494819D02*
X211928571Y-64447200D01*
X211928571Y-64447200D02*
X211833333Y-64351961D01*
X211833333Y-64351961D02*
X211785714Y-64256723D01*
X211785714Y-64256723D02*
X211738095Y-64066247D01*
X211738095Y-64066247D02*
X211738095Y-63923390D01*
X211738095Y-63923390D02*
X211785714Y-63732914D01*
X211785714Y-63732914D02*
X211833333Y-63637676D01*
X211833333Y-63637676D02*
X211928571Y-63542438D01*
X211928571Y-63542438D02*
X212071428Y-63494819D01*
X212071428Y-63494819D02*
X212166666Y-63494819D01*
X212166666Y-63494819D02*
X212309523Y-63542438D01*
X212309523Y-63542438D02*
X212357142Y-63590057D01*
X213309523Y-64494819D02*
X212738095Y-64494819D01*
X213023809Y-64494819D02*
X213023809Y-63494819D01*
X213023809Y-63494819D02*
X212928571Y-63637676D01*
X212928571Y-63637676D02*
X212833333Y-63732914D01*
X212833333Y-63732914D02*
X212738095Y-63780533D01*
X213880952Y-63923390D02*
X213785714Y-63875771D01*
X213785714Y-63875771D02*
X213738095Y-63828152D01*
X213738095Y-63828152D02*
X213690476Y-63732914D01*
X213690476Y-63732914D02*
X213690476Y-63685295D01*
X213690476Y-63685295D02*
X213738095Y-63590057D01*
X213738095Y-63590057D02*
X213785714Y-63542438D01*
X213785714Y-63542438D02*
X213880952Y-63494819D01*
X213880952Y-63494819D02*
X214071428Y-63494819D01*
X214071428Y-63494819D02*
X214166666Y-63542438D01*
X214166666Y-63542438D02*
X214214285Y-63590057D01*
X214214285Y-63590057D02*
X214261904Y-63685295D01*
X214261904Y-63685295D02*
X214261904Y-63732914D01*
X214261904Y-63732914D02*
X214214285Y-63828152D01*
X214214285Y-63828152D02*
X214166666Y-63875771D01*
X214166666Y-63875771D02*
X214071428Y-63923390D01*
X214071428Y-63923390D02*
X213880952Y-63923390D01*
X213880952Y-63923390D02*
X213785714Y-63971009D01*
X213785714Y-63971009D02*
X213738095Y-64018628D01*
X213738095Y-64018628D02*
X213690476Y-64113866D01*
X213690476Y-64113866D02*
X213690476Y-64304342D01*
X213690476Y-64304342D02*
X213738095Y-64399580D01*
X213738095Y-64399580D02*
X213785714Y-64447200D01*
X213785714Y-64447200D02*
X213880952Y-64494819D01*
X213880952Y-64494819D02*
X214071428Y-64494819D01*
X214071428Y-64494819D02*
X214166666Y-64447200D01*
X214166666Y-64447200D02*
X214214285Y-64399580D01*
X214214285Y-64399580D02*
X214261904Y-64304342D01*
X214261904Y-64304342D02*
X214261904Y-64113866D01*
X214261904Y-64113866D02*
X214214285Y-64018628D01*
X214214285Y-64018628D02*
X214166666Y-63971009D01*
X214166666Y-63971009D02*
X214071428Y-63923390D01*
X210789580Y-125591666D02*
X210837200Y-125639285D01*
X210837200Y-125639285D02*
X210884819Y-125782142D01*
X210884819Y-125782142D02*
X210884819Y-125877380D01*
X210884819Y-125877380D02*
X210837200Y-126020237D01*
X210837200Y-126020237D02*
X210741961Y-126115475D01*
X210741961Y-126115475D02*
X210646723Y-126163094D01*
X210646723Y-126163094D02*
X210456247Y-126210713D01*
X210456247Y-126210713D02*
X210313390Y-126210713D01*
X210313390Y-126210713D02*
X210122914Y-126163094D01*
X210122914Y-126163094D02*
X210027676Y-126115475D01*
X210027676Y-126115475D02*
X209932438Y-126020237D01*
X209932438Y-126020237D02*
X209884819Y-125877380D01*
X209884819Y-125877380D02*
X209884819Y-125782142D01*
X209884819Y-125782142D02*
X209932438Y-125639285D01*
X209932438Y-125639285D02*
X209980057Y-125591666D01*
X209980057Y-125210713D02*
X209932438Y-125163094D01*
X209932438Y-125163094D02*
X209884819Y-125067856D01*
X209884819Y-125067856D02*
X209884819Y-124829761D01*
X209884819Y-124829761D02*
X209932438Y-124734523D01*
X209932438Y-124734523D02*
X209980057Y-124686904D01*
X209980057Y-124686904D02*
X210075295Y-124639285D01*
X210075295Y-124639285D02*
X210170533Y-124639285D01*
X210170533Y-124639285D02*
X210313390Y-124686904D01*
X210313390Y-124686904D02*
X210884819Y-125258332D01*
X210884819Y-125258332D02*
X210884819Y-124639285D01*
X195884819Y-70666666D02*
X195884819Y-71142856D01*
X195884819Y-71142856D02*
X194884819Y-71142856D01*
X195884819Y-69809523D02*
X195884819Y-70380951D01*
X195884819Y-70095237D02*
X194884819Y-70095237D01*
X194884819Y-70095237D02*
X195027676Y-70190475D01*
X195027676Y-70190475D02*
X195122914Y-70285713D01*
X195122914Y-70285713D02*
X195170533Y-70380951D01*
X212289580Y-125591666D02*
X212337200Y-125639285D01*
X212337200Y-125639285D02*
X212384819Y-125782142D01*
X212384819Y-125782142D02*
X212384819Y-125877380D01*
X212384819Y-125877380D02*
X212337200Y-126020237D01*
X212337200Y-126020237D02*
X212241961Y-126115475D01*
X212241961Y-126115475D02*
X212146723Y-126163094D01*
X212146723Y-126163094D02*
X211956247Y-126210713D01*
X211956247Y-126210713D02*
X211813390Y-126210713D01*
X211813390Y-126210713D02*
X211622914Y-126163094D01*
X211622914Y-126163094D02*
X211527676Y-126115475D01*
X211527676Y-126115475D02*
X211432438Y-126020237D01*
X211432438Y-126020237D02*
X211384819Y-125877380D01*
X211384819Y-125877380D02*
X211384819Y-125782142D01*
X211384819Y-125782142D02*
X211432438Y-125639285D01*
X211432438Y-125639285D02*
X211480057Y-125591666D01*
X211384819Y-125258332D02*
X211384819Y-124639285D01*
X211384819Y-124639285D02*
X211765771Y-124972618D01*
X211765771Y-124972618D02*
X211765771Y-124829761D01*
X211765771Y-124829761D02*
X211813390Y-124734523D01*
X211813390Y-124734523D02*
X211861009Y-124686904D01*
X211861009Y-124686904D02*
X211956247Y-124639285D01*
X211956247Y-124639285D02*
X212194342Y-124639285D01*
X212194342Y-124639285D02*
X212289580Y-124686904D01*
X212289580Y-124686904D02*
X212337200Y-124734523D01*
X212337200Y-124734523D02*
X212384819Y-124829761D01*
X212384819Y-124829761D02*
X212384819Y-125115475D01*
X212384819Y-125115475D02*
X212337200Y-125210713D01*
X212337200Y-125210713D02*
X212289580Y-125258332D01*
X174302319Y-96833333D02*
X175016604Y-96833333D01*
X175016604Y-96833333D02*
X175159461Y-96880952D01*
X175159461Y-96880952D02*
X175254700Y-96976190D01*
X175254700Y-96976190D02*
X175302319Y-97119047D01*
X175302319Y-97119047D02*
X175302319Y-97214285D01*
X174302319Y-96452380D02*
X174302319Y-95785714D01*
X174302319Y-95785714D02*
X175302319Y-96214285D01*
X194433333Y-121354819D02*
X194100000Y-120878628D01*
X193861905Y-121354819D02*
X193861905Y-120354819D01*
X193861905Y-120354819D02*
X194242857Y-120354819D01*
X194242857Y-120354819D02*
X194338095Y-120402438D01*
X194338095Y-120402438D02*
X194385714Y-120450057D01*
X194385714Y-120450057D02*
X194433333Y-120545295D01*
X194433333Y-120545295D02*
X194433333Y-120688152D01*
X194433333Y-120688152D02*
X194385714Y-120783390D01*
X194385714Y-120783390D02*
X194338095Y-120831009D01*
X194338095Y-120831009D02*
X194242857Y-120878628D01*
X194242857Y-120878628D02*
X193861905Y-120878628D01*
X194909524Y-121354819D02*
X195100000Y-121354819D01*
X195100000Y-121354819D02*
X195195238Y-121307200D01*
X195195238Y-121307200D02*
X195242857Y-121259580D01*
X195242857Y-121259580D02*
X195338095Y-121116723D01*
X195338095Y-121116723D02*
X195385714Y-120926247D01*
X195385714Y-120926247D02*
X195385714Y-120545295D01*
X195385714Y-120545295D02*
X195338095Y-120450057D01*
X195338095Y-120450057D02*
X195290476Y-120402438D01*
X195290476Y-120402438D02*
X195195238Y-120354819D01*
X195195238Y-120354819D02*
X195004762Y-120354819D01*
X195004762Y-120354819D02*
X194909524Y-120402438D01*
X194909524Y-120402438D02*
X194861905Y-120450057D01*
X194861905Y-120450057D02*
X194814286Y-120545295D01*
X194814286Y-120545295D02*
X194814286Y-120783390D01*
X194814286Y-120783390D02*
X194861905Y-120878628D01*
X194861905Y-120878628D02*
X194909524Y-120926247D01*
X194909524Y-120926247D02*
X195004762Y-120973866D01*
X195004762Y-120973866D02*
X195195238Y-120973866D01*
X195195238Y-120973866D02*
X195290476Y-120926247D01*
X195290476Y-120926247D02*
X195338095Y-120878628D01*
X195338095Y-120878628D02*
X195385714Y-120783390D01*
X224738095Y-54454819D02*
X224738095Y-53454819D01*
X224738095Y-53931009D02*
X225309523Y-53931009D01*
X225309523Y-54454819D02*
X225309523Y-53454819D01*
X225738095Y-53550057D02*
X225785714Y-53502438D01*
X225785714Y-53502438D02*
X225880952Y-53454819D01*
X225880952Y-53454819D02*
X226119047Y-53454819D01*
X226119047Y-53454819D02*
X226214285Y-53502438D01*
X226214285Y-53502438D02*
X226261904Y-53550057D01*
X226261904Y-53550057D02*
X226309523Y-53645295D01*
X226309523Y-53645295D02*
X226309523Y-53740533D01*
X226309523Y-53740533D02*
X226261904Y-53883390D01*
X226261904Y-53883390D02*
X225690476Y-54454819D01*
X225690476Y-54454819D02*
X226309523Y-54454819D01*
X174302319Y-107833333D02*
X175016604Y-107833333D01*
X175016604Y-107833333D02*
X175159461Y-107880952D01*
X175159461Y-107880952D02*
X175254700Y-107976190D01*
X175254700Y-107976190D02*
X175302319Y-108119047D01*
X175302319Y-108119047D02*
X175302319Y-108214285D01*
X175302319Y-107309523D02*
X175302319Y-107119047D01*
X175302319Y-107119047D02*
X175254700Y-107023809D01*
X175254700Y-107023809D02*
X175207080Y-106976190D01*
X175207080Y-106976190D02*
X175064223Y-106880952D01*
X175064223Y-106880952D02*
X174873747Y-106833333D01*
X174873747Y-106833333D02*
X174492795Y-106833333D01*
X174492795Y-106833333D02*
X174397557Y-106880952D01*
X174397557Y-106880952D02*
X174349938Y-106928571D01*
X174349938Y-106928571D02*
X174302319Y-107023809D01*
X174302319Y-107023809D02*
X174302319Y-107214285D01*
X174302319Y-107214285D02*
X174349938Y-107309523D01*
X174349938Y-107309523D02*
X174397557Y-107357142D01*
X174397557Y-107357142D02*
X174492795Y-107404761D01*
X174492795Y-107404761D02*
X174730890Y-107404761D01*
X174730890Y-107404761D02*
X174826128Y-107357142D01*
X174826128Y-107357142D02*
X174873747Y-107309523D01*
X174873747Y-107309523D02*
X174921366Y-107214285D01*
X174921366Y-107214285D02*
X174921366Y-107023809D01*
X174921366Y-107023809D02*
X174873747Y-106928571D01*
X174873747Y-106928571D02*
X174826128Y-106880952D01*
X174826128Y-106880952D02*
X174730890Y-106833333D01*
X212357142Y-61494819D02*
X212023809Y-61018628D01*
X211785714Y-61494819D02*
X211785714Y-60494819D01*
X211785714Y-60494819D02*
X212166666Y-60494819D01*
X212166666Y-60494819D02*
X212261904Y-60542438D01*
X212261904Y-60542438D02*
X212309523Y-60590057D01*
X212309523Y-60590057D02*
X212357142Y-60685295D01*
X212357142Y-60685295D02*
X212357142Y-60828152D01*
X212357142Y-60828152D02*
X212309523Y-60923390D01*
X212309523Y-60923390D02*
X212261904Y-60971009D01*
X212261904Y-60971009D02*
X212166666Y-61018628D01*
X212166666Y-61018628D02*
X211785714Y-61018628D01*
X213309523Y-61494819D02*
X212738095Y-61494819D01*
X213023809Y-61494819D02*
X213023809Y-60494819D01*
X213023809Y-60494819D02*
X212928571Y-60637676D01*
X212928571Y-60637676D02*
X212833333Y-60732914D01*
X212833333Y-60732914D02*
X212738095Y-60780533D01*
X214166666Y-60494819D02*
X213976190Y-60494819D01*
X213976190Y-60494819D02*
X213880952Y-60542438D01*
X213880952Y-60542438D02*
X213833333Y-60590057D01*
X213833333Y-60590057D02*
X213738095Y-60732914D01*
X213738095Y-60732914D02*
X213690476Y-60923390D01*
X213690476Y-60923390D02*
X213690476Y-61304342D01*
X213690476Y-61304342D02*
X213738095Y-61399580D01*
X213738095Y-61399580D02*
X213785714Y-61447200D01*
X213785714Y-61447200D02*
X213880952Y-61494819D01*
X213880952Y-61494819D02*
X214071428Y-61494819D01*
X214071428Y-61494819D02*
X214166666Y-61447200D01*
X214166666Y-61447200D02*
X214214285Y-61399580D01*
X214214285Y-61399580D02*
X214261904Y-61304342D01*
X214261904Y-61304342D02*
X214261904Y-61066247D01*
X214261904Y-61066247D02*
X214214285Y-60971009D01*
X214214285Y-60971009D02*
X214166666Y-60923390D01*
X214166666Y-60923390D02*
X214071428Y-60875771D01*
X214071428Y-60875771D02*
X213880952Y-60875771D01*
X213880952Y-60875771D02*
X213785714Y-60923390D01*
X213785714Y-60923390D02*
X213738095Y-60971009D01*
X213738095Y-60971009D02*
X213690476Y-61066247D01*
X199661905Y-79154819D02*
X199661905Y-78154819D01*
X199661905Y-78154819D02*
X199900000Y-78154819D01*
X199900000Y-78154819D02*
X200042857Y-78202438D01*
X200042857Y-78202438D02*
X200138095Y-78297676D01*
X200138095Y-78297676D02*
X200185714Y-78392914D01*
X200185714Y-78392914D02*
X200233333Y-78583390D01*
X200233333Y-78583390D02*
X200233333Y-78726247D01*
X200233333Y-78726247D02*
X200185714Y-78916723D01*
X200185714Y-78916723D02*
X200138095Y-79011961D01*
X200138095Y-79011961D02*
X200042857Y-79107200D01*
X200042857Y-79107200D02*
X199900000Y-79154819D01*
X199900000Y-79154819D02*
X199661905Y-79154819D01*
X201185714Y-79154819D02*
X200614286Y-79154819D01*
X200900000Y-79154819D02*
X200900000Y-78154819D01*
X200900000Y-78154819D02*
X200804762Y-78297676D01*
X200804762Y-78297676D02*
X200709524Y-78392914D01*
X200709524Y-78392914D02*
X200614286Y-78440533D01*
X230607319Y-118809523D02*
X231321604Y-118809523D01*
X231321604Y-118809523D02*
X231464461Y-118857142D01*
X231464461Y-118857142D02*
X231559700Y-118952380D01*
X231559700Y-118952380D02*
X231607319Y-119095237D01*
X231607319Y-119095237D02*
X231607319Y-119190475D01*
X231607319Y-117809523D02*
X231607319Y-118380951D01*
X231607319Y-118095237D02*
X230607319Y-118095237D01*
X230607319Y-118095237D02*
X230750176Y-118190475D01*
X230750176Y-118190475D02*
X230845414Y-118285713D01*
X230845414Y-118285713D02*
X230893033Y-118380951D01*
X230607319Y-116952380D02*
X230607319Y-117142856D01*
X230607319Y-117142856D02*
X230654938Y-117238094D01*
X230654938Y-117238094D02*
X230702557Y-117285713D01*
X230702557Y-117285713D02*
X230845414Y-117380951D01*
X230845414Y-117380951D02*
X231035890Y-117428570D01*
X231035890Y-117428570D02*
X231416842Y-117428570D01*
X231416842Y-117428570D02*
X231512080Y-117380951D01*
X231512080Y-117380951D02*
X231559700Y-117333332D01*
X231559700Y-117333332D02*
X231607319Y-117238094D01*
X231607319Y-117238094D02*
X231607319Y-117047618D01*
X231607319Y-117047618D02*
X231559700Y-116952380D01*
X231559700Y-116952380D02*
X231512080Y-116904761D01*
X231512080Y-116904761D02*
X231416842Y-116857142D01*
X231416842Y-116857142D02*
X231178747Y-116857142D01*
X231178747Y-116857142D02*
X231083509Y-116904761D01*
X231083509Y-116904761D02*
X231035890Y-116952380D01*
X231035890Y-116952380D02*
X230988271Y-117047618D01*
X230988271Y-117047618D02*
X230988271Y-117238094D01*
X230988271Y-117238094D02*
X231035890Y-117333332D01*
X231035890Y-117333332D02*
X231083509Y-117380951D01*
X231083509Y-117380951D02*
X231178747Y-117428570D01*
X199983333Y-82129580D02*
X199935714Y-82177200D01*
X199935714Y-82177200D02*
X199792857Y-82224819D01*
X199792857Y-82224819D02*
X199697619Y-82224819D01*
X199697619Y-82224819D02*
X199554762Y-82177200D01*
X199554762Y-82177200D02*
X199459524Y-82081961D01*
X199459524Y-82081961D02*
X199411905Y-81986723D01*
X199411905Y-81986723D02*
X199364286Y-81796247D01*
X199364286Y-81796247D02*
X199364286Y-81653390D01*
X199364286Y-81653390D02*
X199411905Y-81462914D01*
X199411905Y-81462914D02*
X199459524Y-81367676D01*
X199459524Y-81367676D02*
X199554762Y-81272438D01*
X199554762Y-81272438D02*
X199697619Y-81224819D01*
X199697619Y-81224819D02*
X199792857Y-81224819D01*
X199792857Y-81224819D02*
X199935714Y-81272438D01*
X199935714Y-81272438D02*
X199983333Y-81320057D01*
X200459524Y-82224819D02*
X200650000Y-82224819D01*
X200650000Y-82224819D02*
X200745238Y-82177200D01*
X200745238Y-82177200D02*
X200792857Y-82129580D01*
X200792857Y-82129580D02*
X200888095Y-81986723D01*
X200888095Y-81986723D02*
X200935714Y-81796247D01*
X200935714Y-81796247D02*
X200935714Y-81415295D01*
X200935714Y-81415295D02*
X200888095Y-81320057D01*
X200888095Y-81320057D02*
X200840476Y-81272438D01*
X200840476Y-81272438D02*
X200745238Y-81224819D01*
X200745238Y-81224819D02*
X200554762Y-81224819D01*
X200554762Y-81224819D02*
X200459524Y-81272438D01*
X200459524Y-81272438D02*
X200411905Y-81320057D01*
X200411905Y-81320057D02*
X200364286Y-81415295D01*
X200364286Y-81415295D02*
X200364286Y-81653390D01*
X200364286Y-81653390D02*
X200411905Y-81748628D01*
X200411905Y-81748628D02*
X200459524Y-81796247D01*
X200459524Y-81796247D02*
X200554762Y-81843866D01*
X200554762Y-81843866D02*
X200745238Y-81843866D01*
X200745238Y-81843866D02*
X200840476Y-81796247D01*
X200840476Y-81796247D02*
X200888095Y-81748628D01*
X200888095Y-81748628D02*
X200935714Y-81653390D01*
X201589580Y-77766666D02*
X201637200Y-77814285D01*
X201637200Y-77814285D02*
X201684819Y-77957142D01*
X201684819Y-77957142D02*
X201684819Y-78052380D01*
X201684819Y-78052380D02*
X201637200Y-78195237D01*
X201637200Y-78195237D02*
X201541961Y-78290475D01*
X201541961Y-78290475D02*
X201446723Y-78338094D01*
X201446723Y-78338094D02*
X201256247Y-78385713D01*
X201256247Y-78385713D02*
X201113390Y-78385713D01*
X201113390Y-78385713D02*
X200922914Y-78338094D01*
X200922914Y-78338094D02*
X200827676Y-78290475D01*
X200827676Y-78290475D02*
X200732438Y-78195237D01*
X200732438Y-78195237D02*
X200684819Y-78052380D01*
X200684819Y-78052380D02*
X200684819Y-77957142D01*
X200684819Y-77957142D02*
X200732438Y-77814285D01*
X200732438Y-77814285D02*
X200780057Y-77766666D01*
X200684819Y-77433332D02*
X200684819Y-76766666D01*
X200684819Y-76766666D02*
X201684819Y-77195237D01*
X209624819Y-122467857D02*
X209148628Y-122801190D01*
X209624819Y-123039285D02*
X208624819Y-123039285D01*
X208624819Y-123039285D02*
X208624819Y-122658333D01*
X208624819Y-122658333D02*
X208672438Y-122563095D01*
X208672438Y-122563095D02*
X208720057Y-122515476D01*
X208720057Y-122515476D02*
X208815295Y-122467857D01*
X208815295Y-122467857D02*
X208958152Y-122467857D01*
X208958152Y-122467857D02*
X209053390Y-122515476D01*
X209053390Y-122515476D02*
X209101009Y-122563095D01*
X209101009Y-122563095D02*
X209148628Y-122658333D01*
X209148628Y-122658333D02*
X209148628Y-123039285D01*
X209624819Y-121515476D02*
X209624819Y-122086904D01*
X209624819Y-121801190D02*
X208624819Y-121801190D01*
X208624819Y-121801190D02*
X208767676Y-121896428D01*
X208767676Y-121896428D02*
X208862914Y-121991666D01*
X208862914Y-121991666D02*
X208910533Y-122086904D01*
X209624819Y-120563095D02*
X209624819Y-121134523D01*
X209624819Y-120848809D02*
X208624819Y-120848809D01*
X208624819Y-120848809D02*
X208767676Y-120944047D01*
X208767676Y-120944047D02*
X208862914Y-121039285D01*
X208862914Y-121039285D02*
X208910533Y-121134523D01*
X224738095Y-131454819D02*
X224738095Y-130454819D01*
X224738095Y-130931009D02*
X225309523Y-130931009D01*
X225309523Y-131454819D02*
X225309523Y-130454819D01*
X225690476Y-130454819D02*
X226309523Y-130454819D01*
X226309523Y-130454819D02*
X225976190Y-130835771D01*
X225976190Y-130835771D02*
X226119047Y-130835771D01*
X226119047Y-130835771D02*
X226214285Y-130883390D01*
X226214285Y-130883390D02*
X226261904Y-130931009D01*
X226261904Y-130931009D02*
X226309523Y-131026247D01*
X226309523Y-131026247D02*
X226309523Y-131264342D01*
X226309523Y-131264342D02*
X226261904Y-131359580D01*
X226261904Y-131359580D02*
X226214285Y-131407200D01*
X226214285Y-131407200D02*
X226119047Y-131454819D01*
X226119047Y-131454819D02*
X225833333Y-131454819D01*
X225833333Y-131454819D02*
X225738095Y-131407200D01*
X225738095Y-131407200D02*
X225690476Y-131359580D01*
X194433333Y-128384819D02*
X194100000Y-127908628D01*
X193861905Y-128384819D02*
X193861905Y-127384819D01*
X193861905Y-127384819D02*
X194242857Y-127384819D01*
X194242857Y-127384819D02*
X194338095Y-127432438D01*
X194338095Y-127432438D02*
X194385714Y-127480057D01*
X194385714Y-127480057D02*
X194433333Y-127575295D01*
X194433333Y-127575295D02*
X194433333Y-127718152D01*
X194433333Y-127718152D02*
X194385714Y-127813390D01*
X194385714Y-127813390D02*
X194338095Y-127861009D01*
X194338095Y-127861009D02*
X194242857Y-127908628D01*
X194242857Y-127908628D02*
X193861905Y-127908628D01*
X195290476Y-127384819D02*
X195100000Y-127384819D01*
X195100000Y-127384819D02*
X195004762Y-127432438D01*
X195004762Y-127432438D02*
X194957143Y-127480057D01*
X194957143Y-127480057D02*
X194861905Y-127622914D01*
X194861905Y-127622914D02*
X194814286Y-127813390D01*
X194814286Y-127813390D02*
X194814286Y-128194342D01*
X194814286Y-128194342D02*
X194861905Y-128289580D01*
X194861905Y-128289580D02*
X194909524Y-128337200D01*
X194909524Y-128337200D02*
X195004762Y-128384819D01*
X195004762Y-128384819D02*
X195195238Y-128384819D01*
X195195238Y-128384819D02*
X195290476Y-128337200D01*
X195290476Y-128337200D02*
X195338095Y-128289580D01*
X195338095Y-128289580D02*
X195385714Y-128194342D01*
X195385714Y-128194342D02*
X195385714Y-127956247D01*
X195385714Y-127956247D02*
X195338095Y-127861009D01*
X195338095Y-127861009D02*
X195290476Y-127813390D01*
X195290476Y-127813390D02*
X195195238Y-127765771D01*
X195195238Y-127765771D02*
X195004762Y-127765771D01*
X195004762Y-127765771D02*
X194909524Y-127813390D01*
X194909524Y-127813390D02*
X194861905Y-127861009D01*
X194861905Y-127861009D02*
X194814286Y-127956247D01*
X215166667Y-54357200D02*
X215309524Y-54404819D01*
X215309524Y-54404819D02*
X215547619Y-54404819D01*
X215547619Y-54404819D02*
X215642857Y-54357200D01*
X215642857Y-54357200D02*
X215690476Y-54309580D01*
X215690476Y-54309580D02*
X215738095Y-54214342D01*
X215738095Y-54214342D02*
X215738095Y-54119104D01*
X215738095Y-54119104D02*
X215690476Y-54023866D01*
X215690476Y-54023866D02*
X215642857Y-53976247D01*
X215642857Y-53976247D02*
X215547619Y-53928628D01*
X215547619Y-53928628D02*
X215357143Y-53881009D01*
X215357143Y-53881009D02*
X215261905Y-53833390D01*
X215261905Y-53833390D02*
X215214286Y-53785771D01*
X215214286Y-53785771D02*
X215166667Y-53690533D01*
X215166667Y-53690533D02*
X215166667Y-53595295D01*
X215166667Y-53595295D02*
X215214286Y-53500057D01*
X215214286Y-53500057D02*
X215261905Y-53452438D01*
X215261905Y-53452438D02*
X215357143Y-53404819D01*
X215357143Y-53404819D02*
X215595238Y-53404819D01*
X215595238Y-53404819D02*
X215738095Y-53452438D01*
X216071429Y-53404819D02*
X216309524Y-54404819D01*
X216309524Y-54404819D02*
X216500000Y-53690533D01*
X216500000Y-53690533D02*
X216690476Y-54404819D01*
X216690476Y-54404819D02*
X216928572Y-53404819D01*
X217833333Y-54404819D02*
X217261905Y-54404819D01*
X217547619Y-54404819D02*
X217547619Y-53404819D01*
X217547619Y-53404819D02*
X217452381Y-53547676D01*
X217452381Y-53547676D02*
X217357143Y-53642914D01*
X217357143Y-53642914D02*
X217261905Y-53690533D01*
X193905595Y-126554819D02*
X193905595Y-127364342D01*
X193905595Y-127364342D02*
X193953214Y-127459580D01*
X193953214Y-127459580D02*
X194000833Y-127507200D01*
X194000833Y-127507200D02*
X194096071Y-127554819D01*
X194096071Y-127554819D02*
X194286547Y-127554819D01*
X194286547Y-127554819D02*
X194381785Y-127507200D01*
X194381785Y-127507200D02*
X194429404Y-127459580D01*
X194429404Y-127459580D02*
X194477023Y-127364342D01*
X194477023Y-127364342D02*
X194477023Y-126554819D01*
X195429404Y-126554819D02*
X194953214Y-126554819D01*
X194953214Y-126554819D02*
X194905595Y-127031009D01*
X194905595Y-127031009D02*
X194953214Y-126983390D01*
X194953214Y-126983390D02*
X195048452Y-126935771D01*
X195048452Y-126935771D02*
X195286547Y-126935771D01*
X195286547Y-126935771D02*
X195381785Y-126983390D01*
X195381785Y-126983390D02*
X195429404Y-127031009D01*
X195429404Y-127031009D02*
X195477023Y-127126247D01*
X195477023Y-127126247D02*
X195477023Y-127364342D01*
X195477023Y-127364342D02*
X195429404Y-127459580D01*
X195429404Y-127459580D02*
X195381785Y-127507200D01*
X195381785Y-127507200D02*
X195286547Y-127554819D01*
X195286547Y-127554819D02*
X195048452Y-127554819D01*
X195048452Y-127554819D02*
X194953214Y-127507200D01*
X194953214Y-127507200D02*
X194905595Y-127459580D01*
X192857142Y-61289580D02*
X192809523Y-61337200D01*
X192809523Y-61337200D02*
X192666666Y-61384819D01*
X192666666Y-61384819D02*
X192571428Y-61384819D01*
X192571428Y-61384819D02*
X192428571Y-61337200D01*
X192428571Y-61337200D02*
X192333333Y-61241961D01*
X192333333Y-61241961D02*
X192285714Y-61146723D01*
X192285714Y-61146723D02*
X192238095Y-60956247D01*
X192238095Y-60956247D02*
X192238095Y-60813390D01*
X192238095Y-60813390D02*
X192285714Y-60622914D01*
X192285714Y-60622914D02*
X192333333Y-60527676D01*
X192333333Y-60527676D02*
X192428571Y-60432438D01*
X192428571Y-60432438D02*
X192571428Y-60384819D01*
X192571428Y-60384819D02*
X192666666Y-60384819D01*
X192666666Y-60384819D02*
X192809523Y-60432438D01*
X192809523Y-60432438D02*
X192857142Y-60480057D01*
X193809523Y-61384819D02*
X193238095Y-61384819D01*
X193523809Y-61384819D02*
X193523809Y-60384819D01*
X193523809Y-60384819D02*
X193428571Y-60527676D01*
X193428571Y-60527676D02*
X193333333Y-60622914D01*
X193333333Y-60622914D02*
X193238095Y-60670533D01*
X194666666Y-60384819D02*
X194476190Y-60384819D01*
X194476190Y-60384819D02*
X194380952Y-60432438D01*
X194380952Y-60432438D02*
X194333333Y-60480057D01*
X194333333Y-60480057D02*
X194238095Y-60622914D01*
X194238095Y-60622914D02*
X194190476Y-60813390D01*
X194190476Y-60813390D02*
X194190476Y-61194342D01*
X194190476Y-61194342D02*
X194238095Y-61289580D01*
X194238095Y-61289580D02*
X194285714Y-61337200D01*
X194285714Y-61337200D02*
X194380952Y-61384819D01*
X194380952Y-61384819D02*
X194571428Y-61384819D01*
X194571428Y-61384819D02*
X194666666Y-61337200D01*
X194666666Y-61337200D02*
X194714285Y-61289580D01*
X194714285Y-61289580D02*
X194761904Y-61194342D01*
X194761904Y-61194342D02*
X194761904Y-60956247D01*
X194761904Y-60956247D02*
X194714285Y-60861009D01*
X194714285Y-60861009D02*
X194666666Y-60813390D01*
X194666666Y-60813390D02*
X194571428Y-60765771D01*
X194571428Y-60765771D02*
X194380952Y-60765771D01*
X194380952Y-60765771D02*
X194285714Y-60813390D01*
X194285714Y-60813390D02*
X194238095Y-60861009D01*
X194238095Y-60861009D02*
X194190476Y-60956247D01*
X179738095Y-54454819D02*
X179738095Y-53454819D01*
X179738095Y-53931009D02*
X180309523Y-53931009D01*
X180309523Y-54454819D02*
X180309523Y-53454819D01*
X181309523Y-54454819D02*
X180738095Y-54454819D01*
X181023809Y-54454819D02*
X181023809Y-53454819D01*
X181023809Y-53454819D02*
X180928571Y-53597676D01*
X180928571Y-53597676D02*
X180833333Y-53692914D01*
X180833333Y-53692914D02*
X180738095Y-53740533D01*
X202238095Y-71379819D02*
X202238095Y-72189342D01*
X202238095Y-72189342D02*
X202285714Y-72284580D01*
X202285714Y-72284580D02*
X202333333Y-72332200D01*
X202333333Y-72332200D02*
X202428571Y-72379819D01*
X202428571Y-72379819D02*
X202619047Y-72379819D01*
X202619047Y-72379819D02*
X202714285Y-72332200D01*
X202714285Y-72332200D02*
X202761904Y-72284580D01*
X202761904Y-72284580D02*
X202809523Y-72189342D01*
X202809523Y-72189342D02*
X202809523Y-71379819D01*
X203238095Y-71475057D02*
X203285714Y-71427438D01*
X203285714Y-71427438D02*
X203380952Y-71379819D01*
X203380952Y-71379819D02*
X203619047Y-71379819D01*
X203619047Y-71379819D02*
X203714285Y-71427438D01*
X203714285Y-71427438D02*
X203761904Y-71475057D01*
X203761904Y-71475057D02*
X203809523Y-71570295D01*
X203809523Y-71570295D02*
X203809523Y-71665533D01*
X203809523Y-71665533D02*
X203761904Y-71808390D01*
X203761904Y-71808390D02*
X203190476Y-72379819D01*
X203190476Y-72379819D02*
X203809523Y-72379819D01*
X228024819Y-64317857D02*
X227548628Y-64651190D01*
X228024819Y-64889285D02*
X227024819Y-64889285D01*
X227024819Y-64889285D02*
X227024819Y-64508333D01*
X227024819Y-64508333D02*
X227072438Y-64413095D01*
X227072438Y-64413095D02*
X227120057Y-64365476D01*
X227120057Y-64365476D02*
X227215295Y-64317857D01*
X227215295Y-64317857D02*
X227358152Y-64317857D01*
X227358152Y-64317857D02*
X227453390Y-64365476D01*
X227453390Y-64365476D02*
X227501009Y-64413095D01*
X227501009Y-64413095D02*
X227548628Y-64508333D01*
X227548628Y-64508333D02*
X227548628Y-64889285D01*
X228024819Y-63365476D02*
X228024819Y-63936904D01*
X228024819Y-63651190D02*
X227024819Y-63651190D01*
X227024819Y-63651190D02*
X227167676Y-63746428D01*
X227167676Y-63746428D02*
X227262914Y-63841666D01*
X227262914Y-63841666D02*
X227310533Y-63936904D01*
X227453390Y-62794047D02*
X227405771Y-62889285D01*
X227405771Y-62889285D02*
X227358152Y-62936904D01*
X227358152Y-62936904D02*
X227262914Y-62984523D01*
X227262914Y-62984523D02*
X227215295Y-62984523D01*
X227215295Y-62984523D02*
X227120057Y-62936904D01*
X227120057Y-62936904D02*
X227072438Y-62889285D01*
X227072438Y-62889285D02*
X227024819Y-62794047D01*
X227024819Y-62794047D02*
X227024819Y-62603571D01*
X227024819Y-62603571D02*
X227072438Y-62508333D01*
X227072438Y-62508333D02*
X227120057Y-62460714D01*
X227120057Y-62460714D02*
X227215295Y-62413095D01*
X227215295Y-62413095D02*
X227262914Y-62413095D01*
X227262914Y-62413095D02*
X227358152Y-62460714D01*
X227358152Y-62460714D02*
X227405771Y-62508333D01*
X227405771Y-62508333D02*
X227453390Y-62603571D01*
X227453390Y-62603571D02*
X227453390Y-62794047D01*
X227453390Y-62794047D02*
X227501009Y-62889285D01*
X227501009Y-62889285D02*
X227548628Y-62936904D01*
X227548628Y-62936904D02*
X227643866Y-62984523D01*
X227643866Y-62984523D02*
X227834342Y-62984523D01*
X227834342Y-62984523D02*
X227929580Y-62936904D01*
X227929580Y-62936904D02*
X227977200Y-62889285D01*
X227977200Y-62889285D02*
X228024819Y-62794047D01*
X228024819Y-62794047D02*
X228024819Y-62603571D01*
X228024819Y-62603571D02*
X227977200Y-62508333D01*
X227977200Y-62508333D02*
X227929580Y-62460714D01*
X227929580Y-62460714D02*
X227834342Y-62413095D01*
X227834342Y-62413095D02*
X227643866Y-62413095D01*
X227643866Y-62413095D02*
X227548628Y-62460714D01*
X227548628Y-62460714D02*
X227501009Y-62508333D01*
X227501009Y-62508333D02*
X227453390Y-62603571D01*
X188804819Y-130442857D02*
X188328628Y-130776190D01*
X188804819Y-131014285D02*
X187804819Y-131014285D01*
X187804819Y-131014285D02*
X187804819Y-130633333D01*
X187804819Y-130633333D02*
X187852438Y-130538095D01*
X187852438Y-130538095D02*
X187900057Y-130490476D01*
X187900057Y-130490476D02*
X187995295Y-130442857D01*
X187995295Y-130442857D02*
X188138152Y-130442857D01*
X188138152Y-130442857D02*
X188233390Y-130490476D01*
X188233390Y-130490476D02*
X188281009Y-130538095D01*
X188281009Y-130538095D02*
X188328628Y-130633333D01*
X188328628Y-130633333D02*
X188328628Y-131014285D01*
X188804819Y-129490476D02*
X188804819Y-130061904D01*
X188804819Y-129776190D02*
X187804819Y-129776190D01*
X187804819Y-129776190D02*
X187947676Y-129871428D01*
X187947676Y-129871428D02*
X188042914Y-129966666D01*
X188042914Y-129966666D02*
X188090533Y-130061904D01*
X187804819Y-129157142D02*
X187804819Y-128538095D01*
X187804819Y-128538095D02*
X188185771Y-128871428D01*
X188185771Y-128871428D02*
X188185771Y-128728571D01*
X188185771Y-128728571D02*
X188233390Y-128633333D01*
X188233390Y-128633333D02*
X188281009Y-128585714D01*
X188281009Y-128585714D02*
X188376247Y-128538095D01*
X188376247Y-128538095D02*
X188614342Y-128538095D01*
X188614342Y-128538095D02*
X188709580Y-128585714D01*
X188709580Y-128585714D02*
X188757200Y-128633333D01*
X188757200Y-128633333D02*
X188804819Y-128728571D01*
X188804819Y-128728571D02*
X188804819Y-129014285D01*
X188804819Y-129014285D02*
X188757200Y-129109523D01*
X188757200Y-129109523D02*
X188709580Y-129157142D01*
X174302319Y-74833333D02*
X175016604Y-74833333D01*
X175016604Y-74833333D02*
X175159461Y-74880952D01*
X175159461Y-74880952D02*
X175254700Y-74976190D01*
X175254700Y-74976190D02*
X175302319Y-75119047D01*
X175302319Y-75119047D02*
X175302319Y-75214285D01*
X174302319Y-74452380D02*
X174302319Y-73833333D01*
X174302319Y-73833333D02*
X174683271Y-74166666D01*
X174683271Y-74166666D02*
X174683271Y-74023809D01*
X174683271Y-74023809D02*
X174730890Y-73928571D01*
X174730890Y-73928571D02*
X174778509Y-73880952D01*
X174778509Y-73880952D02*
X174873747Y-73833333D01*
X174873747Y-73833333D02*
X175111842Y-73833333D01*
X175111842Y-73833333D02*
X175207080Y-73880952D01*
X175207080Y-73880952D02*
X175254700Y-73928571D01*
X175254700Y-73928571D02*
X175302319Y-74023809D01*
X175302319Y-74023809D02*
X175302319Y-74309523D01*
X175302319Y-74309523D02*
X175254700Y-74404761D01*
X175254700Y-74404761D02*
X175207080Y-74452380D01*
X195154819Y-124111904D02*
X195964342Y-124111904D01*
X195964342Y-124111904D02*
X196059580Y-124064285D01*
X196059580Y-124064285D02*
X196107200Y-124016666D01*
X196107200Y-124016666D02*
X196154819Y-123921428D01*
X196154819Y-123921428D02*
X196154819Y-123730952D01*
X196154819Y-123730952D02*
X196107200Y-123635714D01*
X196107200Y-123635714D02*
X196059580Y-123588095D01*
X196059580Y-123588095D02*
X195964342Y-123540476D01*
X195964342Y-123540476D02*
X195154819Y-123540476D01*
X195154819Y-122635714D02*
X195154819Y-122826190D01*
X195154819Y-122826190D02*
X195202438Y-122921428D01*
X195202438Y-122921428D02*
X195250057Y-122969047D01*
X195250057Y-122969047D02*
X195392914Y-123064285D01*
X195392914Y-123064285D02*
X195583390Y-123111904D01*
X195583390Y-123111904D02*
X195964342Y-123111904D01*
X195964342Y-123111904D02*
X196059580Y-123064285D01*
X196059580Y-123064285D02*
X196107200Y-123016666D01*
X196107200Y-123016666D02*
X196154819Y-122921428D01*
X196154819Y-122921428D02*
X196154819Y-122730952D01*
X196154819Y-122730952D02*
X196107200Y-122635714D01*
X196107200Y-122635714D02*
X196059580Y-122588095D01*
X196059580Y-122588095D02*
X195964342Y-122540476D01*
X195964342Y-122540476D02*
X195726247Y-122540476D01*
X195726247Y-122540476D02*
X195631009Y-122588095D01*
X195631009Y-122588095D02*
X195583390Y-122635714D01*
X195583390Y-122635714D02*
X195535771Y-122730952D01*
X195535771Y-122730952D02*
X195535771Y-122921428D01*
X195535771Y-122921428D02*
X195583390Y-123016666D01*
X195583390Y-123016666D02*
X195631009Y-123064285D01*
X195631009Y-123064285D02*
X195726247Y-123111904D01*
X190804819Y-130442857D02*
X190328628Y-130776190D01*
X190804819Y-131014285D02*
X189804819Y-131014285D01*
X189804819Y-131014285D02*
X189804819Y-130633333D01*
X189804819Y-130633333D02*
X189852438Y-130538095D01*
X189852438Y-130538095D02*
X189900057Y-130490476D01*
X189900057Y-130490476D02*
X189995295Y-130442857D01*
X189995295Y-130442857D02*
X190138152Y-130442857D01*
X190138152Y-130442857D02*
X190233390Y-130490476D01*
X190233390Y-130490476D02*
X190281009Y-130538095D01*
X190281009Y-130538095D02*
X190328628Y-130633333D01*
X190328628Y-130633333D02*
X190328628Y-131014285D01*
X190804819Y-129490476D02*
X190804819Y-130061904D01*
X190804819Y-129776190D02*
X189804819Y-129776190D01*
X189804819Y-129776190D02*
X189947676Y-129871428D01*
X189947676Y-129871428D02*
X190042914Y-129966666D01*
X190042914Y-129966666D02*
X190090533Y-130061904D01*
X189900057Y-129109523D02*
X189852438Y-129061904D01*
X189852438Y-129061904D02*
X189804819Y-128966666D01*
X189804819Y-128966666D02*
X189804819Y-128728571D01*
X189804819Y-128728571D02*
X189852438Y-128633333D01*
X189852438Y-128633333D02*
X189900057Y-128585714D01*
X189900057Y-128585714D02*
X189995295Y-128538095D01*
X189995295Y-128538095D02*
X190090533Y-128538095D01*
X190090533Y-128538095D02*
X190233390Y-128585714D01*
X190233390Y-128585714D02*
X190804819Y-129157142D01*
X190804819Y-129157142D02*
X190804819Y-128538095D01*
X207884819Y-125591666D02*
X207408628Y-125924999D01*
X207884819Y-126163094D02*
X206884819Y-126163094D01*
X206884819Y-126163094D02*
X206884819Y-125782142D01*
X206884819Y-125782142D02*
X206932438Y-125686904D01*
X206932438Y-125686904D02*
X206980057Y-125639285D01*
X206980057Y-125639285D02*
X207075295Y-125591666D01*
X207075295Y-125591666D02*
X207218152Y-125591666D01*
X207218152Y-125591666D02*
X207313390Y-125639285D01*
X207313390Y-125639285D02*
X207361009Y-125686904D01*
X207361009Y-125686904D02*
X207408628Y-125782142D01*
X207408628Y-125782142D02*
X207408628Y-126163094D01*
X206884819Y-125258332D02*
X206884819Y-124639285D01*
X206884819Y-124639285D02*
X207265771Y-124972618D01*
X207265771Y-124972618D02*
X207265771Y-124829761D01*
X207265771Y-124829761D02*
X207313390Y-124734523D01*
X207313390Y-124734523D02*
X207361009Y-124686904D01*
X207361009Y-124686904D02*
X207456247Y-124639285D01*
X207456247Y-124639285D02*
X207694342Y-124639285D01*
X207694342Y-124639285D02*
X207789580Y-124686904D01*
X207789580Y-124686904D02*
X207837200Y-124734523D01*
X207837200Y-124734523D02*
X207884819Y-124829761D01*
X207884819Y-124829761D02*
X207884819Y-125115475D01*
X207884819Y-125115475D02*
X207837200Y-125210713D01*
X207837200Y-125210713D02*
X207789580Y-125258332D01*
X230607319Y-96809523D02*
X231321604Y-96809523D01*
X231321604Y-96809523D02*
X231464461Y-96857142D01*
X231464461Y-96857142D02*
X231559700Y-96952380D01*
X231559700Y-96952380D02*
X231607319Y-97095237D01*
X231607319Y-97095237D02*
X231607319Y-97190475D01*
X231607319Y-95809523D02*
X231607319Y-96380951D01*
X231607319Y-96095237D02*
X230607319Y-96095237D01*
X230607319Y-96095237D02*
X230750176Y-96190475D01*
X230750176Y-96190475D02*
X230845414Y-96285713D01*
X230845414Y-96285713D02*
X230893033Y-96380951D01*
X230940652Y-94952380D02*
X231607319Y-94952380D01*
X230559700Y-95190475D02*
X231273985Y-95428570D01*
X231273985Y-95428570D02*
X231273985Y-94809523D01*
X192857142Y-62024819D02*
X192523809Y-61548628D01*
X192285714Y-62024819D02*
X192285714Y-61024819D01*
X192285714Y-61024819D02*
X192666666Y-61024819D01*
X192666666Y-61024819D02*
X192761904Y-61072438D01*
X192761904Y-61072438D02*
X192809523Y-61120057D01*
X192809523Y-61120057D02*
X192857142Y-61215295D01*
X192857142Y-61215295D02*
X192857142Y-61358152D01*
X192857142Y-61358152D02*
X192809523Y-61453390D01*
X192809523Y-61453390D02*
X192761904Y-61501009D01*
X192761904Y-61501009D02*
X192666666Y-61548628D01*
X192666666Y-61548628D02*
X192285714Y-61548628D01*
X193809523Y-62024819D02*
X193238095Y-62024819D01*
X193523809Y-62024819D02*
X193523809Y-61024819D01*
X193523809Y-61024819D02*
X193428571Y-61167676D01*
X193428571Y-61167676D02*
X193333333Y-61262914D01*
X193333333Y-61262914D02*
X193238095Y-61310533D01*
X194285714Y-62024819D02*
X194476190Y-62024819D01*
X194476190Y-62024819D02*
X194571428Y-61977200D01*
X194571428Y-61977200D02*
X194619047Y-61929580D01*
X194619047Y-61929580D02*
X194714285Y-61786723D01*
X194714285Y-61786723D02*
X194761904Y-61596247D01*
X194761904Y-61596247D02*
X194761904Y-61215295D01*
X194761904Y-61215295D02*
X194714285Y-61120057D01*
X194714285Y-61120057D02*
X194666666Y-61072438D01*
X194666666Y-61072438D02*
X194571428Y-61024819D01*
X194571428Y-61024819D02*
X194380952Y-61024819D01*
X194380952Y-61024819D02*
X194285714Y-61072438D01*
X194285714Y-61072438D02*
X194238095Y-61120057D01*
X194238095Y-61120057D02*
X194190476Y-61215295D01*
X194190476Y-61215295D02*
X194190476Y-61453390D01*
X194190476Y-61453390D02*
X194238095Y-61548628D01*
X194238095Y-61548628D02*
X194285714Y-61596247D01*
X194285714Y-61596247D02*
X194380952Y-61643866D01*
X194380952Y-61643866D02*
X194571428Y-61643866D01*
X194571428Y-61643866D02*
X194666666Y-61596247D01*
X194666666Y-61596247D02*
X194714285Y-61548628D01*
X194714285Y-61548628D02*
X194761904Y-61453390D01*
X197929580Y-74566666D02*
X197977200Y-74614285D01*
X197977200Y-74614285D02*
X198024819Y-74757142D01*
X198024819Y-74757142D02*
X198024819Y-74852380D01*
X198024819Y-74852380D02*
X197977200Y-74995237D01*
X197977200Y-74995237D02*
X197881961Y-75090475D01*
X197881961Y-75090475D02*
X197786723Y-75138094D01*
X197786723Y-75138094D02*
X197596247Y-75185713D01*
X197596247Y-75185713D02*
X197453390Y-75185713D01*
X197453390Y-75185713D02*
X197262914Y-75138094D01*
X197262914Y-75138094D02*
X197167676Y-75090475D01*
X197167676Y-75090475D02*
X197072438Y-74995237D01*
X197072438Y-74995237D02*
X197024819Y-74852380D01*
X197024819Y-74852380D02*
X197024819Y-74757142D01*
X197024819Y-74757142D02*
X197072438Y-74614285D01*
X197072438Y-74614285D02*
X197120057Y-74566666D01*
X197453390Y-73995237D02*
X197405771Y-74090475D01*
X197405771Y-74090475D02*
X197358152Y-74138094D01*
X197358152Y-74138094D02*
X197262914Y-74185713D01*
X197262914Y-74185713D02*
X197215295Y-74185713D01*
X197215295Y-74185713D02*
X197120057Y-74138094D01*
X197120057Y-74138094D02*
X197072438Y-74090475D01*
X197072438Y-74090475D02*
X197024819Y-73995237D01*
X197024819Y-73995237D02*
X197024819Y-73804761D01*
X197024819Y-73804761D02*
X197072438Y-73709523D01*
X197072438Y-73709523D02*
X197120057Y-73661904D01*
X197120057Y-73661904D02*
X197215295Y-73614285D01*
X197215295Y-73614285D02*
X197262914Y-73614285D01*
X197262914Y-73614285D02*
X197358152Y-73661904D01*
X197358152Y-73661904D02*
X197405771Y-73709523D01*
X197405771Y-73709523D02*
X197453390Y-73804761D01*
X197453390Y-73804761D02*
X197453390Y-73995237D01*
X197453390Y-73995237D02*
X197501009Y-74090475D01*
X197501009Y-74090475D02*
X197548628Y-74138094D01*
X197548628Y-74138094D02*
X197643866Y-74185713D01*
X197643866Y-74185713D02*
X197834342Y-74185713D01*
X197834342Y-74185713D02*
X197929580Y-74138094D01*
X197929580Y-74138094D02*
X197977200Y-74090475D01*
X197977200Y-74090475D02*
X198024819Y-73995237D01*
X198024819Y-73995237D02*
X198024819Y-73804761D01*
X198024819Y-73804761D02*
X197977200Y-73709523D01*
X197977200Y-73709523D02*
X197929580Y-73661904D01*
X197929580Y-73661904D02*
X197834342Y-73614285D01*
X197834342Y-73614285D02*
X197643866Y-73614285D01*
X197643866Y-73614285D02*
X197548628Y-73661904D01*
X197548628Y-73661904D02*
X197501009Y-73709523D01*
X197501009Y-73709523D02*
X197453390Y-73804761D01*
X210651666Y-140294819D02*
X210651666Y-141009104D01*
X210651666Y-141009104D02*
X210604047Y-141151961D01*
X210604047Y-141151961D02*
X210508809Y-141247200D01*
X210508809Y-141247200D02*
X210365952Y-141294819D01*
X210365952Y-141294819D02*
X210270714Y-141294819D01*
X211651666Y-141294819D02*
X211080238Y-141294819D01*
X211365952Y-141294819D02*
X211365952Y-140294819D01*
X211365952Y-140294819D02*
X211270714Y-140437676D01*
X211270714Y-140437676D02*
X211175476Y-140532914D01*
X211175476Y-140532914D02*
X211080238Y-140580533D01*
X192857142Y-63289580D02*
X192809523Y-63337200D01*
X192809523Y-63337200D02*
X192666666Y-63384819D01*
X192666666Y-63384819D02*
X192571428Y-63384819D01*
X192571428Y-63384819D02*
X192428571Y-63337200D01*
X192428571Y-63337200D02*
X192333333Y-63241961D01*
X192333333Y-63241961D02*
X192285714Y-63146723D01*
X192285714Y-63146723D02*
X192238095Y-62956247D01*
X192238095Y-62956247D02*
X192238095Y-62813390D01*
X192238095Y-62813390D02*
X192285714Y-62622914D01*
X192285714Y-62622914D02*
X192333333Y-62527676D01*
X192333333Y-62527676D02*
X192428571Y-62432438D01*
X192428571Y-62432438D02*
X192571428Y-62384819D01*
X192571428Y-62384819D02*
X192666666Y-62384819D01*
X192666666Y-62384819D02*
X192809523Y-62432438D01*
X192809523Y-62432438D02*
X192857142Y-62480057D01*
X193809523Y-63384819D02*
X193238095Y-63384819D01*
X193523809Y-63384819D02*
X193523809Y-62384819D01*
X193523809Y-62384819D02*
X193428571Y-62527676D01*
X193428571Y-62527676D02*
X193333333Y-62622914D01*
X193333333Y-62622914D02*
X193238095Y-62670533D01*
X194714285Y-62384819D02*
X194238095Y-62384819D01*
X194238095Y-62384819D02*
X194190476Y-62861009D01*
X194190476Y-62861009D02*
X194238095Y-62813390D01*
X194238095Y-62813390D02*
X194333333Y-62765771D01*
X194333333Y-62765771D02*
X194571428Y-62765771D01*
X194571428Y-62765771D02*
X194666666Y-62813390D01*
X194666666Y-62813390D02*
X194714285Y-62861009D01*
X194714285Y-62861009D02*
X194761904Y-62956247D01*
X194761904Y-62956247D02*
X194761904Y-63194342D01*
X194761904Y-63194342D02*
X194714285Y-63289580D01*
X194714285Y-63289580D02*
X194666666Y-63337200D01*
X194666666Y-63337200D02*
X194571428Y-63384819D01*
X194571428Y-63384819D02*
X194333333Y-63384819D01*
X194333333Y-63384819D02*
X194238095Y-63337200D01*
X194238095Y-63337200D02*
X194190476Y-63289580D01*
X202833333Y-87789580D02*
X202785714Y-87837200D01*
X202785714Y-87837200D02*
X202642857Y-87884819D01*
X202642857Y-87884819D02*
X202547619Y-87884819D01*
X202547619Y-87884819D02*
X202404762Y-87837200D01*
X202404762Y-87837200D02*
X202309524Y-87741961D01*
X202309524Y-87741961D02*
X202261905Y-87646723D01*
X202261905Y-87646723D02*
X202214286Y-87456247D01*
X202214286Y-87456247D02*
X202214286Y-87313390D01*
X202214286Y-87313390D02*
X202261905Y-87122914D01*
X202261905Y-87122914D02*
X202309524Y-87027676D01*
X202309524Y-87027676D02*
X202404762Y-86932438D01*
X202404762Y-86932438D02*
X202547619Y-86884819D01*
X202547619Y-86884819D02*
X202642857Y-86884819D01*
X202642857Y-86884819D02*
X202785714Y-86932438D01*
X202785714Y-86932438D02*
X202833333Y-86980057D01*
X203785714Y-87884819D02*
X203214286Y-87884819D01*
X203500000Y-87884819D02*
X203500000Y-86884819D01*
X203500000Y-86884819D02*
X203404762Y-87027676D01*
X203404762Y-87027676D02*
X203309524Y-87122914D01*
X203309524Y-87122914D02*
X203214286Y-87170533D01*
X199632142Y-80724819D02*
X199298809Y-80248628D01*
X199060714Y-80724819D02*
X199060714Y-79724819D01*
X199060714Y-79724819D02*
X199441666Y-79724819D01*
X199441666Y-79724819D02*
X199536904Y-79772438D01*
X199536904Y-79772438D02*
X199584523Y-79820057D01*
X199584523Y-79820057D02*
X199632142Y-79915295D01*
X199632142Y-79915295D02*
X199632142Y-80058152D01*
X199632142Y-80058152D02*
X199584523Y-80153390D01*
X199584523Y-80153390D02*
X199536904Y-80201009D01*
X199536904Y-80201009D02*
X199441666Y-80248628D01*
X199441666Y-80248628D02*
X199060714Y-80248628D01*
X200584523Y-80724819D02*
X200013095Y-80724819D01*
X200298809Y-80724819D02*
X200298809Y-79724819D01*
X200298809Y-79724819D02*
X200203571Y-79867676D01*
X200203571Y-79867676D02*
X200108333Y-79962914D01*
X200108333Y-79962914D02*
X200013095Y-80010533D01*
X201203571Y-79724819D02*
X201298809Y-79724819D01*
X201298809Y-79724819D02*
X201394047Y-79772438D01*
X201394047Y-79772438D02*
X201441666Y-79820057D01*
X201441666Y-79820057D02*
X201489285Y-79915295D01*
X201489285Y-79915295D02*
X201536904Y-80105771D01*
X201536904Y-80105771D02*
X201536904Y-80343866D01*
X201536904Y-80343866D02*
X201489285Y-80534342D01*
X201489285Y-80534342D02*
X201441666Y-80629580D01*
X201441666Y-80629580D02*
X201394047Y-80677200D01*
X201394047Y-80677200D02*
X201298809Y-80724819D01*
X201298809Y-80724819D02*
X201203571Y-80724819D01*
X201203571Y-80724819D02*
X201108333Y-80677200D01*
X201108333Y-80677200D02*
X201060714Y-80629580D01*
X201060714Y-80629580D02*
X201013095Y-80534342D01*
X201013095Y-80534342D02*
X200965476Y-80343866D01*
X200965476Y-80343866D02*
X200965476Y-80105771D01*
X200965476Y-80105771D02*
X201013095Y-79915295D01*
X201013095Y-79915295D02*
X201060714Y-79820057D01*
X201060714Y-79820057D02*
X201108333Y-79772438D01*
X201108333Y-79772438D02*
X201203571Y-79724819D01*
X174302319Y-85833333D02*
X175016604Y-85833333D01*
X175016604Y-85833333D02*
X175159461Y-85880952D01*
X175159461Y-85880952D02*
X175254700Y-85976190D01*
X175254700Y-85976190D02*
X175302319Y-86119047D01*
X175302319Y-86119047D02*
X175302319Y-86214285D01*
X174302319Y-84928571D02*
X174302319Y-85119047D01*
X174302319Y-85119047D02*
X174349938Y-85214285D01*
X174349938Y-85214285D02*
X174397557Y-85261904D01*
X174397557Y-85261904D02*
X174540414Y-85357142D01*
X174540414Y-85357142D02*
X174730890Y-85404761D01*
X174730890Y-85404761D02*
X175111842Y-85404761D01*
X175111842Y-85404761D02*
X175207080Y-85357142D01*
X175207080Y-85357142D02*
X175254700Y-85309523D01*
X175254700Y-85309523D02*
X175302319Y-85214285D01*
X175302319Y-85214285D02*
X175302319Y-85023809D01*
X175302319Y-85023809D02*
X175254700Y-84928571D01*
X175254700Y-84928571D02*
X175207080Y-84880952D01*
X175207080Y-84880952D02*
X175111842Y-84833333D01*
X175111842Y-84833333D02*
X174873747Y-84833333D01*
X174873747Y-84833333D02*
X174778509Y-84880952D01*
X174778509Y-84880952D02*
X174730890Y-84928571D01*
X174730890Y-84928571D02*
X174683271Y-85023809D01*
X174683271Y-85023809D02*
X174683271Y-85214285D01*
X174683271Y-85214285D02*
X174730890Y-85309523D01*
X174730890Y-85309523D02*
X174778509Y-85357142D01*
X174778509Y-85357142D02*
X174873747Y-85404761D01*
X192857142Y-59589580D02*
X192809523Y-59637200D01*
X192809523Y-59637200D02*
X192666666Y-59684819D01*
X192666666Y-59684819D02*
X192571428Y-59684819D01*
X192571428Y-59684819D02*
X192428571Y-59637200D01*
X192428571Y-59637200D02*
X192333333Y-59541961D01*
X192333333Y-59541961D02*
X192285714Y-59446723D01*
X192285714Y-59446723D02*
X192238095Y-59256247D01*
X192238095Y-59256247D02*
X192238095Y-59113390D01*
X192238095Y-59113390D02*
X192285714Y-58922914D01*
X192285714Y-58922914D02*
X192333333Y-58827676D01*
X192333333Y-58827676D02*
X192428571Y-58732438D01*
X192428571Y-58732438D02*
X192571428Y-58684819D01*
X192571428Y-58684819D02*
X192666666Y-58684819D01*
X192666666Y-58684819D02*
X192809523Y-58732438D01*
X192809523Y-58732438D02*
X192857142Y-58780057D01*
X193809523Y-59684819D02*
X193238095Y-59684819D01*
X193523809Y-59684819D02*
X193523809Y-58684819D01*
X193523809Y-58684819D02*
X193428571Y-58827676D01*
X193428571Y-58827676D02*
X193333333Y-58922914D01*
X193333333Y-58922914D02*
X193238095Y-58970533D01*
X194666666Y-59018152D02*
X194666666Y-59684819D01*
X194428571Y-58637200D02*
X194190476Y-59351485D01*
X194190476Y-59351485D02*
X194809523Y-59351485D01*
X202238095Y-85504819D02*
X202238095Y-86314342D01*
X202238095Y-86314342D02*
X202285714Y-86409580D01*
X202285714Y-86409580D02*
X202333333Y-86457200D01*
X202333333Y-86457200D02*
X202428571Y-86504819D01*
X202428571Y-86504819D02*
X202619047Y-86504819D01*
X202619047Y-86504819D02*
X202714285Y-86457200D01*
X202714285Y-86457200D02*
X202761904Y-86409580D01*
X202761904Y-86409580D02*
X202809523Y-86314342D01*
X202809523Y-86314342D02*
X202809523Y-85504819D01*
X203809523Y-86504819D02*
X203238095Y-86504819D01*
X203523809Y-86504819D02*
X203523809Y-85504819D01*
X203523809Y-85504819D02*
X203428571Y-85647676D01*
X203428571Y-85647676D02*
X203333333Y-85742914D01*
X203333333Y-85742914D02*
X203238095Y-85790533D01*
D10*
X187792580Y-77688095D02*
X186983057Y-77688095D01*
X186983057Y-77688095D02*
X186887819Y-77735714D01*
X186887819Y-77735714D02*
X186840200Y-77783333D01*
X186840200Y-77783333D02*
X186792580Y-77878571D01*
X186792580Y-77878571D02*
X186792580Y-78069047D01*
X186792580Y-78069047D02*
X186840200Y-78164285D01*
X186840200Y-78164285D02*
X186887819Y-78211904D01*
X186887819Y-78211904D02*
X186983057Y-78259523D01*
X186983057Y-78259523D02*
X187792580Y-78259523D01*
X187459247Y-79164285D02*
X186792580Y-79164285D01*
X187840200Y-78926190D02*
X187125914Y-78688095D01*
X187125914Y-78688095D02*
X187125914Y-79307142D01*
D13*
X230607319Y-74809523D02*
X231321604Y-74809523D01*
X231321604Y-74809523D02*
X231464461Y-74857142D01*
X231464461Y-74857142D02*
X231559700Y-74952380D01*
X231559700Y-74952380D02*
X231607319Y-75095237D01*
X231607319Y-75095237D02*
X231607319Y-75190475D01*
X231607319Y-73809523D02*
X231607319Y-74380951D01*
X231607319Y-74095237D02*
X230607319Y-74095237D01*
X230607319Y-74095237D02*
X230750176Y-74190475D01*
X230750176Y-74190475D02*
X230845414Y-74285713D01*
X230845414Y-74285713D02*
X230893033Y-74380951D01*
X231607319Y-72857142D02*
X231607319Y-73428570D01*
X231607319Y-73142856D02*
X230607319Y-73142856D01*
X230607319Y-73142856D02*
X230750176Y-73238094D01*
X230750176Y-73238094D02*
X230845414Y-73333332D01*
X230845414Y-73333332D02*
X230893033Y-73428570D01*
X197659580Y-136642857D02*
X197707200Y-136690476D01*
X197707200Y-136690476D02*
X197754819Y-136833333D01*
X197754819Y-136833333D02*
X197754819Y-136928571D01*
X197754819Y-136928571D02*
X197707200Y-137071428D01*
X197707200Y-137071428D02*
X197611961Y-137166666D01*
X197611961Y-137166666D02*
X197516723Y-137214285D01*
X197516723Y-137214285D02*
X197326247Y-137261904D01*
X197326247Y-137261904D02*
X197183390Y-137261904D01*
X197183390Y-137261904D02*
X196992914Y-137214285D01*
X196992914Y-137214285D02*
X196897676Y-137166666D01*
X196897676Y-137166666D02*
X196802438Y-137071428D01*
X196802438Y-137071428D02*
X196754819Y-136928571D01*
X196754819Y-136928571D02*
X196754819Y-136833333D01*
X196754819Y-136833333D02*
X196802438Y-136690476D01*
X196802438Y-136690476D02*
X196850057Y-136642857D01*
X197754819Y-135690476D02*
X197754819Y-136261904D01*
X197754819Y-135976190D02*
X196754819Y-135976190D01*
X196754819Y-135976190D02*
X196897676Y-136071428D01*
X196897676Y-136071428D02*
X196992914Y-136166666D01*
X196992914Y-136166666D02*
X197040533Y-136261904D01*
X196754819Y-135071428D02*
X196754819Y-134976190D01*
X196754819Y-134976190D02*
X196802438Y-134880952D01*
X196802438Y-134880952D02*
X196850057Y-134833333D01*
X196850057Y-134833333D02*
X196945295Y-134785714D01*
X196945295Y-134785714D02*
X197135771Y-134738095D01*
X197135771Y-134738095D02*
X197373866Y-134738095D01*
X197373866Y-134738095D02*
X197564342Y-134785714D01*
X197564342Y-134785714D02*
X197659580Y-134833333D01*
X197659580Y-134833333D02*
X197707200Y-134880952D01*
X197707200Y-134880952D02*
X197754819Y-134976190D01*
X197754819Y-134976190D02*
X197754819Y-135071428D01*
X197754819Y-135071428D02*
X197707200Y-135166666D01*
X197707200Y-135166666D02*
X197659580Y-135214285D01*
X197659580Y-135214285D02*
X197564342Y-135261904D01*
X197564342Y-135261904D02*
X197373866Y-135309523D01*
X197373866Y-135309523D02*
X197135771Y-135309523D01*
X197135771Y-135309523D02*
X196945295Y-135261904D01*
X196945295Y-135261904D02*
X196850057Y-135214285D01*
X196850057Y-135214285D02*
X196802438Y-135166666D01*
X196802438Y-135166666D02*
X196754819Y-135071428D01*
X213884819Y-125591666D02*
X213408628Y-125924999D01*
X213884819Y-126163094D02*
X212884819Y-126163094D01*
X212884819Y-126163094D02*
X212884819Y-125782142D01*
X212884819Y-125782142D02*
X212932438Y-125686904D01*
X212932438Y-125686904D02*
X212980057Y-125639285D01*
X212980057Y-125639285D02*
X213075295Y-125591666D01*
X213075295Y-125591666D02*
X213218152Y-125591666D01*
X213218152Y-125591666D02*
X213313390Y-125639285D01*
X213313390Y-125639285D02*
X213361009Y-125686904D01*
X213361009Y-125686904D02*
X213408628Y-125782142D01*
X213408628Y-125782142D02*
X213408628Y-126163094D01*
X212884819Y-124686904D02*
X212884819Y-125163094D01*
X212884819Y-125163094D02*
X213361009Y-125210713D01*
X213361009Y-125210713D02*
X213313390Y-125163094D01*
X213313390Y-125163094D02*
X213265771Y-125067856D01*
X213265771Y-125067856D02*
X213265771Y-124829761D01*
X213265771Y-124829761D02*
X213313390Y-124734523D01*
X213313390Y-124734523D02*
X213361009Y-124686904D01*
X213361009Y-124686904D02*
X213456247Y-124639285D01*
X213456247Y-124639285D02*
X213694342Y-124639285D01*
X213694342Y-124639285D02*
X213789580Y-124686904D01*
X213789580Y-124686904D02*
X213837200Y-124734523D01*
X213837200Y-124734523D02*
X213884819Y-124829761D01*
X213884819Y-124829761D02*
X213884819Y-125067856D01*
X213884819Y-125067856D02*
X213837200Y-125163094D01*
X213837200Y-125163094D02*
X213789580Y-125210713D01*
X174302319Y-119309523D02*
X175016604Y-119309523D01*
X175016604Y-119309523D02*
X175159461Y-119357142D01*
X175159461Y-119357142D02*
X175254700Y-119452380D01*
X175254700Y-119452380D02*
X175302319Y-119595237D01*
X175302319Y-119595237D02*
X175302319Y-119690475D01*
X175302319Y-118309523D02*
X175302319Y-118880951D01*
X175302319Y-118595237D02*
X174302319Y-118595237D01*
X174302319Y-118595237D02*
X174445176Y-118690475D01*
X174445176Y-118690475D02*
X174540414Y-118785713D01*
X174540414Y-118785713D02*
X174588033Y-118880951D01*
X174302319Y-117690475D02*
X174302319Y-117595237D01*
X174302319Y-117595237D02*
X174349938Y-117499999D01*
X174349938Y-117499999D02*
X174397557Y-117452380D01*
X174397557Y-117452380D02*
X174492795Y-117404761D01*
X174492795Y-117404761D02*
X174683271Y-117357142D01*
X174683271Y-117357142D02*
X174921366Y-117357142D01*
X174921366Y-117357142D02*
X175111842Y-117404761D01*
X175111842Y-117404761D02*
X175207080Y-117452380D01*
X175207080Y-117452380D02*
X175254700Y-117499999D01*
X175254700Y-117499999D02*
X175302319Y-117595237D01*
X175302319Y-117595237D02*
X175302319Y-117690475D01*
X175302319Y-117690475D02*
X175254700Y-117785713D01*
X175254700Y-117785713D02*
X175207080Y-117833332D01*
X175207080Y-117833332D02*
X175111842Y-117880951D01*
X175111842Y-117880951D02*
X174921366Y-117928570D01*
X174921366Y-117928570D02*
X174683271Y-117928570D01*
X174683271Y-117928570D02*
X174492795Y-117880951D01*
X174492795Y-117880951D02*
X174397557Y-117833332D01*
X174397557Y-117833332D02*
X174349938Y-117785713D01*
X174349938Y-117785713D02*
X174302319Y-117690475D01*
X230607319Y-107809523D02*
X231321604Y-107809523D01*
X231321604Y-107809523D02*
X231464461Y-107857142D01*
X231464461Y-107857142D02*
X231559700Y-107952380D01*
X231559700Y-107952380D02*
X231607319Y-108095237D01*
X231607319Y-108095237D02*
X231607319Y-108190475D01*
X231607319Y-106809523D02*
X231607319Y-107380951D01*
X231607319Y-107095237D02*
X230607319Y-107095237D01*
X230607319Y-107095237D02*
X230750176Y-107190475D01*
X230750176Y-107190475D02*
X230845414Y-107285713D01*
X230845414Y-107285713D02*
X230893033Y-107380951D01*
X230607319Y-105904761D02*
X230607319Y-106380951D01*
X230607319Y-106380951D02*
X231083509Y-106428570D01*
X231083509Y-106428570D02*
X231035890Y-106380951D01*
X231035890Y-106380951D02*
X230988271Y-106285713D01*
X230988271Y-106285713D02*
X230988271Y-106047618D01*
X230988271Y-106047618D02*
X231035890Y-105952380D01*
X231035890Y-105952380D02*
X231083509Y-105904761D01*
X231083509Y-105904761D02*
X231178747Y-105857142D01*
X231178747Y-105857142D02*
X231416842Y-105857142D01*
X231416842Y-105857142D02*
X231512080Y-105904761D01*
X231512080Y-105904761D02*
X231559700Y-105952380D01*
X231559700Y-105952380D02*
X231607319Y-106047618D01*
X231607319Y-106047618D02*
X231607319Y-106285713D01*
X231607319Y-106285713D02*
X231559700Y-106380951D01*
X231559700Y-106380951D02*
X231512080Y-106428570D01*
X194433333Y-126374819D02*
X194100000Y-125898628D01*
X193861905Y-126374819D02*
X193861905Y-125374819D01*
X193861905Y-125374819D02*
X194242857Y-125374819D01*
X194242857Y-125374819D02*
X194338095Y-125422438D01*
X194338095Y-125422438D02*
X194385714Y-125470057D01*
X194385714Y-125470057D02*
X194433333Y-125565295D01*
X194433333Y-125565295D02*
X194433333Y-125708152D01*
X194433333Y-125708152D02*
X194385714Y-125803390D01*
X194385714Y-125803390D02*
X194338095Y-125851009D01*
X194338095Y-125851009D02*
X194242857Y-125898628D01*
X194242857Y-125898628D02*
X193861905Y-125898628D01*
X194766667Y-125374819D02*
X195433333Y-125374819D01*
X195433333Y-125374819D02*
X195004762Y-126374819D01*
X191056666Y-130234819D02*
X191056666Y-130949104D01*
X191056666Y-130949104D02*
X191009047Y-131091961D01*
X191009047Y-131091961D02*
X190913809Y-131187200D01*
X190913809Y-131187200D02*
X190770952Y-131234819D01*
X190770952Y-131234819D02*
X190675714Y-131234819D01*
X192009047Y-130234819D02*
X191532857Y-130234819D01*
X191532857Y-130234819D02*
X191485238Y-130711009D01*
X191485238Y-130711009D02*
X191532857Y-130663390D01*
X191532857Y-130663390D02*
X191628095Y-130615771D01*
X191628095Y-130615771D02*
X191866190Y-130615771D01*
X191866190Y-130615771D02*
X191961428Y-130663390D01*
X191961428Y-130663390D02*
X192009047Y-130711009D01*
X192009047Y-130711009D02*
X192056666Y-130806247D01*
X192056666Y-130806247D02*
X192056666Y-131044342D01*
X192056666Y-131044342D02*
X192009047Y-131139580D01*
X192009047Y-131139580D02*
X191961428Y-131187200D01*
X191961428Y-131187200D02*
X191866190Y-131234819D01*
X191866190Y-131234819D02*
X191628095Y-131234819D01*
X191628095Y-131234819D02*
X191532857Y-131187200D01*
X191532857Y-131187200D02*
X191485238Y-131139580D01*
X193454819Y-70583333D02*
X194169104Y-70583333D01*
X194169104Y-70583333D02*
X194311961Y-70630952D01*
X194311961Y-70630952D02*
X194407200Y-70726190D01*
X194407200Y-70726190D02*
X194454819Y-70869047D01*
X194454819Y-70869047D02*
X194454819Y-70964285D01*
X193788152Y-69678571D02*
X194454819Y-69678571D01*
X193407200Y-69916666D02*
X194121485Y-70154761D01*
X194121485Y-70154761D02*
X194121485Y-69535714D01*
X186554819Y-89711904D02*
X187364342Y-89711904D01*
X187364342Y-89711904D02*
X187459580Y-89664285D01*
X187459580Y-89664285D02*
X187507200Y-89616666D01*
X187507200Y-89616666D02*
X187554819Y-89521428D01*
X187554819Y-89521428D02*
X187554819Y-89330952D01*
X187554819Y-89330952D02*
X187507200Y-89235714D01*
X187507200Y-89235714D02*
X187459580Y-89188095D01*
X187459580Y-89188095D02*
X187364342Y-89140476D01*
X187364342Y-89140476D02*
X186554819Y-89140476D01*
X186554819Y-88759523D02*
X186554819Y-88092857D01*
X186554819Y-88092857D02*
X187554819Y-88521428D01*
X217134819Y-125591666D02*
X216658628Y-125924999D01*
X217134819Y-126163094D02*
X216134819Y-126163094D01*
X216134819Y-126163094D02*
X216134819Y-125782142D01*
X216134819Y-125782142D02*
X216182438Y-125686904D01*
X216182438Y-125686904D02*
X216230057Y-125639285D01*
X216230057Y-125639285D02*
X216325295Y-125591666D01*
X216325295Y-125591666D02*
X216468152Y-125591666D01*
X216468152Y-125591666D02*
X216563390Y-125639285D01*
X216563390Y-125639285D02*
X216611009Y-125686904D01*
X216611009Y-125686904D02*
X216658628Y-125782142D01*
X216658628Y-125782142D02*
X216658628Y-126163094D01*
X216230057Y-125210713D02*
X216182438Y-125163094D01*
X216182438Y-125163094D02*
X216134819Y-125067856D01*
X216134819Y-125067856D02*
X216134819Y-124829761D01*
X216134819Y-124829761D02*
X216182438Y-124734523D01*
X216182438Y-124734523D02*
X216230057Y-124686904D01*
X216230057Y-124686904D02*
X216325295Y-124639285D01*
X216325295Y-124639285D02*
X216420533Y-124639285D01*
X216420533Y-124639285D02*
X216563390Y-124686904D01*
X216563390Y-124686904D02*
X217134819Y-125258332D01*
X217134819Y-125258332D02*
X217134819Y-124639285D01*
X179738095Y-131454819D02*
X179738095Y-130454819D01*
X179738095Y-130931009D02*
X180309523Y-130931009D01*
X180309523Y-131454819D02*
X180309523Y-130454819D01*
X181214285Y-130788152D02*
X181214285Y-131454819D01*
X180976190Y-130407200D02*
X180738095Y-131121485D01*
X180738095Y-131121485D02*
X181357142Y-131121485D01*
X207744819Y-118288333D02*
X208459104Y-118288333D01*
X208459104Y-118288333D02*
X208601961Y-118335952D01*
X208601961Y-118335952D02*
X208697200Y-118431190D01*
X208697200Y-118431190D02*
X208744819Y-118574047D01*
X208744819Y-118574047D02*
X208744819Y-118669285D01*
X208173390Y-117669285D02*
X208125771Y-117764523D01*
X208125771Y-117764523D02*
X208078152Y-117812142D01*
X208078152Y-117812142D02*
X207982914Y-117859761D01*
X207982914Y-117859761D02*
X207935295Y-117859761D01*
X207935295Y-117859761D02*
X207840057Y-117812142D01*
X207840057Y-117812142D02*
X207792438Y-117764523D01*
X207792438Y-117764523D02*
X207744819Y-117669285D01*
X207744819Y-117669285D02*
X207744819Y-117478809D01*
X207744819Y-117478809D02*
X207792438Y-117383571D01*
X207792438Y-117383571D02*
X207840057Y-117335952D01*
X207840057Y-117335952D02*
X207935295Y-117288333D01*
X207935295Y-117288333D02*
X207982914Y-117288333D01*
X207982914Y-117288333D02*
X208078152Y-117335952D01*
X208078152Y-117335952D02*
X208125771Y-117383571D01*
X208125771Y-117383571D02*
X208173390Y-117478809D01*
X208173390Y-117478809D02*
X208173390Y-117669285D01*
X208173390Y-117669285D02*
X208221009Y-117764523D01*
X208221009Y-117764523D02*
X208268628Y-117812142D01*
X208268628Y-117812142D02*
X208363866Y-117859761D01*
X208363866Y-117859761D02*
X208554342Y-117859761D01*
X208554342Y-117859761D02*
X208649580Y-117812142D01*
X208649580Y-117812142D02*
X208697200Y-117764523D01*
X208697200Y-117764523D02*
X208744819Y-117669285D01*
X208744819Y-117669285D02*
X208744819Y-117478809D01*
X208744819Y-117478809D02*
X208697200Y-117383571D01*
X208697200Y-117383571D02*
X208649580Y-117335952D01*
X208649580Y-117335952D02*
X208554342Y-117288333D01*
X208554342Y-117288333D02*
X208363866Y-117288333D01*
X208363866Y-117288333D02*
X208268628Y-117335952D01*
X208268628Y-117335952D02*
X208221009Y-117383571D01*
X208221009Y-117383571D02*
X208173390Y-117478809D01*
X203389580Y-77766666D02*
X203437200Y-77814285D01*
X203437200Y-77814285D02*
X203484819Y-77957142D01*
X203484819Y-77957142D02*
X203484819Y-78052380D01*
X203484819Y-78052380D02*
X203437200Y-78195237D01*
X203437200Y-78195237D02*
X203341961Y-78290475D01*
X203341961Y-78290475D02*
X203246723Y-78338094D01*
X203246723Y-78338094D02*
X203056247Y-78385713D01*
X203056247Y-78385713D02*
X202913390Y-78385713D01*
X202913390Y-78385713D02*
X202722914Y-78338094D01*
X202722914Y-78338094D02*
X202627676Y-78290475D01*
X202627676Y-78290475D02*
X202532438Y-78195237D01*
X202532438Y-78195237D02*
X202484819Y-78052380D01*
X202484819Y-78052380D02*
X202484819Y-77957142D01*
X202484819Y-77957142D02*
X202532438Y-77814285D01*
X202532438Y-77814285D02*
X202580057Y-77766666D01*
X202484819Y-76909523D02*
X202484819Y-77099999D01*
X202484819Y-77099999D02*
X202532438Y-77195237D01*
X202532438Y-77195237D02*
X202580057Y-77242856D01*
X202580057Y-77242856D02*
X202722914Y-77338094D01*
X202722914Y-77338094D02*
X202913390Y-77385713D01*
X202913390Y-77385713D02*
X203294342Y-77385713D01*
X203294342Y-77385713D02*
X203389580Y-77338094D01*
X203389580Y-77338094D02*
X203437200Y-77290475D01*
X203437200Y-77290475D02*
X203484819Y-77195237D01*
X203484819Y-77195237D02*
X203484819Y-77004761D01*
X203484819Y-77004761D02*
X203437200Y-76909523D01*
X203437200Y-76909523D02*
X203389580Y-76861904D01*
X203389580Y-76861904D02*
X203294342Y-76814285D01*
X203294342Y-76814285D02*
X203056247Y-76814285D01*
X203056247Y-76814285D02*
X202961009Y-76861904D01*
X202961009Y-76861904D02*
X202913390Y-76909523D01*
X202913390Y-76909523D02*
X202865771Y-77004761D01*
X202865771Y-77004761D02*
X202865771Y-77195237D01*
X202865771Y-77195237D02*
X202913390Y-77290475D01*
X202913390Y-77290475D02*
X202961009Y-77338094D01*
X202961009Y-77338094D02*
X203056247Y-77385713D01*
X215634819Y-125591666D02*
X215158628Y-125924999D01*
X215634819Y-126163094D02*
X214634819Y-126163094D01*
X214634819Y-126163094D02*
X214634819Y-125782142D01*
X214634819Y-125782142D02*
X214682438Y-125686904D01*
X214682438Y-125686904D02*
X214730057Y-125639285D01*
X214730057Y-125639285D02*
X214825295Y-125591666D01*
X214825295Y-125591666D02*
X214968152Y-125591666D01*
X214968152Y-125591666D02*
X215063390Y-125639285D01*
X215063390Y-125639285D02*
X215111009Y-125686904D01*
X215111009Y-125686904D02*
X215158628Y-125782142D01*
X215158628Y-125782142D02*
X215158628Y-126163094D01*
X215634819Y-124639285D02*
X215634819Y-125210713D01*
X215634819Y-124924999D02*
X214634819Y-124924999D01*
X214634819Y-124924999D02*
X214777676Y-125020237D01*
X214777676Y-125020237D02*
X214872914Y-125115475D01*
X214872914Y-125115475D02*
X214920533Y-125210713D01*
X189666666Y-65404819D02*
X189666666Y-66119104D01*
X189666666Y-66119104D02*
X189619047Y-66261961D01*
X189619047Y-66261961D02*
X189523809Y-66357200D01*
X189523809Y-66357200D02*
X189380952Y-66404819D01*
X189380952Y-66404819D02*
X189285714Y-66404819D01*
X190095238Y-65500057D02*
X190142857Y-65452438D01*
X190142857Y-65452438D02*
X190238095Y-65404819D01*
X190238095Y-65404819D02*
X190476190Y-65404819D01*
X190476190Y-65404819D02*
X190571428Y-65452438D01*
X190571428Y-65452438D02*
X190619047Y-65500057D01*
X190619047Y-65500057D02*
X190666666Y-65595295D01*
X190666666Y-65595295D02*
X190666666Y-65690533D01*
X190666666Y-65690533D02*
X190619047Y-65833390D01*
X190619047Y-65833390D02*
X190047619Y-66404819D01*
X190047619Y-66404819D02*
X190666666Y-66404819D01*
X212357142Y-62929580D02*
X212309523Y-62977200D01*
X212309523Y-62977200D02*
X212166666Y-63024819D01*
X212166666Y-63024819D02*
X212071428Y-63024819D01*
X212071428Y-63024819D02*
X211928571Y-62977200D01*
X211928571Y-62977200D02*
X211833333Y-62881961D01*
X211833333Y-62881961D02*
X211785714Y-62786723D01*
X211785714Y-62786723D02*
X211738095Y-62596247D01*
X211738095Y-62596247D02*
X211738095Y-62453390D01*
X211738095Y-62453390D02*
X211785714Y-62262914D01*
X211785714Y-62262914D02*
X211833333Y-62167676D01*
X211833333Y-62167676D02*
X211928571Y-62072438D01*
X211928571Y-62072438D02*
X212071428Y-62024819D01*
X212071428Y-62024819D02*
X212166666Y-62024819D01*
X212166666Y-62024819D02*
X212309523Y-62072438D01*
X212309523Y-62072438D02*
X212357142Y-62120057D01*
X213309523Y-63024819D02*
X212738095Y-63024819D01*
X213023809Y-63024819D02*
X213023809Y-62024819D01*
X213023809Y-62024819D02*
X212928571Y-62167676D01*
X212928571Y-62167676D02*
X212833333Y-62262914D01*
X212833333Y-62262914D02*
X212738095Y-62310533D01*
X213642857Y-62024819D02*
X214309523Y-62024819D01*
X214309523Y-62024819D02*
X213880952Y-63024819D01*
X209384819Y-125591666D02*
X208908628Y-125924999D01*
X209384819Y-126163094D02*
X208384819Y-126163094D01*
X208384819Y-126163094D02*
X208384819Y-125782142D01*
X208384819Y-125782142D02*
X208432438Y-125686904D01*
X208432438Y-125686904D02*
X208480057Y-125639285D01*
X208480057Y-125639285D02*
X208575295Y-125591666D01*
X208575295Y-125591666D02*
X208718152Y-125591666D01*
X208718152Y-125591666D02*
X208813390Y-125639285D01*
X208813390Y-125639285D02*
X208861009Y-125686904D01*
X208861009Y-125686904D02*
X208908628Y-125782142D01*
X208908628Y-125782142D02*
X208908628Y-126163094D01*
X208718152Y-124734523D02*
X209384819Y-124734523D01*
X208337200Y-124972618D02*
X209051485Y-125210713D01*
X209051485Y-125210713D02*
X209051485Y-124591666D01*
X194433333Y-123864819D02*
X194100000Y-123388628D01*
X193861905Y-123864819D02*
X193861905Y-122864819D01*
X193861905Y-122864819D02*
X194242857Y-122864819D01*
X194242857Y-122864819D02*
X194338095Y-122912438D01*
X194338095Y-122912438D02*
X194385714Y-122960057D01*
X194385714Y-122960057D02*
X194433333Y-123055295D01*
X194433333Y-123055295D02*
X194433333Y-123198152D01*
X194433333Y-123198152D02*
X194385714Y-123293390D01*
X194385714Y-123293390D02*
X194338095Y-123341009D01*
X194338095Y-123341009D02*
X194242857Y-123388628D01*
X194242857Y-123388628D02*
X193861905Y-123388628D01*
X195004762Y-123293390D02*
X194909524Y-123245771D01*
X194909524Y-123245771D02*
X194861905Y-123198152D01*
X194861905Y-123198152D02*
X194814286Y-123102914D01*
X194814286Y-123102914D02*
X194814286Y-123055295D01*
X194814286Y-123055295D02*
X194861905Y-122960057D01*
X194861905Y-122960057D02*
X194909524Y-122912438D01*
X194909524Y-122912438D02*
X195004762Y-122864819D01*
X195004762Y-122864819D02*
X195195238Y-122864819D01*
X195195238Y-122864819D02*
X195290476Y-122912438D01*
X195290476Y-122912438D02*
X195338095Y-122960057D01*
X195338095Y-122960057D02*
X195385714Y-123055295D01*
X195385714Y-123055295D02*
X195385714Y-123102914D01*
X195385714Y-123102914D02*
X195338095Y-123198152D01*
X195338095Y-123198152D02*
X195290476Y-123245771D01*
X195290476Y-123245771D02*
X195195238Y-123293390D01*
X195195238Y-123293390D02*
X195004762Y-123293390D01*
X195004762Y-123293390D02*
X194909524Y-123341009D01*
X194909524Y-123341009D02*
X194861905Y-123388628D01*
X194861905Y-123388628D02*
X194814286Y-123483866D01*
X194814286Y-123483866D02*
X194814286Y-123674342D01*
X194814286Y-123674342D02*
X194861905Y-123769580D01*
X194861905Y-123769580D02*
X194909524Y-123817200D01*
X194909524Y-123817200D02*
X195004762Y-123864819D01*
X195004762Y-123864819D02*
X195195238Y-123864819D01*
X195195238Y-123864819D02*
X195290476Y-123817200D01*
X195290476Y-123817200D02*
X195338095Y-123769580D01*
X195338095Y-123769580D02*
X195385714Y-123674342D01*
X195385714Y-123674342D02*
X195385714Y-123483866D01*
X195385714Y-123483866D02*
X195338095Y-123388628D01*
X195338095Y-123388628D02*
X195290476Y-123341009D01*
X195290476Y-123341009D02*
X195195238Y-123293390D01*
X192524819Y-66363094D02*
X191524819Y-66363094D01*
X191524819Y-66363094D02*
X191524819Y-66124999D01*
X191524819Y-66124999D02*
X191572438Y-65982142D01*
X191572438Y-65982142D02*
X191667676Y-65886904D01*
X191667676Y-65886904D02*
X191762914Y-65839285D01*
X191762914Y-65839285D02*
X191953390Y-65791666D01*
X191953390Y-65791666D02*
X192096247Y-65791666D01*
X192096247Y-65791666D02*
X192286723Y-65839285D01*
X192286723Y-65839285D02*
X192381961Y-65886904D01*
X192381961Y-65886904D02*
X192477200Y-65982142D01*
X192477200Y-65982142D02*
X192524819Y-66124999D01*
X192524819Y-66124999D02*
X192524819Y-66363094D01*
X191858152Y-64934523D02*
X192524819Y-64934523D01*
X191477200Y-65172618D02*
X192191485Y-65410713D01*
X192191485Y-65410713D02*
X192191485Y-64791666D01*
X215738095Y-63554819D02*
X215738095Y-64364342D01*
X215738095Y-64364342D02*
X215785714Y-64459580D01*
X215785714Y-64459580D02*
X215833333Y-64507200D01*
X215833333Y-64507200D02*
X215928571Y-64554819D01*
X215928571Y-64554819D02*
X216119047Y-64554819D01*
X216119047Y-64554819D02*
X216214285Y-64507200D01*
X216214285Y-64507200D02*
X216261904Y-64459580D01*
X216261904Y-64459580D02*
X216309523Y-64364342D01*
X216309523Y-64364342D02*
X216309523Y-63554819D01*
X216690476Y-63554819D02*
X217309523Y-63554819D01*
X217309523Y-63554819D02*
X216976190Y-63935771D01*
X216976190Y-63935771D02*
X217119047Y-63935771D01*
X217119047Y-63935771D02*
X217214285Y-63983390D01*
X217214285Y-63983390D02*
X217261904Y-64031009D01*
X217261904Y-64031009D02*
X217309523Y-64126247D01*
X217309523Y-64126247D02*
X217309523Y-64364342D01*
X217309523Y-64364342D02*
X217261904Y-64459580D01*
X217261904Y-64459580D02*
X217214285Y-64507200D01*
X217214285Y-64507200D02*
X217119047Y-64554819D01*
X217119047Y-64554819D02*
X216833333Y-64554819D01*
X216833333Y-64554819D02*
X216738095Y-64507200D01*
X216738095Y-64507200D02*
X216690476Y-64459580D01*
D10*
X190015238Y-122937342D02*
X190110476Y-122984961D01*
X190110476Y-122984961D02*
X190205714Y-123080200D01*
X190205714Y-123080200D02*
X190348571Y-123223057D01*
X190348571Y-123223057D02*
X190443809Y-123270676D01*
X190443809Y-123270676D02*
X190539047Y-123270676D01*
X190491428Y-123032580D02*
X190586666Y-123080200D01*
X190586666Y-123080200D02*
X190681904Y-123175438D01*
X190681904Y-123175438D02*
X190729523Y-123365914D01*
X190729523Y-123365914D02*
X190729523Y-123699247D01*
X190729523Y-123699247D02*
X190681904Y-123889723D01*
X190681904Y-123889723D02*
X190586666Y-123984961D01*
X190586666Y-123984961D02*
X190491428Y-124032580D01*
X190491428Y-124032580D02*
X190300952Y-124032580D01*
X190300952Y-124032580D02*
X190205714Y-123984961D01*
X190205714Y-123984961D02*
X190110476Y-123889723D01*
X190110476Y-123889723D02*
X190062857Y-123699247D01*
X190062857Y-123699247D02*
X190062857Y-123365914D01*
X190062857Y-123365914D02*
X190110476Y-123175438D01*
X190110476Y-123175438D02*
X190205714Y-123080200D01*
X190205714Y-123080200D02*
X190300952Y-123032580D01*
X190300952Y-123032580D02*
X190491428Y-123032580D01*
X189110476Y-123032580D02*
X189681904Y-123032580D01*
X189396190Y-123032580D02*
X189396190Y-124032580D01*
X189396190Y-124032580D02*
X189491428Y-123889723D01*
X189491428Y-123889723D02*
X189586666Y-123794485D01*
X189586666Y-123794485D02*
X189681904Y-123746866D01*
D13*
X215539580Y-67916666D02*
X215587200Y-67964285D01*
X215587200Y-67964285D02*
X215634819Y-68107142D01*
X215634819Y-68107142D02*
X215634819Y-68202380D01*
X215634819Y-68202380D02*
X215587200Y-68345237D01*
X215587200Y-68345237D02*
X215491961Y-68440475D01*
X215491961Y-68440475D02*
X215396723Y-68488094D01*
X215396723Y-68488094D02*
X215206247Y-68535713D01*
X215206247Y-68535713D02*
X215063390Y-68535713D01*
X215063390Y-68535713D02*
X214872914Y-68488094D01*
X214872914Y-68488094D02*
X214777676Y-68440475D01*
X214777676Y-68440475D02*
X214682438Y-68345237D01*
X214682438Y-68345237D02*
X214634819Y-68202380D01*
X214634819Y-68202380D02*
X214634819Y-68107142D01*
X214634819Y-68107142D02*
X214682438Y-67964285D01*
X214682438Y-67964285D02*
X214730057Y-67916666D01*
X214634819Y-67011904D02*
X214634819Y-67488094D01*
X214634819Y-67488094D02*
X215111009Y-67535713D01*
X215111009Y-67535713D02*
X215063390Y-67488094D01*
X215063390Y-67488094D02*
X215015771Y-67392856D01*
X215015771Y-67392856D02*
X215015771Y-67154761D01*
X215015771Y-67154761D02*
X215063390Y-67059523D01*
X215063390Y-67059523D02*
X215111009Y-67011904D01*
X215111009Y-67011904D02*
X215206247Y-66964285D01*
X215206247Y-66964285D02*
X215444342Y-66964285D01*
X215444342Y-66964285D02*
X215539580Y-67011904D01*
X215539580Y-67011904D02*
X215587200Y-67059523D01*
X215587200Y-67059523D02*
X215634819Y-67154761D01*
X215634819Y-67154761D02*
X215634819Y-67392856D01*
X215634819Y-67392856D02*
X215587200Y-67488094D01*
X215587200Y-67488094D02*
X215539580Y-67535713D01*
X211295057Y-122042738D02*
X211247438Y-122137976D01*
X211247438Y-122137976D02*
X211152200Y-122233214D01*
X211152200Y-122233214D02*
X211009342Y-122376071D01*
X211009342Y-122376071D02*
X210961723Y-122471309D01*
X210961723Y-122471309D02*
X210961723Y-122566547D01*
X211199819Y-122518928D02*
X211152200Y-122614166D01*
X211152200Y-122614166D02*
X211056961Y-122709404D01*
X211056961Y-122709404D02*
X210866485Y-122757023D01*
X210866485Y-122757023D02*
X210533152Y-122757023D01*
X210533152Y-122757023D02*
X210342676Y-122709404D01*
X210342676Y-122709404D02*
X210247438Y-122614166D01*
X210247438Y-122614166D02*
X210199819Y-122518928D01*
X210199819Y-122518928D02*
X210199819Y-122328452D01*
X210199819Y-122328452D02*
X210247438Y-122233214D01*
X210247438Y-122233214D02*
X210342676Y-122137976D01*
X210342676Y-122137976D02*
X210533152Y-122090357D01*
X210533152Y-122090357D02*
X210866485Y-122090357D01*
X210866485Y-122090357D02*
X211056961Y-122137976D01*
X211056961Y-122137976D02*
X211152200Y-122233214D01*
X211152200Y-122233214D02*
X211199819Y-122328452D01*
X211199819Y-122328452D02*
X211199819Y-122518928D01*
X210199819Y-121757023D02*
X210199819Y-121137976D01*
X210199819Y-121137976D02*
X210580771Y-121471309D01*
X210580771Y-121471309D02*
X210580771Y-121328452D01*
X210580771Y-121328452D02*
X210628390Y-121233214D01*
X210628390Y-121233214D02*
X210676009Y-121185595D01*
X210676009Y-121185595D02*
X210771247Y-121137976D01*
X210771247Y-121137976D02*
X211009342Y-121137976D01*
X211009342Y-121137976D02*
X211104580Y-121185595D01*
X211104580Y-121185595D02*
X211152200Y-121233214D01*
X211152200Y-121233214D02*
X211199819Y-121328452D01*
X211199819Y-121328452D02*
X211199819Y-121614166D01*
X211199819Y-121614166D02*
X211152200Y-121709404D01*
X211152200Y-121709404D02*
X211104580Y-121757023D01*
D14*
%TO.C,C4*%
X197965580Y-71260000D02*
X197684420Y-71260000D01*
X197965580Y-70240000D02*
X197684420Y-70240000D01*
%TO.C,U8*%
X194925000Y-48550000D02*
X194925000Y-51000000D01*
X194925000Y-48550000D02*
X197375000Y-48550000D01*
X195200000Y-48800000D02*
X210800000Y-48800000D01*
X195200000Y-69500000D02*
X195200000Y-48800000D01*
X210800000Y-48800000D02*
X210800000Y-69500000D01*
X210800000Y-69500000D02*
X195200000Y-69500000D01*
X195025000Y-55750000D02*
X194689000Y-55990000D01*
X194689000Y-55510000D01*
X195025000Y-55750000D01*
G36*
X195025000Y-55750000D02*
G01*
X194689000Y-55990000D01*
X194689000Y-55510000D01*
X195025000Y-55750000D01*
G37*
%TO.C,J12*%
X184920000Y-62330000D02*
X184920000Y-54650000D01*
X187580000Y-54650000D02*
X184920000Y-54650000D01*
X187580000Y-62330000D02*
X184920000Y-62330000D01*
X187580000Y-62330000D02*
X187580000Y-54650000D01*
X187580000Y-63600000D02*
X187580000Y-64930000D01*
X187580000Y-64930000D02*
X186250000Y-64930000D01*
%TO.C,Q2*%
X188430000Y-123345000D02*
X188430000Y-123160000D01*
X188430000Y-126265000D02*
X188430000Y-126450000D01*
X191700000Y-123160000D02*
X188430000Y-123160000D01*
X191700000Y-123345000D02*
X191700000Y-123160000D01*
X191700000Y-126265000D02*
X191700000Y-126450000D01*
X191700000Y-126450000D02*
X188430000Y-126450000D01*
X192020000Y-126665000D02*
X192020000Y-126265000D01*
X192420000Y-126265000D01*
X192020000Y-126665000D01*
G36*
X192020000Y-126665000D02*
G01*
X192020000Y-126265000D01*
X192420000Y-126265000D01*
X192020000Y-126665000D01*
G37*
%TO.C,J13*%
X222112500Y-79630000D02*
X222112500Y-82450000D01*
X222112500Y-83050000D02*
X222112500Y-90370000D01*
X224232500Y-79630000D02*
X224232500Y-80870000D01*
X224232500Y-84630000D02*
X224232500Y-87207000D01*
X224232500Y-88293000D02*
X224232500Y-90370000D01*
X224589500Y-86545000D02*
X224546500Y-86502000D01*
X224828500Y-86306000D02*
X224785500Y-86263000D01*
X225532500Y-79630000D02*
X225532500Y-80870000D01*
X225532500Y-84630000D02*
X225532500Y-85938000D01*
X225532500Y-89562000D02*
X225532500Y-90370000D01*
X226532500Y-79630000D02*
X226532500Y-80870000D01*
X226532500Y-84630000D02*
X226532500Y-85938000D01*
X226532500Y-89562000D02*
X226532500Y-90370000D01*
X227279500Y-89237000D02*
X227236500Y-89194000D01*
X227518500Y-88997000D02*
X227475500Y-88954000D01*
X230152500Y-79630000D02*
X222112500Y-79630000D01*
X230152500Y-79630000D02*
X230152500Y-90370000D01*
X230152500Y-90370000D02*
X222112500Y-90370000D01*
X224152500Y-83304000D02*
G75*
G02*
X224152639Y-82195528I1879990J554000D01*
G01*
X225478500Y-80870000D02*
G75*
G02*
X226586972Y-80870139I554000J-1879990D01*
G01*
X226586500Y-84630000D02*
G75*
G02*
X225478028Y-84629861I-554000J1880000D01*
G01*
X227912500Y-82196000D02*
G75*
G02*
X227912361Y-83304472I-1880000J-554000D01*
G01*
X227992500Y-87750000D02*
G75*
G02*
X224072500Y-87750000I-1960000J0D01*
G01*
X224072500Y-87750000D02*
G75*
G02*
X227992500Y-87750000I1960000J0D01*
G01*
X222112500Y-82750000D02*
X221502500Y-83190000D01*
X221502500Y-82310000D01*
X222112500Y-82750000D01*
G36*
X222112500Y-82750000D02*
G01*
X221502500Y-83190000D01*
X221502500Y-82310000D01*
X222112500Y-82750000D01*
G37*
D15*
%TO.C,G\u002A\u002A\u002A*%
G36*
X119843600Y-49635382D02*
G01*
X119997891Y-49708414D01*
X120087065Y-49815852D01*
X120122182Y-49995903D01*
X120097146Y-50225171D01*
X120016363Y-50476245D01*
X119962732Y-50589543D01*
X119893682Y-50734700D01*
X119850329Y-50851994D01*
X119843010Y-50890134D01*
X119821028Y-50975196D01*
X119766226Y-51112868D01*
X119718221Y-51216174D01*
X119649634Y-51366477D01*
X119604695Y-51485795D01*
X119594541Y-51531585D01*
X119572013Y-51610255D01*
X119514842Y-51740861D01*
X119468837Y-51831778D01*
X119397640Y-51978111D01*
X119352267Y-52095561D01*
X119343590Y-52137594D01*
X119323142Y-52219685D01*
X119270518Y-52356049D01*
X119222183Y-52463634D01*
X119141873Y-52639179D01*
X119071190Y-52804606D01*
X119043452Y-52875454D01*
X118956346Y-53017012D01*
X118835483Y-53097309D01*
X118707815Y-53100799D01*
X118676576Y-53087064D01*
X118619685Y-53002789D01*
X118593687Y-52846557D01*
X118598211Y-52641609D01*
X118632888Y-52411183D01*
X118690700Y-52197870D01*
X118751554Y-51995596D01*
X118801510Y-51791798D01*
X118821154Y-51685940D01*
X118851977Y-51529311D01*
X118903669Y-51319891D01*
X118965685Y-51100035D01*
X118973058Y-51075816D01*
X119029825Y-50877466D01*
X119072104Y-50703994D01*
X119092349Y-50587067D01*
X119093097Y-50572033D01*
X119110089Y-50459198D01*
X119153779Y-50290603D01*
X119213237Y-50099957D01*
X119277532Y-49920971D01*
X119335735Y-49787355D01*
X119361069Y-49745570D01*
X119491844Y-49650732D01*
X119663803Y-49615079D01*
X119843600Y-49635382D01*
G37*
G36*
X123852988Y-50124336D02*
G01*
X123905602Y-50217532D01*
X123896265Y-50351867D01*
X123825421Y-50508885D01*
X123724829Y-50638356D01*
X123601128Y-50782925D01*
X123466133Y-50961169D01*
X123334260Y-51151283D01*
X123219922Y-51331461D01*
X123137535Y-51479898D01*
X123101512Y-51574789D01*
X123100986Y-51582065D01*
X123076194Y-51671741D01*
X123015515Y-51794806D01*
X123005597Y-51811444D01*
X122924646Y-51973499D01*
X122834623Y-52199175D01*
X122747181Y-52454063D01*
X122673975Y-52703755D01*
X122626658Y-52913842D01*
X122621821Y-52944576D01*
X122589770Y-53123021D01*
X122542194Y-53338402D01*
X122508846Y-53470612D01*
X122477625Y-53646500D01*
X122453392Y-53902350D01*
X122436142Y-54218170D01*
X122425869Y-54573968D01*
X122422566Y-54949754D01*
X122426227Y-55325536D01*
X122436846Y-55681323D01*
X122454417Y-55997122D01*
X122478933Y-56252944D01*
X122509756Y-56426430D01*
X122560036Y-56634093D01*
X122603125Y-56843417D01*
X122621344Y-56952466D01*
X122654193Y-57117575D01*
X122708945Y-57325493D01*
X122776818Y-57549163D01*
X122849028Y-57761525D01*
X122916793Y-57935520D01*
X122971328Y-58044088D01*
X122979096Y-58054635D01*
X123033819Y-58152909D01*
X123084966Y-58292585D01*
X123089383Y-58308289D01*
X123152509Y-58458257D01*
X123271389Y-58664774D01*
X123434554Y-58910089D01*
X123630538Y-59176449D01*
X123739744Y-59315063D01*
X123863421Y-59508351D01*
X123899430Y-59669895D01*
X123846531Y-59793870D01*
X123842446Y-59798067D01*
X123750808Y-59851296D01*
X123640349Y-59835411D01*
X123499395Y-59745409D01*
X123316272Y-59576289D01*
X123309898Y-59569832D01*
X122980146Y-59218103D01*
X122707685Y-58892036D01*
X122499794Y-58601250D01*
X122363751Y-58355362D01*
X122333920Y-58280132D01*
X122265579Y-58124879D01*
X122195238Y-58004537D01*
X122126790Y-57873005D01*
X122044157Y-57661768D01*
X121953358Y-57389262D01*
X121860410Y-57073920D01*
X121771332Y-56734178D01*
X121745454Y-56626825D01*
X121701485Y-56382176D01*
X121664214Y-56063087D01*
X121634621Y-55694122D01*
X121613688Y-55299845D01*
X121602397Y-54904823D01*
X121601729Y-54533619D01*
X121612666Y-54210799D01*
X121636188Y-53960928D01*
X121638371Y-53946549D01*
X121724404Y-53444426D01*
X121809885Y-53038907D01*
X121895662Y-52726409D01*
X121977578Y-52513732D01*
X122044841Y-52360468D01*
X122089022Y-52237288D01*
X122099201Y-52188091D01*
X122124024Y-52100276D01*
X122184416Y-51978818D01*
X122193141Y-51964207D01*
X122268974Y-51822066D01*
X122322301Y-51691675D01*
X122323212Y-51688665D01*
X122379511Y-51555651D01*
X122483138Y-51383552D01*
X122640402Y-51163296D01*
X122857612Y-50885813D01*
X123017633Y-50690138D01*
X123218167Y-50453523D01*
X123373147Y-50286690D01*
X123496028Y-50178444D01*
X123600264Y-50117590D01*
X123699310Y-50092932D01*
X123737981Y-50090730D01*
X123852988Y-50124336D01*
G37*
G36*
X130988103Y-50173806D02*
G01*
X131191729Y-50339763D01*
X131439898Y-50591328D01*
X131660837Y-50842095D01*
X131870697Y-51116205D01*
X132078358Y-51435872D01*
X132270759Y-51776455D01*
X132434838Y-52113314D01*
X132557533Y-52421806D01*
X132621816Y-52655017D01*
X132663800Y-52840956D01*
X132723936Y-53066153D01*
X132775715Y-53238650D01*
X132807864Y-53346398D01*
X132832876Y-53453784D01*
X132851666Y-53575003D01*
X132865152Y-53724253D01*
X132874249Y-53915728D01*
X132879873Y-54163624D01*
X132882940Y-54482136D01*
X132884366Y-54885462D01*
X132884440Y-54923472D01*
X132886958Y-56276134D01*
X132723111Y-56877318D01*
X132654882Y-57114880D01*
X132589196Y-57321065D01*
X132533395Y-57474202D01*
X132494821Y-57552620D01*
X132493957Y-57553649D01*
X132439148Y-57649249D01*
X132385173Y-57792011D01*
X132374372Y-57829192D01*
X132312036Y-58002312D01*
X132230785Y-58162667D01*
X132219745Y-58179882D01*
X132151646Y-58304887D01*
X132119449Y-58409232D01*
X132119068Y-58417057D01*
X132087474Y-58485093D01*
X132001813Y-58611213D01*
X131875383Y-58779328D01*
X131721483Y-58973350D01*
X131553411Y-59177191D01*
X131384465Y-59374764D01*
X131227945Y-59549980D01*
X131097148Y-59686751D01*
X131005373Y-59768990D01*
X130996388Y-59775241D01*
X130850317Y-59842387D01*
X130718554Y-59855244D01*
X130649178Y-59824787D01*
X130613362Y-59762280D01*
X130615797Y-59674981D01*
X130661447Y-59553359D01*
X130755274Y-59387884D01*
X130902243Y-59169025D01*
X131107317Y-58887254D01*
X131205805Y-58756016D01*
X131270948Y-58650104D01*
X131357095Y-58484060D01*
X131447475Y-58290552D01*
X131463026Y-58255030D01*
X131554363Y-58046439D01*
X131644167Y-57845342D01*
X131714547Y-57691750D01*
X131720609Y-57678896D01*
X131790177Y-57493047D01*
X131840742Y-57290046D01*
X131846641Y-57253057D01*
X131876559Y-57089965D01*
X131925494Y-56876488D01*
X131983018Y-56658012D01*
X131984762Y-56651874D01*
X132017510Y-56529228D01*
X132042833Y-56409554D01*
X132061654Y-56277991D01*
X132074896Y-56119676D01*
X132083482Y-55919748D01*
X132088335Y-55663345D01*
X132090379Y-55335604D01*
X132090563Y-54948521D01*
X132089593Y-54541027D01*
X132086896Y-54219138D01*
X132081528Y-53968265D01*
X132072547Y-53773817D01*
X132059012Y-53621207D01*
X132039980Y-53495844D01*
X132014508Y-53383139D01*
X131982180Y-53270217D01*
X131921794Y-53051397D01*
X131870720Y-52828983D01*
X131842717Y-52669034D01*
X131802895Y-52481660D01*
X131740835Y-52305896D01*
X131714082Y-52252857D01*
X131651058Y-52129701D01*
X131618837Y-52037885D01*
X131617752Y-52027014D01*
X131595563Y-51951252D01*
X131538744Y-51822712D01*
X131492505Y-51731581D01*
X131421231Y-51584478D01*
X131375866Y-51465451D01*
X131367259Y-51422442D01*
X131334968Y-51323745D01*
X131304635Y-51282376D01*
X131241983Y-51206915D01*
X131145588Y-51081184D01*
X131066667Y-50974078D01*
X130943864Y-50808328D01*
X130820891Y-50648274D01*
X130760920Y-50573289D01*
X130646113Y-50416815D01*
X130599661Y-50300640D01*
X130613233Y-50200575D01*
X130624312Y-50176628D01*
X130706413Y-50093534D01*
X130827004Y-50092162D01*
X130988103Y-50173806D01*
G37*
G36*
X126678155Y-53080910D02*
G01*
X126846113Y-53112721D01*
X126926459Y-53130913D01*
X127162567Y-53199539D01*
X127335228Y-53279463D01*
X127395380Y-53325459D01*
X127553580Y-53447755D01*
X127698563Y-53474865D01*
X127841978Y-53408666D01*
X127853851Y-53399299D01*
X128164479Y-53207525D01*
X128502399Y-53109218D01*
X128855111Y-53106912D01*
X129069567Y-53152940D01*
X129264049Y-53257968D01*
X129436323Y-53437763D01*
X129562144Y-53666917D01*
X129563587Y-53670686D01*
X129589547Y-53861143D01*
X129546050Y-54071803D01*
X129447817Y-54279201D01*
X129309571Y-54459872D01*
X129146036Y-54590351D01*
X128971933Y-54647174D01*
X128950423Y-54647929D01*
X128814428Y-54628515D01*
X128699180Y-54555830D01*
X128617024Y-54470841D01*
X128515733Y-54338728D01*
X128471791Y-54219467D01*
X128482194Y-54081180D01*
X128543937Y-53891992D01*
X128558851Y-53853671D01*
X128616225Y-53687808D01*
X128623825Y-53592876D01*
X128579689Y-53551750D01*
X128523546Y-53545760D01*
X128382567Y-53591624D01*
X128232486Y-53717264D01*
X128086402Y-53904748D01*
X127957416Y-54136144D01*
X127858628Y-54393521D01*
X127832303Y-54491956D01*
X127654055Y-55207157D01*
X127478539Y-55850296D01*
X127395957Y-56200972D01*
X127362167Y-56491447D01*
X127377883Y-56711602D01*
X127410953Y-56804945D01*
X127509162Y-56910509D01*
X127660788Y-57000616D01*
X127819557Y-57049732D01*
X127859863Y-57052663D01*
X128055535Y-57007821D01*
X128267271Y-56883318D01*
X128478396Y-56694191D01*
X128672231Y-56455476D01*
X128832099Y-56182208D01*
X128837202Y-56171510D01*
X128955249Y-55977790D01*
X129081386Y-55882038D01*
X129219069Y-55882130D01*
X129271216Y-55904730D01*
X129348675Y-55998777D01*
X129350138Y-56157492D01*
X129275581Y-56381098D01*
X129204903Y-56526628D01*
X129096826Y-56708858D01*
X128970248Y-56887834D01*
X128842033Y-57043282D01*
X128729044Y-57154931D01*
X128648144Y-57202506D01*
X128642314Y-57202959D01*
X128573279Y-57234314D01*
X128487210Y-57302572D01*
X128338759Y-57388867D01*
X128117328Y-57450197D01*
X127847986Y-57482215D01*
X127555805Y-57480574D01*
X127490971Y-57475267D01*
X127291403Y-57449553D01*
X127153816Y-57409647D01*
X127039996Y-57340979D01*
X126958863Y-57272403D01*
X126834814Y-57173847D01*
X126728992Y-57112654D01*
X126691234Y-57102762D01*
X126607358Y-57134044D01*
X126489097Y-57212935D01*
X126437151Y-57255734D01*
X126203131Y-57409093D01*
X125929403Y-57487412D01*
X125603721Y-57492928D01*
X125343064Y-57455604D01*
X125111006Y-57365471D01*
X124940773Y-57203996D01*
X124837540Y-56982483D01*
X124806481Y-56712238D01*
X124852772Y-56404563D01*
X124856183Y-56392076D01*
X124930403Y-56235833D01*
X125046108Y-56091895D01*
X125066563Y-56073557D01*
X125185013Y-55988805D01*
X125296846Y-55959354D01*
X125448307Y-55970206D01*
X125636846Y-56009964D01*
X125754283Y-56080430D01*
X125829405Y-56204481D01*
X125861553Y-56298591D01*
X125889853Y-56430309D01*
X125876033Y-56543589D01*
X125813495Y-56687847D01*
X125808188Y-56698294D01*
X125736801Y-56874702D01*
X125731567Y-56989078D01*
X125791406Y-57035574D01*
X125868688Y-57025440D01*
X126038673Y-56925315D01*
X126203294Y-56734637D01*
X126357234Y-56463049D01*
X126495175Y-56120195D01*
X126611799Y-55715717D01*
X126627222Y-55649902D01*
X126681754Y-55417181D01*
X126742692Y-55167083D01*
X126778906Y-55023669D01*
X126862770Y-54695860D01*
X126923017Y-54449407D01*
X126961852Y-54268852D01*
X126981478Y-54138737D01*
X126984102Y-54043607D01*
X126971928Y-53968002D01*
X126947160Y-53896467D01*
X126941613Y-53883017D01*
X126818693Y-53692236D01*
X126653142Y-53582383D01*
X126459284Y-53551947D01*
X126251444Y-53599420D01*
X126043947Y-53723294D01*
X125851117Y-53922060D01*
X125793044Y-54003981D01*
X125695043Y-54162153D01*
X125618760Y-54301031D01*
X125585665Y-54376988D01*
X125490987Y-54542636D01*
X125339263Y-54654400D01*
X125161593Y-54690103D01*
X125147987Y-54689086D01*
X125033556Y-54668087D01*
X124989823Y-54615417D01*
X124986225Y-54522683D01*
X125048479Y-54234332D01*
X125209245Y-53944587D01*
X125361803Y-53761279D01*
X125564976Y-53550455D01*
X125724640Y-53400827D01*
X125862161Y-53297229D01*
X125998908Y-53224499D01*
X126156245Y-53167473D01*
X126228919Y-53145895D01*
X126412751Y-53096569D01*
X126548098Y-53075217D01*
X126678155Y-53080910D01*
G37*
G36*
X116638989Y-53113542D02*
G01*
X116863389Y-53177667D01*
X117034081Y-53269117D01*
X117057856Y-53289398D01*
X117212780Y-53382218D01*
X117370986Y-53375626D01*
X117467841Y-53321909D01*
X117630655Y-53252486D01*
X117798515Y-53265745D01*
X117947288Y-53348510D01*
X118052846Y-53487607D01*
X118091125Y-53662203D01*
X118075586Y-53802114D01*
X118035288Y-53990331D01*
X117991014Y-54146672D01*
X117927439Y-54368761D01*
X117870720Y-54605662D01*
X117844277Y-54741857D01*
X117802839Y-54945959D01*
X117749902Y-55148052D01*
X117722639Y-55232411D01*
X117667133Y-55418932D01*
X117620867Y-55627579D01*
X117611584Y-55683299D01*
X117571526Y-55883602D01*
X117513212Y-56102213D01*
X117488690Y-56178724D01*
X117429135Y-56377371D01*
X117380426Y-56582373D01*
X117367318Y-56654660D01*
X117331779Y-56829539D01*
X117277217Y-57041739D01*
X117236621Y-57177910D01*
X117173074Y-57396417D01*
X117115036Y-57628742D01*
X117089367Y-57750378D01*
X116962979Y-58183502D01*
X116758464Y-58553957D01*
X116476049Y-58861526D01*
X116115965Y-59105989D01*
X115678437Y-59287129D01*
X115410848Y-59358360D01*
X115261162Y-59378760D01*
X115048048Y-59391932D01*
X114801997Y-59397778D01*
X114553498Y-59396197D01*
X114333043Y-59387090D01*
X114171121Y-59370358D01*
X114133334Y-59362529D01*
X113908548Y-59278235D01*
X113712267Y-59159041D01*
X113577585Y-59025719D01*
X113564606Y-59005557D01*
X113498944Y-58852781D01*
X113488378Y-58688541D01*
X113531508Y-58478224D01*
X113541861Y-58442769D01*
X113598279Y-58306163D01*
X113687208Y-58217274D01*
X113821557Y-58148890D01*
X114039674Y-58073525D01*
X114207033Y-58065162D01*
X114349464Y-58126196D01*
X114443301Y-58206599D01*
X114541012Y-58321126D01*
X114571395Y-58416918D01*
X114560435Y-58494666D01*
X114530857Y-58652394D01*
X114517340Y-58781065D01*
X114509073Y-58931361D01*
X114836001Y-58927964D01*
X115184473Y-58886428D01*
X115478066Y-58764988D01*
X115730756Y-58556530D01*
X115850446Y-58411630D01*
X115968102Y-58229502D01*
X116067002Y-58036344D01*
X116114174Y-57910644D01*
X116168151Y-57732389D01*
X116225023Y-57566245D01*
X116241441Y-57523463D01*
X116279500Y-57355353D01*
X116244884Y-57246958D01*
X116150346Y-57205627D01*
X116008635Y-57238714D01*
X115880768Y-57315527D01*
X115778242Y-57377987D01*
X115663761Y-57410358D01*
X115502909Y-57419719D01*
X115383999Y-57417677D01*
X115009314Y-57363094D01*
X114687802Y-57223716D01*
X114419824Y-56999713D01*
X114369953Y-56941404D01*
X114251957Y-56791474D01*
X114168445Y-56666336D01*
X114113528Y-56543714D01*
X114081315Y-56401333D01*
X114065916Y-56216919D01*
X114062476Y-56025698D01*
X114942652Y-56025698D01*
X114960010Y-56353312D01*
X115030788Y-56582613D01*
X115161634Y-56796853D01*
X115319973Y-56916189D01*
X115511958Y-56942685D01*
X115743742Y-56878402D01*
X115814643Y-56845402D01*
X115963186Y-56752131D01*
X116137645Y-56615251D01*
X116282935Y-56481227D01*
X116393622Y-56364811D01*
X116473810Y-56262369D01*
X116535507Y-56149378D01*
X116590725Y-56001320D01*
X116651473Y-55793673D01*
X116690588Y-55648941D01*
X116763348Y-55376919D01*
X116838186Y-55097445D01*
X116904814Y-54848928D01*
X116941689Y-54711609D01*
X117003492Y-54461394D01*
X117030572Y-54278961D01*
X117021733Y-54137673D01*
X116975785Y-54010893D01*
X116904980Y-53892098D01*
X116724153Y-53688394D01*
X116519055Y-53577380D01*
X116297970Y-53556982D01*
X116069181Y-53625128D01*
X115840973Y-53779746D01*
X115621627Y-54018764D01*
X115468278Y-54251542D01*
X115393027Y-54392848D01*
X115344988Y-54503896D01*
X115335700Y-54542358D01*
X115316125Y-54622217D01*
X115266761Y-54752366D01*
X115240046Y-54813498D01*
X115170308Y-54996158D01*
X115117543Y-55185040D01*
X115109871Y-55224063D01*
X115073940Y-55398809D01*
X115024556Y-55600457D01*
X115005131Y-55671519D01*
X114942652Y-56025698D01*
X114062476Y-56025698D01*
X114061441Y-55968196D01*
X114061560Y-55775148D01*
X114063589Y-55073768D01*
X114251187Y-54723077D01*
X114410690Y-54428717D01*
X114539995Y-54204776D01*
X114654301Y-54032350D01*
X114768811Y-53892535D01*
X114898724Y-53766430D01*
X115059241Y-53635129D01*
X115229406Y-53506577D01*
X115422639Y-53368922D01*
X115585755Y-53272817D01*
X115752503Y-53203810D01*
X115956632Y-53147450D01*
X116179501Y-53099747D01*
X116398491Y-53084862D01*
X116638989Y-53113542D01*
G37*
D14*
%TO.C,D2*%
X204150000Y-116490000D02*
X204150000Y-122000000D01*
X207450000Y-116490000D02*
X204150000Y-116490000D01*
X207450000Y-116490000D02*
X207450000Y-122000000D01*
%TO.C,BZ1*%
X206900000Y-75900000D02*
X209750000Y-75900000D01*
X206900000Y-88100000D02*
X206900000Y-75900000D01*
X209750000Y-88100000D02*
X206900000Y-88100000D01*
X209750000Y-88100000D02*
X209750000Y-89750000D01*
X216250000Y-75900000D02*
X219100000Y-75900000D01*
X219100000Y-75900000D02*
X219100000Y-88100000D01*
X219100000Y-88100000D02*
X216250000Y-88100000D01*
%TO.C,R14*%
X193737258Y-55677500D02*
X193262742Y-55677500D01*
X193737258Y-56722500D02*
X193262742Y-56722500D01*
%TO.C,C18*%
X212859420Y-64960000D02*
X213140580Y-64960000D01*
X212859420Y-65980000D02*
X213140580Y-65980000D01*
%TO.C,C2*%
X208490000Y-125284420D02*
X208490000Y-125565580D01*
X209510000Y-125284420D02*
X209510000Y-125565580D01*
%TO.C,L1*%
X193490000Y-70337221D02*
X193490000Y-70662779D01*
X194510000Y-70337221D02*
X194510000Y-70662779D01*
%TO.C,C3*%
X209990000Y-125284420D02*
X209990000Y-125565580D01*
X211010000Y-125284420D02*
X211010000Y-125565580D01*
%TO.C,J7*%
X175847500Y-91130000D02*
X183887500Y-91130000D01*
X175847500Y-101870000D02*
X175847500Y-91130000D01*
X175847500Y-101870000D02*
X183887500Y-101870000D01*
X178481500Y-92503000D02*
X178524500Y-92546000D01*
X178720500Y-92263000D02*
X178763500Y-92306000D01*
X179467500Y-91938000D02*
X179467500Y-91130000D01*
X179467500Y-96870000D02*
X179467500Y-95562000D01*
X179467500Y-101870000D02*
X179467500Y-100630000D01*
X180467500Y-91938000D02*
X180467500Y-91130000D01*
X180467500Y-96870000D02*
X180467500Y-95562000D01*
X180467500Y-101870000D02*
X180467500Y-100630000D01*
X181171500Y-95194000D02*
X181214500Y-95237000D01*
X181410500Y-94955000D02*
X181453500Y-94998000D01*
X181767500Y-93207000D02*
X181767500Y-91130000D01*
X181767500Y-96870000D02*
X181767500Y-94293000D01*
X181767500Y-101870000D02*
X181767500Y-100630000D01*
X183887500Y-98450000D02*
X183887500Y-91130000D01*
X183887500Y-101870000D02*
X183887500Y-99050000D01*
X178087500Y-99304000D02*
G75*
G02*
X178087639Y-98195528I1880000J554000D01*
G01*
X179413500Y-96870000D02*
G75*
G02*
X180521972Y-96870139I554000J-1880000D01*
G01*
X180521500Y-100630000D02*
G75*
G02*
X179413028Y-100629861I-554000J1879990D01*
G01*
X181847500Y-98196000D02*
G75*
G02*
X181847361Y-99304472I-1879990J-554000D01*
G01*
X181927500Y-93750000D02*
G75*
G02*
X178007500Y-93750000I-1960000J0D01*
G01*
X178007500Y-93750000D02*
G75*
G02*
X181927500Y-93750000I1960000J0D01*
G01*
X184497500Y-99190000D02*
X183887500Y-98750000D01*
X184497500Y-98310000D01*
X184497500Y-99190000D01*
G36*
X184497500Y-99190000D02*
G01*
X183887500Y-98750000D01*
X184497500Y-98310000D01*
X184497500Y-99190000D01*
G37*
%TO.C,R9*%
X194837258Y-118947500D02*
X194362742Y-118947500D01*
X194837258Y-119992500D02*
X194362742Y-119992500D01*
%TO.C,J9*%
X175847500Y-102130000D02*
X183887500Y-102130000D01*
X175847500Y-112870000D02*
X175847500Y-102130000D01*
X175847500Y-112870000D02*
X183887500Y-112870000D01*
X178481500Y-103503000D02*
X178524500Y-103546000D01*
X178720500Y-103263000D02*
X178763500Y-103306000D01*
X179467500Y-102938000D02*
X179467500Y-102130000D01*
X179467500Y-107870000D02*
X179467500Y-106562000D01*
X179467500Y-112870000D02*
X179467500Y-111630000D01*
X180467500Y-102938000D02*
X180467500Y-102130000D01*
X180467500Y-107870000D02*
X180467500Y-106562000D01*
X180467500Y-112870000D02*
X180467500Y-111630000D01*
X181171500Y-106194000D02*
X181214500Y-106237000D01*
X181410500Y-105955000D02*
X181453500Y-105998000D01*
X181767500Y-104207000D02*
X181767500Y-102130000D01*
X181767500Y-107870000D02*
X181767500Y-105293000D01*
X181767500Y-112870000D02*
X181767500Y-111630000D01*
X183887500Y-109450000D02*
X183887500Y-102130000D01*
X183887500Y-112870000D02*
X183887500Y-110050000D01*
X178087500Y-110304000D02*
G75*
G02*
X178087639Y-109195528I1880000J554000D01*
G01*
X179413500Y-107870000D02*
G75*
G02*
X180521972Y-107870139I554000J-1880000D01*
G01*
X180521500Y-111630000D02*
G75*
G02*
X179413028Y-111629861I-554000J1879990D01*
G01*
X181847500Y-109196000D02*
G75*
G02*
X181847361Y-110304472I-1879990J-554000D01*
G01*
X181927500Y-104750000D02*
G75*
G02*
X178007500Y-104750000I-1960000J0D01*
G01*
X178007500Y-104750000D02*
G75*
G02*
X181927500Y-104750000I1960000J0D01*
G01*
X184497500Y-110190000D02*
X183887500Y-109750000D01*
X184497500Y-109310000D01*
X184497500Y-110190000D01*
G36*
X184497500Y-110190000D02*
G01*
X183887500Y-109750000D01*
X184497500Y-109310000D01*
X184497500Y-110190000D01*
G37*
%TO.C,R16*%
X212762742Y-61947500D02*
X213237258Y-61947500D01*
X212762742Y-62992500D02*
X213237258Y-62992500D01*
%TO.C,D1*%
X199475000Y-80935000D02*
X201935000Y-80935000D01*
X201935000Y-79465000D02*
X199475000Y-79465000D01*
X201935000Y-80935000D02*
X201935000Y-79465000D01*
%TO.C,J16*%
X222112500Y-112630000D02*
X222112500Y-115450000D01*
X222112500Y-116050000D02*
X222112500Y-123370000D01*
X224232500Y-112630000D02*
X224232500Y-113870000D01*
X224232500Y-117630000D02*
X224232500Y-120207000D01*
X224232500Y-121293000D02*
X224232500Y-123370000D01*
X224589500Y-119545000D02*
X224546500Y-119502000D01*
X224828500Y-119306000D02*
X224785500Y-119263000D01*
X225532500Y-112630000D02*
X225532500Y-113870000D01*
X225532500Y-117630000D02*
X225532500Y-118938000D01*
X225532500Y-122562000D02*
X225532500Y-123370000D01*
X226532500Y-112630000D02*
X226532500Y-113870000D01*
X226532500Y-117630000D02*
X226532500Y-118938000D01*
X226532500Y-122562000D02*
X226532500Y-123370000D01*
X227279500Y-122237000D02*
X227236500Y-122194000D01*
X227518500Y-121997000D02*
X227475500Y-121954000D01*
X230152500Y-112630000D02*
X222112500Y-112630000D01*
X230152500Y-112630000D02*
X230152500Y-123370000D01*
X230152500Y-123370000D02*
X222112500Y-123370000D01*
X224152500Y-116304000D02*
G75*
G02*
X224152639Y-115195528I1879990J554000D01*
G01*
X225478500Y-113870000D02*
G75*
G02*
X226586972Y-113870139I554000J-1879990D01*
G01*
X226586500Y-117630000D02*
G75*
G02*
X225478028Y-117629861I-554000J1880000D01*
G01*
X227912500Y-115196000D02*
G75*
G02*
X227912361Y-116304472I-1880000J-554000D01*
G01*
X227992500Y-120750000D02*
G75*
G02*
X224072500Y-120750000I-1960000J0D01*
G01*
X224072500Y-120750000D02*
G75*
G02*
X227992500Y-120750000I1960000J0D01*
G01*
X222112500Y-115750000D02*
X221502500Y-116190000D01*
X221502500Y-115310000D01*
X222112500Y-115750000D01*
G36*
X222112500Y-115750000D02*
G01*
X221502500Y-116190000D01*
X221502500Y-115310000D01*
X222112500Y-115750000D01*
G37*
%TO.C,C9*%
X200009420Y-82690000D02*
X200290580Y-82690000D01*
X200009420Y-83710000D02*
X200290580Y-83710000D01*
%TO.C,C7*%
X199290000Y-77459420D02*
X199290000Y-77740580D01*
X200310000Y-77459420D02*
X200310000Y-77740580D01*
%TO.C,R11*%
X210077500Y-122062258D02*
X210077500Y-121587742D01*
X211122500Y-122062258D02*
X211122500Y-121587742D01*
%TO.C,R6*%
X194837258Y-125977500D02*
X194362742Y-125977500D01*
X194837258Y-127022500D02*
X194362742Y-127022500D01*
%TO.C,SW1*%
X213270000Y-54770000D02*
X219730000Y-54770000D01*
X213270000Y-54800000D02*
X213270000Y-54770000D01*
X213270000Y-56700000D02*
X213270000Y-59300000D01*
X213270000Y-61230000D02*
X213270000Y-61200000D01*
X213270000Y-61230000D02*
X219730000Y-61230000D01*
X219730000Y-54770000D02*
X219730000Y-54800000D01*
X219730000Y-56700000D02*
X219730000Y-59300000D01*
X219730000Y-61230000D02*
X219730000Y-61200000D01*
%TO.C,U5*%
X194667500Y-127940000D02*
X193867500Y-127940000D01*
X194667500Y-127940000D02*
X195467500Y-127940000D01*
X194667500Y-131060000D02*
X193867500Y-131060000D01*
X194667500Y-131060000D02*
X195467500Y-131060000D01*
X193367500Y-127990000D02*
X193127500Y-127660000D01*
X193607500Y-127660000D01*
X193367500Y-127990000D01*
G36*
X193367500Y-127990000D02*
G01*
X193127500Y-127660000D01*
X193607500Y-127660000D01*
X193367500Y-127990000D01*
G37*
%TO.C,C16*%
X193640580Y-58990000D02*
X193359420Y-58990000D01*
X193640580Y-60010000D02*
X193359420Y-60010000D01*
%TO.C,U2*%
X201900000Y-72900000D02*
X201900000Y-72900000D01*
X201900000Y-73400000D02*
X201900000Y-73100000D01*
X201900000Y-74600000D02*
X201900000Y-74600000D01*
X201900000Y-75100000D02*
X201900000Y-74600000D01*
X202400000Y-72900000D02*
X202100000Y-72900000D01*
X202400000Y-75100000D02*
X201900000Y-75100000D01*
X203600000Y-72900000D02*
X204100000Y-72900000D01*
X203600000Y-75100000D02*
X203600000Y-75100000D01*
X204100000Y-72900000D02*
X204100000Y-73400000D01*
X204100000Y-73400000D02*
X204100000Y-73400000D01*
X204100000Y-74600000D02*
X204100000Y-75100000D01*
X204100000Y-75100000D02*
X203600000Y-75100000D01*
X201900000Y-72900000D02*
X201540000Y-72900000D01*
X201900000Y-72540000D01*
X201900000Y-72900000D01*
G36*
X201900000Y-72900000D02*
G01*
X201540000Y-72900000D01*
X201900000Y-72540000D01*
X201900000Y-72900000D01*
G37*
%TO.C,R18*%
X228477500Y-63912258D02*
X228477500Y-63437742D01*
X229522500Y-63912258D02*
X229522500Y-63437742D01*
%TO.C,R13*%
X189257500Y-130037258D02*
X189257500Y-129562742D01*
X190302500Y-130037258D02*
X190302500Y-129562742D01*
%TO.C,J3*%
X175847500Y-69130000D02*
X183887500Y-69130000D01*
X175847500Y-79870000D02*
X175847500Y-69130000D01*
X175847500Y-79870000D02*
X183887500Y-79870000D01*
X178481500Y-70503000D02*
X178524500Y-70546000D01*
X178720500Y-70263000D02*
X178763500Y-70306000D01*
X179467500Y-69938000D02*
X179467500Y-69130000D01*
X179467500Y-74870000D02*
X179467500Y-73562000D01*
X179467500Y-79870000D02*
X179467500Y-78630000D01*
X180467500Y-69938000D02*
X180467500Y-69130000D01*
X180467500Y-74870000D02*
X180467500Y-73562000D01*
X180467500Y-79870000D02*
X180467500Y-78630000D01*
X181171500Y-73194000D02*
X181214500Y-73237000D01*
X181410500Y-72955000D02*
X181453500Y-72998000D01*
X181767500Y-71207000D02*
X181767500Y-69130000D01*
X181767500Y-74870000D02*
X181767500Y-72293000D01*
X181767500Y-79870000D02*
X181767500Y-78630000D01*
X183887500Y-76450000D02*
X183887500Y-69130000D01*
X183887500Y-79870000D02*
X183887500Y-77050000D01*
X178087500Y-77304000D02*
G75*
G02*
X178087639Y-76195528I1880000J554000D01*
G01*
X179413500Y-74870000D02*
G75*
G02*
X180521972Y-74870139I554000J-1880000D01*
G01*
X180521500Y-78630000D02*
G75*
G02*
X179413028Y-78629861I-554000J1879990D01*
G01*
X181847500Y-76196000D02*
G75*
G02*
X181847361Y-77304472I-1879990J-554000D01*
G01*
X181927500Y-71750000D02*
G75*
G02*
X178007500Y-71750000I-1960000J0D01*
G01*
X178007500Y-71750000D02*
G75*
G02*
X181927500Y-71750000I1960000J0D01*
G01*
X184497500Y-77190000D02*
X183887500Y-76750000D01*
X184497500Y-76310000D01*
X184497500Y-77190000D01*
G36*
X184497500Y-77190000D02*
G01*
X183887500Y-76750000D01*
X184497500Y-76310000D01*
X184497500Y-77190000D01*
G37*
%TO.C,U6*%
X196790000Y-121440000D02*
X198050000Y-121440000D01*
X196790000Y-125200000D02*
X196790000Y-121440000D01*
X203610000Y-121440000D02*
X202350000Y-121440000D01*
X203610000Y-125200000D02*
X203610000Y-121440000D01*
X196890000Y-126480000D02*
X196560000Y-126720000D01*
X196560000Y-126240000D01*
X196890000Y-126480000D01*
G36*
X196890000Y-126480000D02*
G01*
X196560000Y-126720000D01*
X196560000Y-126240000D01*
X196890000Y-126480000D01*
G37*
%TO.C,R12*%
X191257500Y-130037258D02*
X191257500Y-129562742D01*
X192302500Y-130037258D02*
X192302500Y-129562742D01*
%TO.C,R3*%
X205477500Y-125187742D02*
X205477500Y-125662258D01*
X206522500Y-125187742D02*
X206522500Y-125662258D01*
%TO.C,J14*%
X222112500Y-90630000D02*
X222112500Y-93450000D01*
X222112500Y-94050000D02*
X222112500Y-101370000D01*
X224232500Y-90630000D02*
X224232500Y-91870000D01*
X224232500Y-95630000D02*
X224232500Y-98207000D01*
X224232500Y-99293000D02*
X224232500Y-101370000D01*
X224589500Y-97545000D02*
X224546500Y-97502000D01*
X224828500Y-97306000D02*
X224785500Y-97263000D01*
X225532500Y-90630000D02*
X225532500Y-91870000D01*
X225532500Y-95630000D02*
X225532500Y-96938000D01*
X225532500Y-100562000D02*
X225532500Y-101370000D01*
X226532500Y-90630000D02*
X226532500Y-91870000D01*
X226532500Y-95630000D02*
X226532500Y-96938000D01*
X226532500Y-100562000D02*
X226532500Y-101370000D01*
X227279500Y-100237000D02*
X227236500Y-100194000D01*
X227518500Y-99997000D02*
X227475500Y-99954000D01*
X230152500Y-90630000D02*
X222112500Y-90630000D01*
X230152500Y-90630000D02*
X230152500Y-101370000D01*
X230152500Y-101370000D02*
X222112500Y-101370000D01*
X224152500Y-94304000D02*
G75*
G02*
X224152639Y-93195528I1879990J554000D01*
G01*
X225478500Y-91870000D02*
G75*
G02*
X226586972Y-91870139I554000J-1879990D01*
G01*
X226586500Y-95630000D02*
G75*
G02*
X225478028Y-95629861I-554000J1880000D01*
G01*
X227912500Y-93196000D02*
G75*
G02*
X227912361Y-94304472I-1880000J-554000D01*
G01*
X227992500Y-98750000D02*
G75*
G02*
X224072500Y-98750000I-1960000J0D01*
G01*
X224072500Y-98750000D02*
G75*
G02*
X227992500Y-98750000I1960000J0D01*
G01*
X222112500Y-93750000D02*
X221502500Y-94190000D01*
X221502500Y-93310000D01*
X222112500Y-93750000D01*
G36*
X222112500Y-93750000D02*
G01*
X221502500Y-94190000D01*
X221502500Y-93310000D01*
X222112500Y-93750000D01*
G37*
%TO.C,R19*%
X193262742Y-62477500D02*
X193737258Y-62477500D01*
X193262742Y-63522500D02*
X193737258Y-63522500D01*
%TO.C,C8*%
X198490000Y-74540580D02*
X198490000Y-74259420D01*
X199510000Y-74540580D02*
X199510000Y-74259420D01*
%TO.C,J1*%
X204875000Y-127840000D02*
X204875000Y-137660000D01*
X206105000Y-127840000D02*
X204875000Y-127840000D01*
X212075000Y-127840000D02*
X208405000Y-127840000D01*
X215575000Y-139480000D02*
X214715000Y-139480000D01*
X217055000Y-127840000D02*
X214375000Y-127840000D01*
X217055000Y-128560000D02*
X217055000Y-127840000D01*
X217055000Y-132260000D02*
X217055000Y-129960000D01*
X217055000Y-138110000D02*
X217055000Y-133660000D01*
%TO.C,C15*%
X193640580Y-60990000D02*
X193359420Y-60990000D01*
X193640580Y-62010000D02*
X193359420Y-62010000D01*
%TO.C,C1*%
X203140580Y-85490000D02*
X202859420Y-85490000D01*
X203140580Y-86510000D02*
X202859420Y-86510000D01*
%TO.C,R10*%
X200037742Y-81177500D02*
X200512258Y-81177500D01*
X200037742Y-82222500D02*
X200512258Y-82222500D01*
%TO.C,J6*%
X175847500Y-80130000D02*
X183887500Y-80130000D01*
X175847500Y-90870000D02*
X175847500Y-80130000D01*
X175847500Y-90870000D02*
X183887500Y-90870000D01*
X178481500Y-81503000D02*
X178524500Y-81546000D01*
X178720500Y-81263000D02*
X178763500Y-81306000D01*
X179467500Y-80938000D02*
X179467500Y-80130000D01*
X179467500Y-85870000D02*
X179467500Y-84562000D01*
X179467500Y-90870000D02*
X179467500Y-89630000D01*
X180467500Y-80938000D02*
X180467500Y-80130000D01*
X180467500Y-85870000D02*
X180467500Y-84562000D01*
X180467500Y-90870000D02*
X180467500Y-89630000D01*
X181171500Y-84194000D02*
X181214500Y-84237000D01*
X181410500Y-83955000D02*
X181453500Y-83998000D01*
X181767500Y-82207000D02*
X181767500Y-80130000D01*
X181767500Y-85870000D02*
X181767500Y-83293000D01*
X181767500Y-90870000D02*
X181767500Y-89630000D01*
X183887500Y-87450000D02*
X183887500Y-80130000D01*
X183887500Y-90870000D02*
X183887500Y-88050000D01*
X178087500Y-88304000D02*
G75*
G02*
X178087639Y-87195528I1880000J554000D01*
G01*
X179413500Y-85870000D02*
G75*
G02*
X180521972Y-85870139I554000J-1880000D01*
G01*
X180521500Y-89630000D02*
G75*
G02*
X179413028Y-89629861I-554000J1879990D01*
G01*
X181847500Y-87196000D02*
G75*
G02*
X181847361Y-88304472I-1879990J-554000D01*
G01*
X181927500Y-82750000D02*
G75*
G02*
X178007500Y-82750000I-1960000J0D01*
G01*
X178007500Y-82750000D02*
G75*
G02*
X181927500Y-82750000I1960000J0D01*
G01*
X184497500Y-88190000D02*
X183887500Y-87750000D01*
X184497500Y-87310000D01*
X184497500Y-88190000D01*
G36*
X184497500Y-88190000D02*
G01*
X183887500Y-87750000D01*
X184497500Y-87310000D01*
X184497500Y-88190000D01*
G37*
%TO.C,C14*%
X193640580Y-57290000D02*
X193359420Y-57290000D01*
X193640580Y-58310000D02*
X193359420Y-58310000D01*
%TO.C,U1*%
X201390000Y-89610000D02*
X201390000Y-89435000D01*
X202065000Y-86890000D02*
X201690000Y-86890000D01*
X202065000Y-89610000D02*
X201390000Y-89610000D01*
X203935000Y-86890000D02*
X204610000Y-86890000D01*
X203935000Y-89610000D02*
X204610000Y-89610000D01*
X204610000Y-86890000D02*
X204610000Y-87065000D01*
X204610000Y-89610000D02*
X204610000Y-89435000D01*
X201390000Y-86890000D02*
X201250000Y-86700000D01*
X201530000Y-86700000D01*
X201390000Y-86890000D01*
G36*
X201390000Y-86890000D02*
G01*
X201250000Y-86700000D01*
X201530000Y-86700000D01*
X201390000Y-86890000D01*
G37*
D10*
%TO.C,U4*%
X187950000Y-83450000D02*
X187950000Y-73750000D01*
X198050000Y-73750000D02*
X198050000Y-83450000D01*
D14*
%TO.C,J11*%
X222112500Y-68630000D02*
X222112500Y-71450000D01*
X222112500Y-72050000D02*
X222112500Y-79370000D01*
X224232500Y-68630000D02*
X224232500Y-69870000D01*
X224232500Y-73630000D02*
X224232500Y-76207000D01*
X224232500Y-77293000D02*
X224232500Y-79370000D01*
X224589500Y-75545000D02*
X224546500Y-75502000D01*
X224828500Y-75306000D02*
X224785500Y-75263000D01*
X225532500Y-68630000D02*
X225532500Y-69870000D01*
X225532500Y-73630000D02*
X225532500Y-74938000D01*
X225532500Y-78562000D02*
X225532500Y-79370000D01*
X226532500Y-68630000D02*
X226532500Y-69870000D01*
X226532500Y-73630000D02*
X226532500Y-74938000D01*
X226532500Y-78562000D02*
X226532500Y-79370000D01*
X227279500Y-78237000D02*
X227236500Y-78194000D01*
X227518500Y-77997000D02*
X227475500Y-77954000D01*
X230152500Y-68630000D02*
X222112500Y-68630000D01*
X230152500Y-68630000D02*
X230152500Y-79370000D01*
X230152500Y-79370000D02*
X222112500Y-79370000D01*
X224152500Y-72304000D02*
G75*
G02*
X224152639Y-71195528I1879990J554000D01*
G01*
X225478500Y-69870000D02*
G75*
G02*
X226586972Y-69870139I554000J-1879990D01*
G01*
X226586500Y-73630000D02*
G75*
G02*
X225478028Y-73629861I-554000J1880000D01*
G01*
X227912500Y-71196000D02*
G75*
G02*
X227912361Y-72304472I-1880000J-554000D01*
G01*
X227992500Y-76750000D02*
G75*
G02*
X224072500Y-76750000I-1960000J0D01*
G01*
X224072500Y-76750000D02*
G75*
G02*
X227992500Y-76750000I1960000J0D01*
G01*
X222112500Y-71750000D02*
X221502500Y-72190000D01*
X221502500Y-71310000D01*
X222112500Y-71750000D01*
G36*
X222112500Y-71750000D02*
G01*
X221502500Y-72190000D01*
X221502500Y-71310000D01*
X222112500Y-71750000D01*
G37*
%TO.C,C10*%
X198240000Y-133240000D02*
X199940000Y-133240000D01*
X198240000Y-137695563D02*
X198240000Y-133240000D01*
X199002500Y-139312500D02*
X199627500Y-139312500D01*
X199304437Y-138760000D02*
X198240000Y-137695563D01*
X199304437Y-138760000D02*
X199940000Y-138760000D01*
X199315000Y-139625000D02*
X199315000Y-139000000D01*
X202695563Y-138760000D02*
X202060000Y-138760000D01*
X202695563Y-138760000D02*
X203760000Y-137695563D01*
X203760000Y-133240000D02*
X202060000Y-133240000D01*
X203760000Y-137695563D02*
X203760000Y-133240000D01*
%TO.C,R5*%
X211477500Y-125187742D02*
X211477500Y-125662258D01*
X212522500Y-125187742D02*
X212522500Y-125662258D01*
%TO.C,J10*%
X175847500Y-113130000D02*
X183887500Y-113130000D01*
X175847500Y-123870000D02*
X175847500Y-113130000D01*
X175847500Y-123870000D02*
X183887500Y-123870000D01*
X178481500Y-114503000D02*
X178524500Y-114546000D01*
X178720500Y-114263000D02*
X178763500Y-114306000D01*
X179467500Y-113938000D02*
X179467500Y-113130000D01*
X179467500Y-118870000D02*
X179467500Y-117562000D01*
X179467500Y-123870000D02*
X179467500Y-122630000D01*
X180467500Y-113938000D02*
X180467500Y-113130000D01*
X180467500Y-118870000D02*
X180467500Y-117562000D01*
X180467500Y-123870000D02*
X180467500Y-122630000D01*
X181171500Y-117194000D02*
X181214500Y-117237000D01*
X181410500Y-116955000D02*
X181453500Y-116998000D01*
X181767500Y-115207000D02*
X181767500Y-113130000D01*
X181767500Y-118870000D02*
X181767500Y-116293000D01*
X181767500Y-123870000D02*
X181767500Y-122630000D01*
X183887500Y-120450000D02*
X183887500Y-113130000D01*
X183887500Y-123870000D02*
X183887500Y-121050000D01*
X178087500Y-121304000D02*
G75*
G02*
X178087639Y-120195528I1880000J554000D01*
G01*
X179413500Y-118870000D02*
G75*
G02*
X180521972Y-118870139I554000J-1880000D01*
G01*
X180521500Y-122630000D02*
G75*
G02*
X179413028Y-122629861I-554000J1879990D01*
G01*
X181847500Y-120196000D02*
G75*
G02*
X181847361Y-121304472I-1879990J-554000D01*
G01*
X181927500Y-115750000D02*
G75*
G02*
X178007500Y-115750000I-1960000J0D01*
G01*
X178007500Y-115750000D02*
G75*
G02*
X181927500Y-115750000I1960000J0D01*
G01*
X184497500Y-121190000D02*
X183887500Y-120750000D01*
X184497500Y-120310000D01*
X184497500Y-121190000D01*
G36*
X184497500Y-121190000D02*
G01*
X183887500Y-120750000D01*
X184497500Y-120310000D01*
X184497500Y-121190000D01*
G37*
%TO.C,J15*%
X222112500Y-101630000D02*
X222112500Y-104450000D01*
X222112500Y-105050000D02*
X222112500Y-112370000D01*
X224232500Y-101630000D02*
X224232500Y-102870000D01*
X224232500Y-106630000D02*
X224232500Y-109207000D01*
X224232500Y-110293000D02*
X224232500Y-112370000D01*
X224589500Y-108545000D02*
X224546500Y-108502000D01*
X224828500Y-108306000D02*
X224785500Y-108263000D01*
X225532500Y-101630000D02*
X225532500Y-102870000D01*
X225532500Y-106630000D02*
X225532500Y-107938000D01*
X225532500Y-111562000D02*
X225532500Y-112370000D01*
X226532500Y-101630000D02*
X226532500Y-102870000D01*
X226532500Y-106630000D02*
X226532500Y-107938000D01*
X226532500Y-111562000D02*
X226532500Y-112370000D01*
X227279500Y-111237000D02*
X227236500Y-111194000D01*
X227518500Y-110997000D02*
X227475500Y-110954000D01*
X230152500Y-101630000D02*
X222112500Y-101630000D01*
X230152500Y-101630000D02*
X230152500Y-112370000D01*
X230152500Y-112370000D02*
X222112500Y-112370000D01*
X224152500Y-105304000D02*
G75*
G02*
X224152639Y-104195528I1879990J554000D01*
G01*
X225478500Y-102870000D02*
G75*
G02*
X226586972Y-102870139I554000J-1879990D01*
G01*
X226586500Y-106630000D02*
G75*
G02*
X225478028Y-106629861I-554000J1880000D01*
G01*
X227912500Y-104196000D02*
G75*
G02*
X227912361Y-105304472I-1880000J-554000D01*
G01*
X227992500Y-109750000D02*
G75*
G02*
X224072500Y-109750000I-1960000J0D01*
G01*
X224072500Y-109750000D02*
G75*
G02*
X227992500Y-109750000I1960000J0D01*
G01*
X222112500Y-104750000D02*
X221502500Y-105190000D01*
X221502500Y-104310000D01*
X222112500Y-104750000D01*
G36*
X222112500Y-104750000D02*
G01*
X221502500Y-105190000D01*
X221502500Y-104310000D01*
X222112500Y-104750000D01*
G37*
%TO.C,R7*%
X194837258Y-123967500D02*
X194362742Y-123967500D01*
X194837258Y-125012500D02*
X194362742Y-125012500D01*
%TO.C,J5*%
X186690000Y-134645000D02*
X186690000Y-136425000D01*
X188590000Y-131725000D02*
X187790000Y-131725000D01*
X196090000Y-134645000D02*
X196090000Y-136425000D01*
%TO.C,J4*%
X189000000Y-68950000D02*
X189200000Y-68750000D01*
X189000000Y-69550000D02*
X188500000Y-69550000D01*
X189000000Y-69550000D02*
X189000000Y-68950000D01*
X189000000Y-70950000D02*
X188500000Y-70950000D01*
X189000000Y-71750000D02*
X189000000Y-70950000D01*
X189200000Y-71750000D02*
X189000000Y-71750000D01*
X191800000Y-68750000D02*
X192000000Y-68750000D01*
X192000000Y-68750000D02*
X192000000Y-69550000D01*
X192000000Y-70950000D02*
X192000000Y-71750000D01*
X192000000Y-71750000D02*
X191800000Y-71750000D01*
%TO.C,U7*%
X188190000Y-87040000D02*
X189450000Y-87040000D01*
X188190000Y-90800000D02*
X188190000Y-87040000D01*
X195010000Y-87040000D02*
X193750000Y-87040000D01*
X195010000Y-90800000D02*
X195010000Y-87040000D01*
X188290000Y-92080000D02*
X187960000Y-92320000D01*
X187960000Y-91840000D01*
X188290000Y-92080000D01*
G36*
X188290000Y-92080000D02*
G01*
X187960000Y-92320000D01*
X187960000Y-91840000D01*
X188290000Y-92080000D01*
G37*
%TO.C,R2*%
X214727500Y-125187742D02*
X214727500Y-125662258D01*
X215772500Y-125187742D02*
X215772500Y-125662258D01*
%TO.C,J8*%
X209290000Y-119285000D02*
X209290000Y-117955000D01*
X210620000Y-119285000D02*
X209290000Y-119285000D01*
X211890000Y-116625000D02*
X214490000Y-116625000D01*
X211890000Y-119285000D02*
X211890000Y-116625000D01*
X211890000Y-119285000D02*
X214490000Y-119285000D01*
X214490000Y-119285000D02*
X214490000Y-116625000D01*
%TO.C,C6*%
X201090000Y-77459420D02*
X201090000Y-77740580D01*
X202110000Y-77459420D02*
X202110000Y-77740580D01*
%TO.C,R17*%
X226977500Y-63912258D02*
X226977500Y-63437742D01*
X228022500Y-63912258D02*
X228022500Y-63437742D01*
%TO.C,R1*%
X213227500Y-125187742D02*
X213227500Y-125662258D01*
X214272500Y-125187742D02*
X214272500Y-125662258D01*
%TO.C,J2*%
X188670000Y-62350000D02*
X188670000Y-54670000D01*
X191330000Y-54670000D02*
X188670000Y-54670000D01*
X191330000Y-62350000D02*
X188670000Y-62350000D01*
X191330000Y-62350000D02*
X191330000Y-54670000D01*
X191330000Y-63620000D02*
X191330000Y-64950000D01*
X191330000Y-64950000D02*
X190000000Y-64950000D01*
%TO.C,C17*%
X212859420Y-63490000D02*
X213140580Y-63490000D01*
X212859420Y-64510000D02*
X213140580Y-64510000D01*
%TO.C,R4*%
X206977500Y-125187742D02*
X206977500Y-125662258D01*
X208022500Y-125187742D02*
X208022500Y-125662258D01*
%TO.C,R8*%
X194837258Y-121457500D02*
X194362742Y-121457500D01*
X194837258Y-122502500D02*
X194362742Y-122502500D01*
%TO.C,D4*%
X192765000Y-64825000D02*
X192765000Y-67285000D01*
X192765000Y-67285000D02*
X194235000Y-67285000D01*
X194235000Y-67285000D02*
X194235000Y-64825000D01*
%TO.C,U3*%
X214850000Y-70350000D02*
X214850000Y-69850000D01*
X215150000Y-65150000D02*
X215900000Y-65150000D01*
X215350000Y-70350000D02*
X214850000Y-70350000D01*
X217650000Y-65150000D02*
X218150000Y-65150000D01*
X218150000Y-65150000D02*
X218150000Y-65650000D01*
X218150000Y-69850000D02*
X218150000Y-70350000D01*
X218150000Y-70350000D02*
X217650000Y-70350000D01*
X214950000Y-65150000D02*
X214590000Y-65150000D01*
X214950000Y-64790000D01*
X214950000Y-65150000D01*
G36*
X214950000Y-65150000D02*
G01*
X214590000Y-65150000D01*
X214950000Y-64790000D01*
X214950000Y-65150000D01*
G37*
%TO.C,Q1*%
X188430000Y-117570000D02*
X188430000Y-117385000D01*
X188430000Y-120490000D02*
X188430000Y-120675000D01*
X191700000Y-117385000D02*
X188430000Y-117385000D01*
X191700000Y-117570000D02*
X191700000Y-117385000D01*
X191700000Y-120490000D02*
X191700000Y-120675000D01*
X191700000Y-120675000D02*
X188430000Y-120675000D01*
X192020000Y-120890000D02*
X192020000Y-120490000D01*
X192420000Y-120490000D01*
X192020000Y-120890000D01*
G36*
X192020000Y-120890000D02*
G01*
X192020000Y-120490000D01*
X192420000Y-120490000D01*
X192020000Y-120890000D01*
G37*
%TO.C,C5*%
X213240000Y-67609420D02*
X213240000Y-67890580D01*
X214260000Y-67609420D02*
X214260000Y-67890580D01*
%TO.C,Q3*%
X211585000Y-121947500D02*
X211585000Y-121297500D01*
X211585000Y-121947500D02*
X211585000Y-122597500D01*
X214705000Y-121947500D02*
X214705000Y-121297500D01*
X214705000Y-121947500D02*
X214705000Y-122597500D01*
X211635000Y-123110000D02*
X211305000Y-123350000D01*
X211305000Y-122870000D01*
X211635000Y-123110000D01*
G36*
X211635000Y-123110000D02*
G01*
X211305000Y-123350000D01*
X211305000Y-122870000D01*
X211635000Y-123110000D01*
G37*
%TD*%
%LPC*%
D16*
%TO.C,C4*%
X197050000Y-70750000D03*
X198600000Y-70750000D03*
%TD*%
D17*
%TO.C,U8*%
X196000000Y-55750000D03*
X196000000Y-56600000D03*
X196000000Y-57450000D03*
X196000000Y-58300000D03*
X196000000Y-59150000D03*
X196000000Y-60000000D03*
X196000000Y-60850000D03*
X196000000Y-61700000D03*
X196000000Y-62550000D03*
X196000000Y-63400000D03*
X196000000Y-64250000D03*
X196000000Y-65100000D03*
X196000000Y-65950000D03*
X196000000Y-66800000D03*
X196000000Y-67650000D03*
D18*
X197050000Y-68700000D03*
X197900000Y-68700000D03*
X198750000Y-68700000D03*
X199600000Y-68700000D03*
X200450000Y-68700000D03*
X201300000Y-68700000D03*
X202150000Y-68700000D03*
X203000000Y-68700000D03*
X203850000Y-68700000D03*
X204700000Y-68700000D03*
X205550000Y-68700000D03*
X206400000Y-68700000D03*
X207250000Y-68700000D03*
X208100000Y-68700000D03*
X208950000Y-68700000D03*
D17*
X210000000Y-67650000D03*
X210000000Y-66800000D03*
X210000000Y-65950000D03*
X210000000Y-65100000D03*
X210000000Y-64250000D03*
X210000000Y-63400000D03*
X210000000Y-62550000D03*
X210000000Y-61700000D03*
X210000000Y-60850000D03*
X210000000Y-60000000D03*
X210000000Y-59150000D03*
X210000000Y-58300000D03*
X210000000Y-57450000D03*
X210000000Y-56600000D03*
X210000000Y-55750000D03*
D18*
X208950000Y-54700000D03*
X208100000Y-54700000D03*
X207250000Y-54700000D03*
X206400000Y-54700000D03*
X205550000Y-54700000D03*
X204700000Y-54700000D03*
X203850000Y-54700000D03*
X203000000Y-54700000D03*
X202150000Y-54700000D03*
X201300000Y-54700000D03*
X200450000Y-54700000D03*
X199600000Y-54700000D03*
X198750000Y-54700000D03*
X197900000Y-54700000D03*
X197050000Y-54700000D03*
D19*
X201350000Y-60050000D03*
D20*
X201350000Y-61700000D03*
X201350000Y-63350000D03*
X203000000Y-60050000D03*
X203000000Y-61700000D03*
X203000000Y-63350000D03*
X204650000Y-60050000D03*
X204650000Y-61700000D03*
X204650000Y-63350000D03*
D21*
X196000000Y-54700000D03*
X196000000Y-68700000D03*
X210000000Y-68700000D03*
X210000000Y-54700000D03*
%TD*%
D22*
%TO.C,J12*%
X186250000Y-63600000D03*
D23*
X186250000Y-61060000D03*
X186250000Y-58520000D03*
X186250000Y-55980000D03*
%TD*%
D24*
%TO.C,Q2*%
X191500000Y-125795000D03*
X191500000Y-125135000D03*
X191500000Y-124475000D03*
X191500000Y-123815000D03*
D25*
X189507500Y-125412500D03*
D26*
X189507500Y-124197500D03*
%TD*%
D27*
%TO.C,J13*%
X226032500Y-82750000D03*
D28*
X226032500Y-87750000D03*
%TD*%
D29*
%TO.C,D2*%
X205800000Y-118000000D03*
X205800000Y-122000000D03*
%TD*%
D30*
%TO.C,BZ1*%
X213000000Y-88000000D03*
X213000000Y-76000000D03*
%TD*%
D31*
%TO.C,R14*%
X194325000Y-56200000D03*
X192675000Y-56200000D03*
%TD*%
D32*
%TO.C,C18*%
X212225000Y-65470000D03*
X213775000Y-65470000D03*
%TD*%
D33*
%TO.C,C2*%
X209000000Y-124650000D03*
X209000000Y-126200000D03*
%TD*%
D34*
%TO.C,L1*%
X194000000Y-69712500D03*
X194000000Y-71287500D03*
%TD*%
D33*
%TO.C,C3*%
X210500000Y-124650000D03*
X210500000Y-126200000D03*
%TD*%
D35*
%TO.C,J7*%
X179967500Y-98750000D03*
D28*
X179967500Y-93750000D03*
%TD*%
D31*
%TO.C,R9*%
X195425000Y-119470000D03*
X193775000Y-119470000D03*
%TD*%
D36*
%TO.C,H2*%
X225500000Y-58500000D03*
%TD*%
D35*
%TO.C,J9*%
X179967500Y-109750000D03*
D28*
X179967500Y-104750000D03*
%TD*%
D37*
%TO.C,R16*%
X212175000Y-62470000D03*
X213825000Y-62470000D03*
%TD*%
D38*
%TO.C,D1*%
X201150000Y-80200000D03*
X199400000Y-80200000D03*
%TD*%
D27*
%TO.C,J16*%
X226032500Y-115750000D03*
D28*
X226032500Y-120750000D03*
%TD*%
D32*
%TO.C,C9*%
X199375000Y-83200000D03*
X200925000Y-83200000D03*
%TD*%
D33*
%TO.C,C7*%
X199800000Y-76825000D03*
X199800000Y-78375000D03*
%TD*%
D39*
%TO.C,R11*%
X210600000Y-122650000D03*
X210600000Y-121000000D03*
%TD*%
D36*
%TO.C,H3*%
X225500000Y-135500000D03*
%TD*%
D31*
%TO.C,R6*%
X195425000Y-126500000D03*
X193775000Y-126500000D03*
%TD*%
D40*
%TO.C,SW1*%
X212520000Y-55750000D03*
X220480000Y-55750000D03*
X212520000Y-60250000D03*
X220480000Y-60250000D03*
%TD*%
D41*
%TO.C,U5*%
X193530000Y-128550000D03*
X193530000Y-129500000D03*
X193530000Y-130450000D03*
X195805000Y-130450000D03*
X195805000Y-129500000D03*
X195805000Y-128550000D03*
%TD*%
D16*
%TO.C,C16*%
X194275000Y-59500000D03*
X192725000Y-59500000D03*
%TD*%
D36*
%TO.C,H1*%
X180500000Y-58500000D03*
%TD*%
D42*
%TO.C,U2*%
X202237500Y-73250000D03*
X202237500Y-73750000D03*
X202237500Y-74250000D03*
X202237500Y-74750000D03*
D43*
X202750000Y-74762500D03*
X203250000Y-74762500D03*
D42*
X203762500Y-74750000D03*
X203762500Y-74250000D03*
X203762500Y-73750000D03*
X203762500Y-73250000D03*
D43*
X203250000Y-73237500D03*
X202750000Y-73237500D03*
%TD*%
D39*
%TO.C,R18*%
X229000000Y-64500000D03*
X229000000Y-62850000D03*
%TD*%
%TO.C,R13*%
X189780000Y-130625000D03*
X189780000Y-128975000D03*
%TD*%
D40*
%TO.C,*%
X213200000Y-56300000D03*
%TD*%
D35*
%TO.C,J3*%
X179967500Y-76750000D03*
D28*
X179967500Y-71750000D03*
%TD*%
D44*
%TO.C,U6*%
X197900000Y-126500000D03*
X200200000Y-126500000D03*
D45*
X200200000Y-120200000D03*
D44*
X202500000Y-126500000D03*
%TD*%
D39*
%TO.C,R12*%
X191780000Y-130625000D03*
X191780000Y-128975000D03*
%TD*%
D46*
%TO.C,R3*%
X206000000Y-124600000D03*
X206000000Y-126250000D03*
%TD*%
D27*
%TO.C,J14*%
X226032500Y-93750000D03*
D28*
X226032500Y-98750000D03*
%TD*%
D37*
%TO.C,R19*%
X192675000Y-63000000D03*
X194325000Y-63000000D03*
%TD*%
D47*
%TO.C,C8*%
X199000000Y-75175000D03*
X199000000Y-73625000D03*
%TD*%
D48*
%TO.C,J1*%
X214090000Y-139110000D03*
X212990000Y-139110000D03*
X211890000Y-139110000D03*
X210790000Y-139110000D03*
X209690000Y-139110000D03*
X208590000Y-139110000D03*
X207490000Y-139110000D03*
D49*
X206440000Y-139110000D03*
D50*
X216725000Y-132960000D03*
X216725000Y-129260000D03*
D51*
X216550000Y-138985000D03*
D52*
X213225000Y-128285000D03*
X207255000Y-128285000D03*
D53*
X205230000Y-138760000D03*
%TD*%
D16*
%TO.C,C15*%
X194275000Y-61500000D03*
X192725000Y-61500000D03*
%TD*%
%TO.C,C1*%
X203775000Y-86000000D03*
X202225000Y-86000000D03*
%TD*%
D37*
%TO.C,R10*%
X199450000Y-81700000D03*
X201100000Y-81700000D03*
%TD*%
D35*
%TO.C,J6*%
X179967500Y-87750000D03*
D28*
X179967500Y-82750000D03*
%TD*%
D16*
%TO.C,C14*%
X194275000Y-57800000D03*
X192725000Y-57800000D03*
%TD*%
D54*
%TO.C,U1*%
X201837500Y-87500000D03*
X201837500Y-88000000D03*
X201837500Y-88500000D03*
X201837500Y-89000000D03*
D55*
X202500000Y-89162500D03*
X203000000Y-89162500D03*
X203500000Y-89162500D03*
D54*
X204162500Y-89000000D03*
X204162500Y-88500000D03*
X204162500Y-88000000D03*
X204162500Y-87500000D03*
D55*
X203500000Y-87337500D03*
X203000000Y-87337500D03*
X202500000Y-87337500D03*
%TD*%
D40*
%TO.C,*%
X219800000Y-56200000D03*
%TD*%
D56*
%TO.C,U4*%
X188550000Y-83450000D03*
X189650000Y-83450000D03*
X190750000Y-83450000D03*
X191850000Y-83450000D03*
X192950000Y-83450000D03*
X194050000Y-83450000D03*
X195150000Y-83450000D03*
X196250000Y-83450000D03*
X197350000Y-83450000D03*
X197350000Y-73750000D03*
X196250000Y-73750000D03*
X195150000Y-73750000D03*
X194050000Y-73750000D03*
X192950000Y-73750000D03*
X191850000Y-73750000D03*
X190750000Y-73750000D03*
X189650000Y-73750000D03*
X188550000Y-73750000D03*
%TD*%
D27*
%TO.C,J11*%
X226032500Y-71750000D03*
D28*
X226032500Y-76750000D03*
%TD*%
D57*
%TO.C,C10*%
X201000000Y-138200000D03*
X201000000Y-133800000D03*
%TD*%
D46*
%TO.C,R5*%
X212000000Y-124600000D03*
X212000000Y-126250000D03*
%TD*%
D35*
%TO.C,J10*%
X179967500Y-120750000D03*
D28*
X179967500Y-115750000D03*
%TD*%
D27*
%TO.C,J15*%
X226032500Y-104750000D03*
D28*
X226032500Y-109750000D03*
%TD*%
D31*
%TO.C,R7*%
X195425000Y-124490000D03*
X193775000Y-124490000D03*
%TD*%
D58*
%TO.C,J5*%
X188500000Y-133820000D03*
X194280000Y-133820000D03*
D59*
X188190000Y-132680000D03*
X188990000Y-132680000D03*
D60*
X190140000Y-132680000D03*
X191140000Y-132680000D03*
X191640000Y-132680000D03*
X192640000Y-132680000D03*
D59*
X193790000Y-132680000D03*
X194590000Y-132680000D03*
X194590000Y-132680000D03*
X193790000Y-132680000D03*
D60*
X193140000Y-132680000D03*
X192140000Y-132680000D03*
X190640000Y-132680000D03*
X189640000Y-132680000D03*
D59*
X188990000Y-132680000D03*
X188190000Y-132680000D03*
D61*
X187070000Y-133320000D03*
D62*
X187070000Y-137500000D03*
D61*
X195710000Y-133320000D03*
D62*
X195710000Y-137500000D03*
%TD*%
D63*
%TO.C,J4*%
X192000000Y-70250000D03*
D64*
X190500000Y-71725000D03*
D63*
X189000000Y-70250000D03*
D64*
X190500000Y-68775000D03*
%TD*%
D44*
%TO.C,U7*%
X189300000Y-92100000D03*
X191600000Y-92100000D03*
D45*
X191600000Y-85800000D03*
D44*
X193900000Y-92100000D03*
%TD*%
D46*
%TO.C,R2*%
X215250000Y-124600000D03*
X215250000Y-126250000D03*
%TD*%
D36*
%TO.C,H4*%
X180500000Y-135500000D03*
%TD*%
D22*
%TO.C,J8*%
X210620000Y-117955000D03*
D23*
X213160000Y-117955000D03*
%TD*%
D33*
%TO.C,C6*%
X201600000Y-76825000D03*
X201600000Y-78375000D03*
%TD*%
D40*
%TO.C,*%
X219800000Y-59700000D03*
%TD*%
D39*
%TO.C,R17*%
X227500000Y-64500000D03*
X227500000Y-62850000D03*
%TD*%
D46*
%TO.C,R1*%
X213750000Y-124600000D03*
X213750000Y-126250000D03*
%TD*%
D22*
%TO.C,J2*%
X190000000Y-63620000D03*
D23*
X190000000Y-61080000D03*
X190000000Y-58540000D03*
X190000000Y-56000000D03*
%TD*%
D32*
%TO.C,C17*%
X212225000Y-64000000D03*
X213775000Y-64000000D03*
%TD*%
D46*
%TO.C,R4*%
X207500000Y-124600000D03*
X207500000Y-126250000D03*
%TD*%
D31*
%TO.C,R8*%
X195425000Y-121980000D03*
X193775000Y-121980000D03*
%TD*%
D40*
%TO.C,*%
X213200000Y-59700000D03*
%TD*%
D65*
%TO.C,D4*%
X193500000Y-66500000D03*
X193500000Y-64750000D03*
%TD*%
D66*
%TO.C,U3*%
X215425000Y-65875000D03*
X215425000Y-67125000D03*
X215425000Y-68375000D03*
X215425000Y-69625000D03*
X217575000Y-69625000D03*
X217575000Y-68375000D03*
X217575000Y-67125000D03*
X217575000Y-65875000D03*
%TD*%
D24*
%TO.C,Q1*%
X191500000Y-120020000D03*
X191500000Y-119360000D03*
X191500000Y-118700000D03*
X191500000Y-118040000D03*
D25*
X189507500Y-119637500D03*
D26*
X189507500Y-118422500D03*
%TD*%
D33*
%TO.C,C5*%
X213750000Y-66975000D03*
X213750000Y-68525000D03*
%TD*%
D67*
%TO.C,Q3*%
X212195000Y-122885000D03*
X214095000Y-122885000D03*
X213145000Y-121010000D03*
%TD*%
%LPD*%
M02*
